<mxfile host="app.diagrams.net" modified="2023-03-07T02:04:03.615Z" agent="5.0 (Macintosh; Intel Mac OS X 10_15_7) AppleWebKit/537.36 (KHTML, like Gecko) Chrome/110.0.0.0 Safari/537.36" etag="lQhl4jlYiCxtU241EmMO" version="20.8.23" type="github">
  <diagram name="system_diagram" id="ptw6dxTCpjK3Fw7Sylfx">
    <mxGraphModel dx="287" dy="133" grid="1" gridSize="10" guides="1" tooltips="1" connect="1" arrows="1" fold="1" page="1" pageScale="1" pageWidth="850" pageHeight="1100" math="0" shadow="0">
      <root>
        <mxCell id="0" />
        <mxCell id="1" parent="0" />
        <mxCell id="WnzjhXwsgpQ9HhIkCpvY-54" style="edgeStyle=orthogonalEdgeStyle;rounded=0;orthogonalLoop=1;jettySize=auto;html=1;entryX=0;entryY=0.5;entryDx=0;entryDy=0;" edge="1" parent="1" source="WnzjhXwsgpQ9HhIkCpvY-52" target="WnzjhXwsgpQ9HhIkCpvY-53">
          <mxGeometry relative="1" as="geometry" />
        </mxCell>
        <mxCell id="WnzjhXwsgpQ9HhIkCpvY-52" value="" style="verticalLabelPosition=bottom;verticalAlign=top;html=1;shadow=0;dashed=0;strokeWidth=1;shape=mxgraph.ios.iKeybLett;sketch=0;" vertex="1" parent="1">
          <mxGeometry x="50" y="153.75" width="174" height="100" as="geometry" />
        </mxCell>
        <mxCell id="WnzjhXwsgpQ9HhIkCpvY-53" value="" style="rounded=1;whiteSpace=wrap;html=1;arcSize=5;" vertex="1" parent="1">
          <mxGeometry x="260" y="57.5" width="440" height="292.5" as="geometry" />
        </mxCell>
        <mxCell id="WnzjhXwsgpQ9HhIkCpvY-55" value="&lt;font style=&quot;font-size: 14px;&quot;&gt;System Diagram&lt;/font&gt;" style="text;html=1;align=center;verticalAlign=middle;resizable=0;points=[];autosize=1;strokeColor=none;fillColor=none;fontStyle=1" vertex="1" parent="1">
          <mxGeometry x="415" y="27.5" width="130" height="30" as="geometry" />
        </mxCell>
        <mxCell id="WnzjhXwsgpQ9HhIkCpvY-56" value="" style="rounded=1;whiteSpace=wrap;html=1;arcSize=7;" vertex="1" parent="1">
          <mxGeometry x="285" y="90" width="390" height="240" as="geometry" />
        </mxCell>
        <mxCell id="WnzjhXwsgpQ9HhIkCpvY-57" value="" style="shape=image;verticalLabelPosition=bottom;labelBackgroundColor=default;verticalAlign=top;aspect=fixed;imageAspect=0;image=data:image/jpeg,/9j/4AAQSkZJRgABAQEAYABgAAD/2wCEAAYEBAUEBAYFBQUGBgYHCQ4JCQgICRINDQoOFRIWFhUSFBQXGiEcFxgfGRQUHScdHyIjJSUlFhwpLCgkKyEkJSQBBgYGCQgJEQkJESQYFBgkJCQkJCQkJCQkJCQkJCQkJCQkJCQkJCQkJCQkJCQkJCQkJCQkJCQkJCQkJCQkJCQkJP/CABEIAlgCWAMBIgACEQEDEQH/xAA2AAEAAQUBAQEAAAAAAAAAAAAAAQIDBAcIBQkGAQEAAwEBAQEAAAAAAAAAAAAAAQIDBAUGB//aAAwDAQACEAMQAAAA6pAAAAAAAAAAAAAAAAAAAAAAAAAAAAAAAAAAAAAAAAAAAAAAAAAAAAAAAAAAAAAAAAAAAAAAAAAAAAAAAAAAAAAAAAAAAAAAAAAAAAAAAAAAAAAAAAAAAAAAAAAAAAAAAAAAAAAAAAAAAAAAAAAAAAAAAAAAAAAAAAAAAAAAAAAAAAAAAAAAAAAAAAAAAAAAAAAAAAAAAAAAAAAAAAAAAAAAAAAAAAAAAAAAAAAAAAAAAAAAAAAAAAAAAAAAAAAAAAAAAAAAAAAAAAAAAAAAAAAAAAAAAAAAAAAAAAAAAAAAAAAAAAAAAAAAAAAAAAAAAAAAAAAAAAAAAAAAAAAAAAAAAAAAAAAAAAAAAAAAAAAAAAAAAAAAAAAAAAAAAAAAAAAAAAAAAAAAAAAAAAAAAAAAAAAAAAAAAAAAAAAAAAAAAAAAAAAAAAAAAAAAAAAAAAAAAAAAAAAAAAAAAAAAAAAAAAAAAAAAAAAAAAAAAAAAAAAAAAAAAAPxh+r8355/mz6XPmgPpe+aA+l75owfS980B9L3zRH0ufNEfS580JPpdPzQH0ufNGD6XvmjB9L3zRg+mEfNEfS+PmgPpfPzQg+l75oj6XPmiPpc+aMH0vfNGD6YR80YPpe+aA+l75oD6Xz8zx9Qcr5od1mxAAAAAAAAAAAAAOZ+mOXjk+5+q3F3+9znPR1WvfzfPSF7OvNLqL0ubLkuOwaOanIc9ibB28v59PoS08357PoOT8+H0Ik+ez6FSj56PobXD53z9Dra/wA9J+hORE/O19F4rPzpfRSlb52x9EC3zwfQuYn55x9CSfns72pvrwW7ytTPCUd1xLhWO0fJju5DddQ25C6f1Rs7Lw+uxXEAAAAAAAAAAABy91Dy8c97c1Ftv6P7jIuYtzt9/Imlje5VanGub6/525w4fqPd/Iej5XnbPoxbnf8AntU21ovTZqhdqs1Qv1401mu3FuNrtViuumdVhZFYuQitli1TXpuxTK1VqvAm1uKY16JtTRdT+cvea9WEI7kEzorZustm8nxXXgpxAAAAAAAAAAAAOXuoeXjnrbWpNs/S/bVV26/Q9zIuYuThpMlLpiKsj1PEv8WWwv1OoP3nL8h+jhE/M1LcxN2bUwuTbmtqrdMU2uVWqo0vXMVDLsYynTeqs1V1uzaIq8+uxfaqiKL6ThZHgW6MaiaXrEJkJnRWzdZbN4/ievBTiAAAAAAAAAAAAcvdQ8vHPG19T7U+o+xu12avS9y/VZqynNnFv4b1qZppMxBk3/Pqxr+y/d6Y/T83zWwIsXeX5KubU1XaKEXqiiI2uzbmLXLc4ka13seunXfmzMVu26MWb10UUTtXbotrW/FycS3pRBPQiYlJBorZ2sdncnxPXYpxAAAAAAAAAAAAOXuoeXjnXaWq9mfX/W5VWJPq+xmXMG5npmVWLnPa9cx5z0y5xb2WtcTTW8qZ0n0tgat9Lk87ba1X5XwUxTS2qimGtc24Wu4dyxn03q8eqmuRNkrOIsRveot0TeqzGJXfGomnTvIWmUCYJaL2drHZ3H8R12KcQAAAAAAAAAAADl/qDl85w2TrbY/2f1Fc0T7Xq11W5aXcnCqpr6NeBd5NMqqzVlfLWLuG8ra97qhe/wC8/Z6W234/yOTEUcXlVLVU6V0U01utUU49VdVia3ylilW1RaR03KKaIuwr+JHTEI02mC0kTJMEaL2frDZ/H8R12KcQAAAAAAAAAAADl/qDmA5r2Hr39/8Ac/RZNeJd9j1b00VV1qqomNa5pqXqvWJppn1Yd7l2vLc00qmiNLZHv/l78N2WfE9r5f4umbVNJqY0U2mLdOPRdmzNLZFicSbXFENa7cWq3t2podKIjSalK6qaJK1M2jRm0NX7Q4fiOuhnxAAAAAAAAAAAAOYOn+YDmvYGv9gfd/QqZp970Ll/DiLehOHdy2yarNdNrlVua6XLlmqumUtV471xTE2qminS3u7U0n++8rzv02Pcx/n/AB6qKbdN7kW4x2uzappNduhbSuKKZtNlZjWaaaJ0riiNZuKFouTamy5NCzSO0dWbU8z4brkZcQAAAAAAAAAAADmDp/mE5q/f6+/ffd+/VER7/ehF4UqdKppp0jIrxIi/o5HiKafo7n5vM5+r2pxrvJ31xEWs9Pya733JZ/O/ofifDooi3ybVRRFNa6KKVri2ma7dNqZmiKGs0U0bWuLTVdmyleqsTqvWreD1TqPbmodvfPfB9cjk4QAAAAAAAAAAAHMPT3MJzJ+z/F/svvfUu3cV7/bmMS5bS9FLW6IjSEIvEwi0ILK/Y8Sct/0zByvO9mbdVvV6m0NNfu/Cx/RW1n5DS5TapnS7Fmm036bFFl63Zp1teptU2XKKI1XIt03m4suhfjHx+q1VGPX6c6s3BpzcnwfwHXA4eAAAAAAAAAAAABzD09zEcxfsfx37D730qoh7/SmIQrtxLIY063vqXRpMIvEoSlSlc9nw7+fX7NNE4eoycUjZM/hf1XxPbm0YFvPb0afOjWPRpwFmZGK0jKpx5ml5Ypit+nHp3vkxjU9Nr+Fbo71+rGq0rrXcul90/nHwPXA87gAAAAAAAAAAAAcw9PcxHMP7D8f+v+89GUR728ohEwiYQpiiu3TMZbFvdu9aG95QKlJOZ6Hh5NO301FVe+fR8xTX9RHm5HmenkU2Ymchh02jPnBrMyrCUzzqcKIjKt41HRpk2bNPQurVV6XarFqKfgN26N3l+XfBdcDy+IAAAAAAAAAAABzF07zEcwfr/wAd+r+47bq3Pv71QiYlTCJiIUQprSYiIpfu4VfXtlqJ7umpCZlEpq9DzIbe5T5+ZPpXc7y656vSpxq8eq7FCFSmm037uGrObGGXyaLDSb82JmuQwrM4ZdFiq/P+I3pone/5F8f1uPJ5AAAAAAAAAAAAHMXTvMZy7+p/K/qfs+mYiPZ0maIVuTYiYvxam0VxEWrMIVCInIxo20zmNe9LrrQ20qUzJXRFrejV5mXv6GXcsVW9G/Nhnrei0mLi0suRQlWt02rcoootzXWPQ5shjyp+T37oDf8A+M/P9bjx8AAAAAAAAAAAAHMfTnMhy1+n/I+z9Tr6rynqW9OPMisenHmKV9F5qI9GfLI9d5Fez1HmLvTeYPTnzEvYu+FV19HuPHnu39d5CZ9iPJiz3M38tO3X+rn89Vp6PvvAHvPAg/QU+BTNPeo8OJx9unxonD2I8aGftPFRHm9Ac69GflXl9ajy8gAAAAAAAAADTmdLarWdJs7m7YH5A5Gb2GiZ3pBotvQaMb0Gim9ZNEt7SaIb3k0PO+Boad8yaFjc3pmhvS3ZeNOUbtGkcHe8HPU7+tmhG4/YNCxvkaHb4g0PO94NEN7waJnesGim9YNFzvMaLb1k0T0h4v7s6Iavk2e1naNotKbphUAAAAAAACn8r+sGpfzm/UuW8DrMcjR10RyI67J5EddkciOuxyI67HIjrsciR14TyI67HIjrsjkR12ORHXZPIjrsciOuyORHXY5EddjkSeuieRY67I5FddDkV10TyK66I5FnrknkZ1yRyNPXBPJN/q8jl/8AR79J1L+r/XoUVgAAAAAAAAAAAAAAAAAAAAAAAAAAAAAAAAAAAAAAAAAAAAAAAAAAAAAAAAAAAAAAAAAAAAAAAAAAAAAAAAAAAAAAAAAAAAAAAAAAAAAAAAAAAAAAAAAAAAAAAAAAAAAAAAAAAAAAAAAAAAAAAAAAAAAAAAAAAAAAAAAAAAAAAAAAAAAAAAAAAAAAAAAAAAAAAAAAAAAAAAAAAAAAAAAAAAAAAAAAAAAAAAAAAAAAAAAAAAAAAAAAAAAAAAAAAAAAAAAAAAAAAAAAAAAB/8QAKRAAAQIEBQUAAwEBAAAAAAAAAQIRAAMVFgQFBwgSBhATF0AUIDCAoP/aAAgBAQABAgD/AEk7/wAH/g/8Hf8Ag/8AB/8AFb/8Xr4vMVda3xfF8XxfF8XxfF8XxfF8XxfF8XxfF8XxfF8XxfF8XxfF8XxfF8XxfF8XxfF8XxfF8XxfF8XwOtsHmr/VqvqB1dqerM6hUKjUKhUahUKhUKhUahUKjUKjUKjUKjUKjUKhUKhUKjUKhUKhUKhUKhUKhUKhUKgMy6b1D0S1O+renjJcv8P8P8L8L8Cn0+nnApy6mUul0ul0ul0ul0ul0unUulUul0ul0ymUulUumU2m02nU6n084L8L8KZK2V436t6x0tUlcAgysTKznD5uCpGV5rgsUQzv2EACAFQ5iQtiCCOLQ7NNjioKDLVj85USG13jZZ9e9aNMIBRNEOCFBWGxuEzRSekcydSisK5AhQUCCtZUFBUudyPZRVPEwmMTMd1FRmzcfmJMHtrvGy36960aY9nlzB2cKCkqy7MQrAY5SoBBCgoK58ypSuQUhSVgqVNnCAX5Yuc5UVE5tjT+uu0bLfr3rRpl2dMSlt3CkKweZdLZk7u4IUVOCVO4UFJmnFTcSCDy5TZ5JKlFWZYsk9j312jZZ9e9aNMyCCkvLW3dKkLwuMyjrIElwoKcEqUrkFBXLlMnJUDy5FeImlRUpSlY/EGCf012jZZ9e9aNNSCFBQKFpX2eAqXNEdNdUhRhweXMrfkC7z5yClQVy5zJxUVKWpePxJJ/Ro12jZZ9e9aNNzyCgQpJStMx37pmoxnTnVeDzAl3KnJCuQUFTpiVBXLkpc2YVlalqmY+cS8PDk67Rss+vetGnJCgoKCkqBChNTOSezmEqwGadO9QwS5UTy5OqYCFBYWVzJhWVqWpc2cpRPZ3gxrtGyz6960afHmJgmCcjEImBQIKVImGHd4ynNMLijClcirk5XOUDySsLKsRM5lalqXiphMGH/TXaNlf171o6Bh3CgQUrlzkrCgQpEwnk7k9A54qFEqKgX5YhfLklYWVTZnIqUpSpqz/AA11jZX9e9aOgoeHcEEFM9OJTMCkK5FQWFPgsZleaqJPIKmLSqZMKuYUFzZvLkSpU5ZJL9we2u0bK/r3rR0RCJqVgwCCCDAMuelfPm7iaFdH56oqJUFLmGYFlXMKCsTNdypapqySYd3h311Oyv6960dD9gpE0F3BBB7SpnIFySUqSvo/OlwSuaFzpnIqcKMwrfkpS1qJJLu7u766Rsr+vetHRHcwielYIIIILuhYU/JyUTMgzczFqmLClr5cgrlNmO5UpS1lRL8nBBcF9czsr+vetHREOexgKTik4pMwEKCgRCVhTu5MiZ0PnM0qUVFRVy5KmcuRWpa5ilFZUVcuXLk4Vy1wOyr6968dEQ7ku5MGBNGNTmSMyl41MxK+TuSF5ZmMvELJJUVclL58uRUpalFRUVcuXLkFBRXOxGsitlX17146LUFuYJMGDBhyX7S8RIzWVPCnJMYeb0NmswqUVFRUV8uXJS1KKipSirly5cwvnMnKm6wHZT9e9eOk4BTiEz3JJckkw8HsYkz8HjgolRJyjNPMslRUpZUVFZWqYVlZUVcnKufLmZk/EJVq4dlX17146Uh+wmJxAXDkmD2JeHSvBY3kSShfRmcrWpZmGYZpmmaqaZhmeQzCvmVFfPkV4nEBYXqwdlP17146UgGH7OJyZjwf1d5UyRiORMYDG4TMlTzPOIOI85nGcZvk8hXz8hmeTmVzZ5mcwvVQ7Kvr3rx0r+jvB7JmpWexLv2fC4hK3h8ozcYlU0zfL5fN5fL5PJz5lZmGYZxnzZ/MLC9UDsq+vevHSsHu7kwSYdM8Ew7vDvhMUC/bKswVM8hm+Xy+UThO8wneVU1UxU0zZk7mFhXPUleyn6960dLd3d4cwYclK0TP0eHw2NRMjk+Cx/l8ippxH5icV5vN5/yTiFTvMqY4IPKZP1BVsp+vetHS8PDu7kkwSYJdE8dnd3iXOkY1+SJkvEmZyghgtGIE/mVFZmBTgqmzMRy69Oyn6960dNRz8nNyX5ciXJckxLnJVDu8HtIxwXyRNTMC+XLkVcuXl83k8gX5l4wzAoK67Oyn6968dNw/bl5ObuSSS7vCVS5z9nftKny5zpUJomeTyGZz58+fkM0zCpzMOI/J6zXsp+vevHThd3ckl/IJr/uiclfZ3gwDJxQIILu7u7kklRmqmO79XHZT9e9eOnYd3dySSYcTQezu7gongu7v2k4mXMBd4dzBWZpmEku7v1bGyn6964ynF3FcVwnqG4K+c/r1drtcGejqC4LguC4LguC4E9RXNc1zXPc9z3MjqmX1ned53neV4nrC77uu27T1Zdd1XTdWe5hsoT9W8qRTabTabTabTabTabTabTabTabTadTabTcp6Sm6b4rT719mvSlNptNptOptNptNp1NptNp1NptNptNp1N2bYf5c81XwWuZ1oOs/ujUnOfVh0t9W+rfV3q71d6u9W+rfVvq31Z6s9WerPVg0rzrTGRowjRSVo16oOk69Hp+jatFFaLZZpkdK/Vfqz1Z6s9WerfVvq06W+rfV3q71d6t9W+rPVmmmK9zp1nGs2J1vlawoP91y850rx+3bMNAsZpPM04PQNhWHYVhWHYVhWFYVhWFYVg2FYVg2DYVg2DYVgnoGwrBsGwbBsGwbBsGwbBsGwbBsGwbAsGwbBsGwRp/K01wukmX6CYDbzlGk0qT/AMEX/8QAUxAAAQICAgoMCwYEAwgDAAAAAQACAwQFEQYSICExUVRVkpMHECVBU2FzkaHB0dITIjBAcXKBg7Gy4SQmMmN0ohQjQlIVYoIWMzRFZISgwkNE8P/aAAgBAQADPwD/AM6yTkG283NwJduOLEDfirG2mo05R4981WM59o/XBWM59o/XBWM59kNcFYzn2j9cFYzn2j9cFYznyj9cFYzn2j9cFYzn2j9cFYznyj9cFYzn2j9cFYznyQ1wVjOfKP1wVjOfaP1wVjOfaP1wVjOfaP1wVjOfaP1wVjOfaP1wVjOfaP1wVjOfKP1wVjOfaP1wVjOfaP1wVjOfaP1wVjOfaP1wVjOfaP1wVjOfKP1wVjOfJDXBWM59o/XBWM58o/XBWM59o/XBWM59o/XBWM59o/XBWM58o/XBWM59o/XBWM59o/XBWM59o/XBWM59o/XBWM59o/XBWM59o/XBWM59o/XBWM59o/XBWM59o/XBWM59o/XBWM59o/XBWNONQpyj9c1SFICuTnZaYH5UQO+Hnkvsc2JTNLxKnR/wQWHfdUrJ7MaQizc9SkzavcSIbXkABTrsM3HJ9cqcyqNplTmVRtMqcyqPplTmVRtMqcyqNplTmVR9MqcyqNplTmVRtMqcyqNplTmVRtMqcyqPplTmVR9MqcyqPplTmVR9MqcyqPplTmVR9MqcyqNplTmVRtMqcyqNplTmVR9MqcyqNplTmVRtMqcyqNplTmVR9MqcyqPplTmVRtMqcyqPplTmVR9MqcyqNplTmVR9MqcyqPplTmVRtMqcyqPplTmVR9MqcyqNplTmVRtMqcyqNplTmVR9MqcyqNplTmVR9MqcyqNplTmVRtMqcyqNplTrcE1H0yrJLFp6HN0fSsywscDal5IKh7JtibJ2JUJ2ARDjtGPH53Eh0JQ8s1xDHxS4jHhT4ptYbHPOJorKmsmjaBU1k0bQKmsmjaBU3ksfQKnDglJjVlTmSTGrPYpzJJjVnsU5kkxqz2KbGGUj6sqdcK2ycwRjEM9insimdU7sU/kM1qndipDIZrVO7FSGQzWqd2KkMhmtU7sVIZDNap3Yp/IZrVO7FP5FNap3Yp/IprVO7FP5DNap3Yp/IZrVO7FP5DNap3YqRDLT+Cmaia/9y7sU/kM1qndipDIZrVO7FP5DNap3Yp/IZrVO7FP5DNap3Yp/IZrVO7FP5DNap3Yp/IZnVO7FSGQzWqd2KkMgmtU7sU/kM1qndin8imdU7sU9kczqndinsjmdU7sU7kczqndinsjmNU7sU7kcxq3dincjmNWexTuRzGrPYpsf/Vj6sqaw/wANG0CprJY2gVEhG1iw3MNVdThUognqZlLY+DLLarjvdnnf2GhR/mPWrWyiv/p3/EIOwIKraiwvwRHN9BU1D/EWvH+YKXjCqJ/Kdx4OdMe0OaQQd8IYlHoiPbwvGhk+PDOB3YVAnpWHMwSCx4rF6+OI8aBOAIAYAhhqCGIIYgm4ghiCGIIYhzIYggN4IYghiHMmkWpAr3kMQQxBNqwBDEEMQ5kMQ5kCcAQaK6ggb9QQxBB8RzqhfKGIIYghiCGIJkNpe8ta0YSV4QGFLipuAuIvlWxrN8oYghiC+9En+kHzOW7lLj8rzv7FQvrH/wBl95v+3f1K+q7x2qriNKurhuvHCDgKhzNTHi0iYt4+jaMtNOkojv5ca+yvef8AUdW1vDyFQVZ26jWDfVu3j37gAVkpt8CsoYii439rwcJx3zeFyyDDdEebVovkqJOPqFbYQwN7bn70Sf6QfM5bu0tyXnf2KhfWPWvvL/27/iNuq8cF2XVQYxrOBrj8CnQ3h7CWuaawRvFNn5GFMNqre2+MR3/I17VZ2yDWFbDaqv1oxDVX4tzbxLUYG/G5MeL4Jh/lsPObr70Sf6QfM5bu0tyXnf2KhfWPWvvL7h/Vt1r+k+y4qVR2gGiHHPEHdqEKKZR7haRfGYa7wd9VX5GoXIagMATot4Xm/G5ENhO/vXP8PLkNPjvvDi47v70Sf6QfM5bu0vyQ87+xUJ6x61VZL7h/Vc2447mpVqNKva+E8gtIcBvVqSnrWFM/ZoxveMfEceI73tVYvKq6qCr2uNDbrNqPbdWz6t4XP8RMOIPii827+9Ep+kHzOW7tL8kPO/sVC+setVWSe4f1XJaawg4Vi5LTWEDv1KtRKOe2VnHl8qbzXG+YX04k2I0OaQ5pFYIN43Rd6FVc+DbUMJwXVq2vf3lx3HgoBAPjOvDyH3olP0g+Zy3dpjkh539ioT1j1qqyP3D+q6LTWEHDjuns/C72If1tq4wnUc0S8YmNK13qvxQ/RxcSlaQheElYzIjd+o3x6RvXFd7eu7eKcQvXPGrZxxC58JGta7zb3kPvRKfpB8zlu7THJDzv7DQnrHrVVkPuH/EeQcONDfCDsBuXMNbSQeJRYEVr4cV0GKMDmmqtf4swwI4DZpgrvYHjGOPavXdTTxKs13NQJubRhdiRJrOE+Q+9En+kHzOW7lMckPO/sNCesetVU/7l/wAQijjRxpw31fvhBwvG4INYKtrxw3USTmoUVrv5kNwLSd/iKhzktDmIRrZEbbC7qVUOrHc3lgHtubwb7T5H70Sf6QfM5buUxyY87+wUJ6561u97l3VdFprBVt6UNvfVu3jucS8IX0bFdfPjw68e/wBvOryv3Ns5eMG4htX9u8raIcWC5t3k+R+88n+kHzOW7lM8mPO/sFCeuetbve5d8Rd1XwU4Yb6acNYQOAg7VqawgRWNrGq9qLR83CmoDqokJwcOPiUCmZCHNwDedec3fY7fBuahVj2raI43NpDJuamnGfJfeiT/AEg+Zy3bpnkh53ufQnrnrW7fundSLbxvhAi8q7si+Cjgdz7VSr26sN9Ai8jRFIiFFdVKzBDX1m807zuq5rcVasLuK6rIYDgv3NbvR5L7zyf6QfM5bt0zyY873PoT1z1rdv3TuraLb4QdxHyNXin2bde2WmsIPFa/xSixCiurmJYBj68Lm/0n/wDYtu0G14oHtubUEq2JJwm4qF1Xc/eeU/SD5nLdqmuTHne51Ccoetbte6d1XBbedfGNB18HyFd43Vo6veTqHpOFNAkwz4sRo32nD2+xMiQ2xGODmOAc0jAQVUq6tqt1wFXe26tqs+TrsnlP0g+Zy3aprkx53ubQnKHrW7XundW3v7RbfBqTm/iFahnCavSmuwOB9BuK1fuqlX4p9iMxLPoyK6t8EW0Infbvj2H47V/a3/MeO4rsmlOKUHzOW7NNcm3zvcyhOUPwK3a907q2711Ebge4e1Rm4XA+kJw/EwH0FQ/6g5vSoL8ERvtvIHar2q9otIIwhRJCbgzkE+NDdXVjG+OZQ5uXhzEI1w4rQ5p4jdVC6r8jVtCG3/McARdZHLEms/ww+YrdmmuTb53uXQnKH4FBlM1k1DwTupA4DX5WLC/A8ji3kReit9rU2K0OY4OBxbWLbtXWpwFeGl4tGxHeNC/mQ/VOEewnpVVzXtcflhDaXFGI4uJVdkEr+mHzFbsU1ybfO9y6E5Q/ArdT3bupEXwU4Yb6a7DePH5WJAfbMdVjxFMmRV+F4wt7Lio1p9HzsCbZfMN3jDGN8cyZHhMiw3BzHgOaRvgq/t1+YVb6MV978IwbVdPy36YfMVuxTXJt873LoTlT8HLdT3buq4czAVX+IVIOvg1+Tcxwc0kEYChMMqNQeMIuLR3Fvrw0s6j4rvGhC2hE77d8ezru+PyfHtVeI0+nbrp6W/Tj5it16b5Nvne5VCcqfg5bqe7d1XRBrBqThhvprt+6Nw6E8PYaiE2NDDx7RiuIkjMQ40J1q9hrHYoc/LMjwsDsIr/Cd8I7XGuNca49rj2+O7DG18yJJJN87ddOy/6cfMVuvTfJt873KoTlT8HLdT3buryLm4b4QfgPkTAiX/wnCFbCsGu4iUdGvkmE+89vX6U2MwPhuDmkVghHGjjXGuPygAwq3dhvC4rpuX/Tj5it16b5NvX53uVQnKn4OW6nu3dSr2hd1YCt53Oqxh8haHwbz4u8cVy6CfAPcQw/hOI4k4mouIPpTx/Vzp+NPxp2NHGnY0UbnjXGibwNxUK1b0zAP5A+JW61N8m3r873JoTlT8HLdT3buryhZg5kH+nF5AwqmvrLekJsRoc0gg3HhIYhRTW5ovHGFicjvgFVbyAN+rnTBvhNdgcEUUeJHiRK49qu9cVBV+hW1LQT+SPiVutTfqN6/O9yaE5U/By3T927q8rfr31vPPt8g+C62YauLGmRrzvFdix7dqQQrZt8+1V75RKG25uBxHtTxecbYJp36vShjQxoVYblrBWT7EX8QxKtbqweRHxK3Wpv1G9fne5NCcsfg5VUj7s9SIWMIHf8oYd432oOFYNY8gW1NikkY98IOFYNYx7RZ6FWMN3Vtcar39trcJR/oFXGi41k1nbrpSDyI+JW6tN+o3r873IoTlj8HLdH/QepXtsjfRGEIHfqQu69otNYKa+8bx8g+Cb18b4TYra2n0jFtEYCjtcfkCid9V7+0G4SsQrTuIIvpGESf/iHxK3Vpv1Gdfne5FCcsfg5VUh/oPVdkYE4caG/eQODyDm3nXwmuvg3Zaa2mooPqa+ppx7x8qBhKAwX0ThKO3XPw+T6yt1ab9RnX53uPQnLH4OW6H+g9Xki2+F/cgReuyDWMK3nc6ru3Q7zr7fgmxG1tNdzxbYG+hvAoniVd1XPw+T6yt1Kc9RnX53uLQjvz/8A1coclNeFi21rakXhWpPFF0fqpPFF0fqpPFF0fqpPFF0fqpTFF0fqpTFF0VKYouj9VKYouipTFE0VK4omipXFE0VKjB4Qf6VKb4iaKlMUXRUpii6Kk8UXR+qk8UXR+qk8UXR+qk8UXR+qk/zdH6qUYb3hasVr9VI1YI2j9VI/naP1Uj+do/VSGKNo/VSGKNo/VSOKNo/VSP52j9VJw3WzTGB9X6qj7Xx2xweJo7VRmKY0B2qjMUfQHaqN/P0B2qjcUfQHaqN/6jQHaqNxR9D6qjsUfQHaqOxR9Adqo7FH0B2qj8UfRHaqPxRtEdqo/FG0fqpDFG0fqpDFG0fqpDFG0fqoNIzLIkG2tQy1NsKt9bo047/Kzr87EWhqCt21sMyQdFyluD6Spbg+kqW4PpKluD6Spbg+kqW4PpKluD6Spbg+kqW4PpKluD6Spbg+kqW4PpKluD6Spbg+kqW4PpKluD6Spbg+kqW4PpKluD6Spbg+kqW4PpKbTMOYMu1tvAtPEJNbg41Ej0AEniBUxBjta5sEQHx/AMjF5Aca71QN++PG9CiQXnwRgxYVp4TwhfV4oqtnXibwrANRPxUZlJS0hGYyG+YhmIHVkhrQL5NXGKl/g5hCahNaYrbYNtjbC8MI3sNXsUtwfSVLcH0lS3B9JUtwfSVLcH0lS3B9JUtwfSVLcH0lS3B9JUtwfSVLcH0lS3B9JUtwfSVLcH0lS3B9JUtwfSVLcH0lS3B9JUtwfSVLcH0lS3B9JTYNJ094NtTQyHz3/NrM7GaWmoNL2PQZaQZGe2BM+CiObEhgm1dbAkVkVKipiEDFmYLX74EJ6oz+mYhEck9SO9FhH3TlJ/3wtW5WM7J9GQJCmJiLBZAiiKx8s0tcDURvg4ytj3O9Mc7e4tj3O9Mc7e4tj7O1L87e4tj7O1L87e4tj/O1L87e4tj7OtL87e4tj7O1L87e4tj3O1L87e4tj3O1Mc7e4tjzO9Mc7e4tjzO9Mft7i2O870x+3uLY6zvTH7e4tjrPFM/t7i2Oc8Uz+3uLY5zzTP7e4tjjfpimf29xbG2/TVM/t7isRhR5VtE0jSUaG628M6KWi1wVVeKONWGxYDXvp6ba4i+3w0O9+1WFEX7IJse+h91WGwLbwVk09DtrxtZiGK7xH9uInnVjAvf7YUrevf8AGM7FYw51sbMKVJrDqzOMwjAcCsRigiJZTSLwcIdMsNeDi4hzBWHzTg6PZRPxXC8C+ZhuPSFYSMFkM2ffQ+6rDGw3OFkE2SBeHhofdVirqTiwqSpCkIcm2GSyJDc0kvrF78J3q1sb71M0z+3uLY4zzTP7e4tjnPFM/t7i2Oc8Uz+3uLY6zxTP7e4tjrO9Mc7e4tjvO9Mc7e4tjzO9Mc7e4tjzO1Mc7e4tj3O1Mc7e4tj7O1L87e4tj7OtL87e4tj/ADrS/O3uLY/zrS/O3uLY/wA7Uvzt7i2Ps7Uvzt7i2Pc7Uxzt7i2Pc70xzt7isW2LmTbaHmpiO6bcHPfNNLiKgLwqAxKU/vhatykjhiQh7p6o7+qNDHunqiILCRNQq8RgvVmVOzHgrGLHoNJC2qt/AxA0DjcSAE4saXCp1V8cfmDIjSx7Q5pvEEVgqw6nHOfNUHLQ4jsMSXBgu521KgolZkKYpOTxBxbFA56j0qclQTK2TujVYGukTWfaHqzOA8iA2HMN/utS1Wew8FFtf6H/AEWyAP8Akbz/AKwrP8xRNMLZAzFE0wrP8xRNMKz/ADFE0wrP8xRNMKz/ADFE0wrP8xRNMLZAzFE0wtkDMUTTCs/zFE0wrP8AMUTTC2QMxRNMLZAzFE0wrP8AMUTTCs/zFE0wtkDMUTTC2QMxRNMLZAzFE0wtkDMUTTC2QMxRNMLZAzE/TC2QMxRNMLZAzFE0wtkDMT9MLZAzFE0wtkDMUTTC2QMxRNMLZAzE/TC2QMxRNMLZAzE/TC2QMxP0wtkDMT9MLZAzG/TC2QMxP0wrP8xRNMLZAzG/TCs/zE/TC2QMxRNMKz/Mb9MLZAzG/TC2QMxv0wrP8xv0wrP8xv0wrP8AMb9MLZAzG/WBbIB/5G72xArPohqdRjIY44n0VmcdwEYwYAx1F1Sn5mozdkpg14Q2SJq9peqGZUZ6m6Sm8YYGwgfielWG0KWvg0LBjxG/1zRMY/urChwIYhwobYbGioNaKgPZ/wCBH//EADURAAICAQEEBwgCAgIDAAAAAAABAhEDBAUQEjETFSEwU2GRBiAyNEFRgcFScRQjQoCQ0eH/2gAIAQIBAT8A/wDA3ptD00OO6Hs2v+RLQNfUnp5xHKjHFT+p0HmdB5nQeZ0HmdD5nQ+Y8XmdGcBwHAcIsXmdD5nQeZ0PmdD5klTrv9lr/R+SUBxTJYrM2ljIcZYZ9ou3tK3UPcxrc2WJC92fxPv9lL/R+Rokq7dzimZ9MpqmQwygqfuMe6iRRQkL3cnxPv8AZCvT/ljiOJKDRQ0Sw3yMuCS7aGPdRRQ0UVvXuT+J9/sSF6b8seIlhY40OCZKDQkIz6ZNXHdRRQ91b/qL3MnxPv8AYPyv5e6ieNSJYGhwHCmKNkYmu03Ry448mUUSH7jI/cXuZPiff+zyT0nb93+iWOvclFS5ksdHBQkZMKnFxlyZkxPHJwlzW6Qy91DEhISKEjJ8T7/2d+U/L/Qh4k+Q8Ul9BoocbHEUSKNqaW49Kvpz/oZIZQkUURiKJwiiKBnVZGu/9nflPy/0IQik+Z0MHzRLSQfIyaKS5do8bXYxIljUo0zV4HgyvGxjQolFHCQgcAoCxmDTcXa+RrlWea7/ANm/lPy/1uTQhCFuy4YzXmPE4umQibe0XFjWePOPP+v/AJuSOFigxYhYhQojCyGIxaZydHQqKpG0lWqmvPv/AGc+U/L/AFvUmiOX7ip8hb8kOIUaJQUk4y5M12y3psnZ8L5f+iGkTP8ABFomLSH+NR0BDSkNMzFg4UPGbWVavIvPv/Zz5T8v9Fl74zcX2GPMp9n19xx+qKMmKOSPDIem4XTQsK+wtO/sPB90PBYtKQ05HCkcJ0dm2lWuyrz7/wBnppaWn93+hTTLLLLLMWqrsmJp9q3tWRiSwqSHjo4Sh4kxYWLEOAsLfM4KNu/P5f77/YPy35ZZxtcjp39RZos4iyzFnlj5cjHnjPkXuTISTHFMeNCxo4EKIoo4ThOBHtAq2jm/vv8AY+sw4tPwzkk7Z1jpv5oe0dN/NHWGn/mh6/T/AM0LaOCPKaI7U0z5zR1lpvER1lpvER1npvERi27p12TyIW2dF4q9Rba0Pir1FtvQ+KvUjt3Q/XKvU682f40fU682f40fU682f40fU682f40fU692f40fU692f40fU6+2f40fU6+2f40fU21mhm12XJjdpvsfeUUyiimUymUyimUyiiiiimUymUyimUyimUyimV3dlllllllllllllllllllllllllll/9EP/xAA6EQACAgEBBAcFBQcFAAAAAAAAAQIRAxIEBSExEBMwNEFRcRQiYYHhBiAjUqEVJDJCU7HBFjOAkPD/2gAIAQMBAT8A/wChvdu5VtmLrddca5fU/wBLr+p+n1H9mPLJ+n1JfZyUf5/0+otwr+p+n1N4bvnsjTfGL8TUajUajULiaRRFjs6n4nUfEez/ABPY/iex/E9i+Ji3LKSuUq+R+wl+f9PqbTh6nLLHd12/2e7r83/gUihxJ4lI2vZlmxywz8ScHCTjLmiiuiiETSaaERx+ZpSIxtlGk2XZlFa5c+nePeZ+vb/Z9/uvzf8AgsjLw6ZwUuZvrdeTX1+JWnzr+5RRQkRRRpsx4kuLKNJCFIo2fDrlx5CXTvHvM/Xt9xOtm+bFIUiM7L6KN77m638bAve8V5/X+44Si9MlTKFEjE0mKGqQ0URhZpFE2fHpj00bx7zP17fcsq2f5sUhSLFNojO+fQjeO7obVjfD3lyf/vA0tOn4EYiiaTFCkUaSEOAomPHboS+5vHvM/Xt90P8AA+bExSFITEyMrExG+9i6vKs8Vwlz9fqRiaSMfEjHgaTTxFGhRMca4/d3j3mfr2+63WH5kZ2JiYmJkWJikZccc+N458mTwyxTeOXNCiRh4CiaTHDjZRGIlXTXRvLvM/Xt92f7Pz6FkaI5YsjIUiMhSLFKjeuzLJFZ481z9CESMBRNIo0KJGP3KKN5d5n69vu1/g18SxsbNVchZpLxI7VNczHtsXwlwIzTVoshJP3ZcmSw9XkcCMBRFEoURIooooUTefep+vb7G/cFlkhZk+ZZZZZZg2iWN/AhkU1aHIy++1LxIwFA0mgUSumiujefep+vb7J/AX0KTXIWbzLvkWaizZs+h0+RqssxNSRpNJpHEa6EhRGNm8+9T9e32V+4WWWNim48iGZS4eJZZqMG017shSsx5HB2iM1JWWjUi0MSEhsbJSo3i72mb+Pb7PKompFjkNjY2Y89cJCZZZi2iWP0MeaORWjFmceDNdmo1CmKZrHNeJLaEuQ8l8zb3+8T9e3xP3SzUaxzLG+iGVxIZFLkWWRk4u0YdqUuEuDIyNRrNZrJZWTy+bJZ/I66T8TaneWT7eEkka0akakNlllllkNoa4SOtj5nXQ8zrYeZg29Q4SdoW34K/iR7dg/Oj27B+ZD2/F4SRLbcb/mHtOP8w9ox+Z7RDzM8lKba7e+iyyy/uWX0X030WWWWWX29FFFFFFFFFFFFFFFFFFFFFFFFf8Ev/9k=;clipPath=inset(33.33% 10% 15.33% 7%);" vertex="1" parent="1">
          <mxGeometry x="560" y="60" width="48.51" height="30" as="geometry" />
        </mxCell>
        <mxCell id="WnzjhXwsgpQ9HhIkCpvY-58" value="&lt;font style=&quot;font-size: 11px;&quot;&gt;Computer: 2020 MacBook Air M1/8GB RAM&amp;nbsp;&lt;/font&gt;" style="text;html=1;align=center;verticalAlign=middle;resizable=0;points=[];autosize=1;strokeColor=none;fillColor=none;fontSize=14;" vertex="1" parent="1">
          <mxGeometry x="320" y="60" width="240" height="30" as="geometry" />
        </mxCell>
        <mxCell id="WnzjhXwsgpQ9HhIkCpvY-59" value="&lt;font style=&quot;font-size: 11px;&quot;&gt;MacOS: Ventura 13.2.1&lt;/font&gt;" style="text;html=1;align=center;verticalAlign=middle;resizable=0;points=[];autosize=1;strokeColor=none;fillColor=none;fontSize=14;" vertex="1" parent="1">
          <mxGeometry x="390" y="90" width="140" height="30" as="geometry" />
        </mxCell>
        <mxCell id="WnzjhXwsgpQ9HhIkCpvY-60" value="" style="shape=image;verticalLabelPosition=bottom;labelBackgroundColor=default;verticalAlign=top;aspect=fixed;imageAspect=0;image=data:image/webp,UklGRi53AABXRUJQVlA4ICJ3AAAwnAKdASo4BDgEPpFIn0ylp6orIdD4oWASCWduUPzcL/bE1/78s6w5ev25I1/wdLHl9/2+fF//+cf/K3eTnm6h5Yi6CL2Vvs1yrL90u9X/K7oO1r/q+oZ/6fTncMbj/y/f6uI90b++/w/918oU6Pnv8j+43+H+MHhvzM9X+MP77802mH/x5X++/9v/N/m78zfRz+tP/P7g38X/sP/b/xHvm9MnmQ/av9z/e0/6Hqu/zn5P/AJ/dv8f///bz/6vsffvL7An8+/4frFf+j90Phl/s//U/dX2vv//7AH/29sv+AdPf6L/6PR39X/1/HP9q/q+cbjf+73Z/bj/A8dVEF9JUCeDn/56Jf4Gw3nx//rz2/yv/n4KgYQ+xNJHCiaSOFE0kcKJpI4UTSRwomkjhRNJHCiaSOFE0kcKJpI4UTSRwomkjhRNJHCiaSOFE0kcKJpI4UTSRwomkjhRNJHCiaSOFBpYG6NmnxIfYmkjhRNJHCiaSOFE0kcKJpI4UTSRwomZD5vjFVEdv3TxZaVOQ80fsmiY3lehpI4UTSRwomkjhRNJHCiaSOFEmHYO07ZibrK9DSRwokfmGEL7VTiRwomkjhRNJHCiaSOFE0kcKJmQ8AM0j94CVgM8fp3d9bXOZl76wwkmflmxAjdWFWMonIzSRwomkjhRNJHCiaSOFE0j3yJDLtgw+TxZPIsfqfg4+LbQ+iunV1i3kXgv1Z9bC+KZhVbvsSYymQfc0f2G+86aMK4l3AomkjhRNJHCiaSOFE0kb6nik501sVBP8D3Cf5QQ/oSkELXNX+uLoozVCSLxKaRjaivyErB8aDMk97Gn7E0kcKJpI4UTSRwomj0RrOviPs8TNoqK+wlAw/X5kgvP6YvPK6bOFVBEmh67XQNQwWrFEM4lIsdqhK3x5XoaSOFE0kcKJMTX8o+n5o5cP3/gpMVR3y7xepJDjnUOX4OdirR+MUpcTnc5l6R44voerzSuaOFE0kcKJpI4UTSPdGHvf41YOC7s/q0/iUB4+DqSRf5B/1JIcuL27KLYopIHIyOtE/IDSRTMjwiZJD7E0kcKJpI4UFxcqcvNmXhUV505tqp25FJ6xGaJjvWcQTisKerBQJXOXtv8L64vnIKzAd8UUbx/NkFcImyNUW1K5748r0NJHCiaR7SUdQ9glGHIn5WjeRxslf6tVTTLPjk34Y4T8yuNLR6Qq5JWkM9i370LGOHLsT7vETv8iN5Mf1SDp6epwffxM/37HrykPnWGM784BTW/isKtB2QMA2w9+E/UwQumjnQVKxPOp4r76pIfYmkjhRNHl1718q4i6yxXDLayeAwmv9ozfLnyFfdM2f1f50mGOYqjXeRmU2qqz4lSO21O5fZMIwBidMS2NUHngyoibbyB3nfUiil6NnQ0IKvo5C4JlNvnACXCiaSOFE0kZKUTGOzDNLp3JqHXjWusAar+qYOOApH+l20W3OfH4t4Z5UQPynWRIVcpiNpAou7b9gGkldDBq5PnsDAN7aHiJh0qaXHGpI9UopSijGVfgvWlb48r0NJG/3D43bApzk1xOwz+xj0fG4Eq/bb5CMKMk8jAUa+n3Zq3fQR2w5Qa5J7PiWKrGYnQ6lamvECk3/vSqWEgGUx1FtLSXfcZxHvBExI4UTNv+SmTrfYGsh41hLav0vHUdEapwdvCjW3cKzjC2B63UYMUIlQBnuAR5YebxbRr+cnaXU0ag3kDIrramZoGPGpIGp0WRmLwRMSOEcKOYAsdEttEZMXy6PGAYoFUy45Q9JTmxe7nFLFsP1yr/DXLisjGKgYQUKWl976aIRf7tN8wDf5k1YKaj5e1ruvAh5F9weZ76fVH2CA4UTSRwjl7QXZYOjnB2S794HGfutxMGfLpeuvBbcbiZVH3356EX5/0D/kreI5xqDQbXmtFN2D26EqBdLcV8VhoOrpxFfFFd0Rx9c2scKJpHuw3jclbtDyGrqxNgbXfie7k1Ct9XvlB36d1GuOd9qgYGewCjVu1FUOV/w6zQEcsSLL9U93lIfCntqejuGY43YOEDm0yfanpOz+xrSZ6JfUKJpIyasFqSLr8857VEF6DLm7wJv9GnKSA7ycxPJEAeG4OsQfvQDWWe5q2M1Tg3/Y7nNyFL/n+GbQqq+K6t0w+nd5AiYkZLsfhOLJSFa/l85KMc1BCVvKVEDepK87uzqesGBWX6crVi7qYvjtw7ZTc1JOup5XGI6xT421j+cQJbXIcW+9RDiEI4UTR9pipRJCzistRi1Bj49AhTlm7wHTerJ1PnY/akHoGcc1KwjfYm727ssSAv2mVS88WY9ES89xo0TX1BhpHnocQy/p+xNI4OVCdwBHRrcWilKwfRS9n/7XEeeE1CpsV2F42AXf9tGpKv++yXZU/DWy1okftmRMmC598F4EgqVw7N94Y1dR3QYJQ4h0SW+PGhthiirqBS2cdOIW58JLHLlpSIg4fvsbXYw9BHLzsqtR+Z65vJ8OYo6QgzhAeatJzq0yX9fKjP+B3c9slGtpeEjwVAtpQOefB60rej1Wxkpmdm5GaQVIclOxRWrju6Io9o+KVqHE5bVsZqvxn6Z36zUWZfvzF1CK1+TktvO1W4zcm2zY6CXbbTSHo14ePExctiKYlehoFB2/FvrFZMmgkk6KntPcqC5NAfrSKwxonZNjvqekngOGTaTISx2SvI1ZMY0MgbSvJ7g3xw5ze+G+aO1zgfpSOdS3kFEi/4O5EgooLf1qD9Ws6pWL41ybvX+5xsDUXeT3gcKB7FK45wJ3EwBj5Pmkjk1cp05xuGXys0mydR8DQWlOSLGHy9zH3mqUeYU+no4nt5uvQmVv/8zrYu+n8SjR9GKgExdmscX7qIbu79+H6Gob7FsV3ha9GHOrBr4ng13S/OrV/wqqq8/MTRzlQDPN3ERn+TPlWkJcRj9djHf1pNxxrA6acgsdOJnvxWF4sEESYn+I02Xb/yxgTTtOAVDXYiEMOgx5xMCqzcyevJnM9yN89iZypqn+SoTBMUMOUvcE7/BGPqsalFmBTlPwzVm9PmxBTbi70AR2exJutTQ3uTMVqFHsiIlMYxPJc7vh2pPc/pATVv2blJ+zho1kP7JBOW2hnVVrnEMgRjgUSrl6XvxlpdLHJDVR28fq7n1g8E+HK6thpjHyVpz1LdjIsMX/tWHTMTi0EwGosN8DzLCjp8tsHAjWI9qaljarhrVAWnrBSioTbZw/7mXFybSKlvOPeH7qA25VXVy69nuYg3jqSq2jASs6/2suMxOg0SVcyeHtbLc1KKoFnoxLlLL32MjBFOcufSioDqF/tdO+OzcjPJ02qXANJjUVLK7wmsB7QcVdCZculb8zBxBo0HsnYxhP2DQa4t+reOxt6wWEO0d2ZQkWqvXL6u/caGCRy5PJOnIRwZl6OP9Q4IKBNkqeAZIp/HVzJIw29SSHHGh0iSj2cPdEnXlylKDrVnWcPvAddSiSCkVhp7Fwb8TEtAJStBbopv5S97P5cbiux9Q2IwnNHNE/SWoQ7zboIiAm+B97zqYy4WiSDFHFXvrcOqT70iQlh0a0WJ9UAnjofvZ4eUI4kg78W/pmjGByfXgjCLwk2YUgogbM48xgKRA6c5KMumafjWrXfcNbQLl/ysTKMXN7HcSTmMYjO4cyfTnzvhG2sRaDqT/ZrQh+MuaGPfn2W/yFXodbAzi9gnLyct825xFcjdZ8NDgbpOohiH1HC4OpnKiwH6+YmtiuRKva1YoJI0PoiBlzDr/Cqah7i9emIrixv9rd/pWZlQ/cQbuR76Lq0JHDPo7Pnvap9jY/kfsBZTS7HCmgxWeK8/oGTzFuFjJ9HlsAxYryqeA1rkePxCGKEqROpTkKPVwXpSA3zUawqSqqcUMUKyOQ6EsVGT20t+dvLFYfDBVjtE7MCTJF4WjEdZfoeTgrF0LpWbTHjDl0yxy4IsU4xQQ05z7OF0qEPDb0TGiQBpfT8YSFF8oabfmU2Vqy1qWkjPS4TaXMlXsVozGZZaWHPYv40v0rJW2xLMVFyPou1CbVGMqtcbNsqvrLBDcnFYssnN46eF7YaRJYht50tQt4p0dJ/D7JhWATtYW/W/NdkUZrTT0OcykyUrXzLnAm4yRCGSi6zIRDVuHWi6kEfAfKmG6U21C3kNqxL+0864KapPtg1CWkURiKjmdjZn/NcReti+kCz4eVElAsybntrbdZ1tJGU7InqIHhqXv1f3YYWrqYMXHx4absj2476oFzOrIU2WC1wUIbT5SRX0zHGH3q5HJytAKEIRMUDL8+0Opplodr2hxprTpKPbFCnwn7gHAnrg24UnRcRsgjVTPRScXmY+5u3ZvmZ/mmOiqRviyOh7FPOjWpWHsRysXjDdDWpoG8XB8UIwWCZG0FMN0n4eMzbHclGXOorGGyWikRv8T1yRqp4a3SJwRS/U8YvPcoes/XH/rgZ8VGsKpBYshXh0OJQesRyZRSPEXTkXjJugzJ1RzMNMIzdAPFCn7h+dVXkDORW64IlyrgSUiu994vUUOxSbCb+SrrKCY8DN1Lxkqt1icM2ToIHAXnUGyOAAR1s5GLCIXFV+5N8ddtfYAQKKuevUf9mSE+qgb5/2ZBxoNu2BF9EV7SmjIGuuEK9gpvN5XV3F5qk6RPchVwbTzT+8Vj6N4LfFydT1t7XdWfDAYONg6554GUcy+qR/3OHo+EUadLIDLmkk8mW1Ya212EG6+H9p4GuonG6WB3cCpg6yHTSlJy5YY5VDJtYtN9XF4Il716mHF8SyDVowAJdo0QWyABba3dxBVIsexuxnTuU6aEzz04Wy0WxeoXIR/MG1GwSPRbde6bIVtiZteiLeHyhS80+GCrHahOzx7NwuLdAvXnPEjWRjcKHBD7EzLURh5MJO/evias8Esu0GRBQrHlqdVQU/bl8scUGaD3S5tFqLKX3QbyCTxmomCJ2fcQRQ+nANq3gyH/WelRS/5ubaIfBmjOhaXx9i5k/JKjWcuT6YpGswO7k/oETEjhJS0Oqb9P/SsHw3S9tBaAmN6sW0E2f9qrz3m6OVwcJad8zstA9qxsslswhg8WcdWi86qcrYNKbOMimGgF+fa7lgQtBRqmGhyqVHIGdmfT3ZcSsH6y8hxvhGv4qh1jfedbCFyGkjhQWqJ9khCkbZRvd0Pn1yjqgKW8qpnGACnKlJZB+gPN1tCvOLqOUEK7dD4JxJuNCfnw6WlMjIQ9+T1NZRJBKoSEnuJN8n6RhhfXnT7upgq2XETUZN5DGNN0hML2JHCiaSI4xosek4fi3B/FkIjrjSM7ochF3FnAty5fllgj4I5NvlPDi/5wRLCw+udrE1nuJEhDF+o9RBoVNQ2Vtdj/1Zlvoiy1gKtmguvhxOCQ4kfs8qDNm61FaqU4fHleho6arckIUYajPQhJmdt3exHjmhRaqEtx04MetLOXAaCAOhTnlc/iEss6K9qmRxp9OcTeGnFfZQyXKeNNXIot8jhIf6xQhRm1hk7xMHMyfhV9UgB/RaAk5iCEvBExI4UFq2Nu6W2Uf6ZGORMgv6ecx20phTpzUFoaSJSY6gCBlng3XXMRDs9n2JiHfI0Ksk/am8G2PoqbrZe/xs+RftGTUJiIUd+/BwsbbTPofqX61HEkldJHCiaSOAt4TB8XqC9+WShw5RISHfjT4f9Nz0o212MsBqCrT0yo+8oSUYoWaCbRSqon3O7PihcwXGDO1m1BrO7CzCe1iEqmWquO69GAKrLHipWeFcCiaSOFE0j3EbIHp4qeiT8pAeSjyZgui9mpBIsh6Uq1I6qByXhSeFADYHA/Dnugc1RhM+/GUb5y6W0l5NXRV57HyyIOXgu25VtzuxisFE7Pd1AWhb1pSeg3dpHlehpI4UTSBTyoj8ESZ6LKAp3Mj3N6cJUDguBtJhDfTyN+wo6wgaVKLvbUPmtsN9Xpy8A5LMCKJ0zYKmPmsmaQARCT/Jv6iuNr7/odSZ5OQNNiV5I+lhza+hyQ+xNJHCiaOoU7cHYyb/MhmO3MD6o6zSosVYW6gYMjLwnw9RfKsW9EGj3J7WwosVFfTki1Nl9/U3dEh34EQZrFMOflkjkhlFgofV0y9eIrijI0do+PK9DSRwomke5vNQ7mraK1SA2cU7yWlOAO5OIrZwOIJjaKEhXLj76aLk/4D7DZzAl8+ikCrVr5QlYBSSIwcEik7ghbvFK4LppRWGMSIFpVd8oXZmJ7BzeV6GkjhRNJHCi/aosoZbn80HmjHXMXQqhxhjpaQt1uBb/Xv3qLLAuGjR2NMlBtSb/l5jFGuW815GGDos3f/90QAUchF//+cRRP/+dPRaq/K6I7V1jUxbjCJnHSFaVcjKt8eV6GkjhRNJHCgu9Q+rF3D4ssP6/PJXJhZsDUo/8YnuIc0KV6aofDyKG00+fGZbEh+ebOTMi6C0BLJGef0QMyVt/8tff//HGnjETRyfKYn+ZSUTtJ1WMxI4UTSRwomkjhRNJGdeLu2GHjKhxsb4Np0cCxOlSAwq/e6L2pdv9aKhLP18uiS+oznMVEDEpu4eDomVWUC9XNzUBr8P/PYT/kMq4WMvVKLH5+ePHzO8m/5zPpahRNJHCiaSOFE0kcKJmS35xNkB7XncILj1WQNn7XQTlhfSZvC0BZrDEShINxAWbVh9M4eOaFmCMu8ntsNSG1auFi7vl9/stXREea2q30HzvqrUvZY4p0ev2Gut1E5sBq94DiPiy5jdmglcEeqMXgsEPsTSRwomkjhRNJHCiZlqppVERGz2LpPcrcSdJ5QkJdfzmSdZAR9XuV6JFycqLuTWkyS+wN7EDIETEjhRNJHCiaSOFE0kcKJqKmBg34H63nxBwvpS087gRkhXfpGbYL3KMNILVmlzryaQk9o1ggLU83uzngo6niIheTAlzvoDzeCJiRwomkjhRNJHCiaSOFE0kcPq92F622ITu0rkbrH/hszWH2ee4iQ3ntCxc2m6sKj2EcrYApU4w9w/C5NGLUgxqQdEfRbMSOFE0kcKJpI4UTSRwomkjhRNJHCplUVxDsfEwsSbziEP+i3ggK02A0XPd7vLvnqass/DiErfHlehpI4UTSRwomkjhRNJHCiaSOFE0kdXOaTnPGaSOFE0kcKJpI4UTSRwomkjhRNJHCiaSOFE0kcKJpI4UTSRwomkjhRNJHCIAD+9mdAAAAAAAAAAAAAAAAAAAAAAAAAAAAAAAAAAAAAAAAAAAAAAAAABxQc23AYHNuGYoKeAunlmUs5/1sPpYTV1i48BMAAAAAAAAAAAAAAAAcz3IDkVWBrLTPNOI/97gHEiZed9+kwwHY9cI40zinCRUrwSQWmXlQT/QcQQ2njLSVsNwjxDS4kISoWZFRsiK3AhL0xjvigGaIw0snMIv2N7jm2l+FncIbF5eRHhtcpTXXHiFhsAAAAAAAAAAAAABWkInmOtPkHi8uxBILIv1Jv9imSpkvwAAAAAAMPldF2WrvrvJzAdjfvPBQboeVmAAAAAAAAAAAABckqcTw0Szw4Da457IPVFH43iqvGxvTVAAAUyKBZCzQwY6pps10NpufmMVYsDegdSTFF5L7Q5RPrHjOI/EhvCzUmPgTZvhk7MT2vDAZ0jXx5sr8AyGEa631cy4ryNfDzYDFAY4kVccxb/Xa6UN67hBOK2S/dJ8yii1FgAAEyF5CHiUG18s9h/HYAAAAAAAAAAAYrwcI4a+PgWVI22xNu+ZcmgnXShIIANENN23G4eAqp2G7Lw/Azhet+Dw8RmEVQyWWrdDRXb5Y3cJQvpZISI5rUZzMBfYWky14EA65jXFogUuDzynymRJwcDQ+b1sZBM21X2U8SwWJxzAiWxDXJt3kksib1/hIPMHiL2AzB7zqZFuh0LxNaWBicMbjt4fy7i5q6JCQgynRHxqa11aSbwB5Jb0OQD4zaFMmeMMV6pNkDHZhQzW7fW5fZoESp/Oy+qa2bIPBKH3vHe+mRWgE2GmtaNsFJZLBXb/kn033pxKek9DPmSjBwrVTiDEyWYR+g3p/9P823QP1OIwjyVTguX19NgZNbAqzhSm3rYLONqDKRcTwTi4FLINIUsWoOLbAKbtso0kf0RdQAAAAAAAAAAUcS6wamkiZq0jsM3paFip2kDdx8gttsgZZvo8+sTd6JYzT93NdXXOKPXJgu2AYcWOAts2u7jswlSOY8M8jVJbA5/uG9HEupVm4vIacF3EVaXWoLKJHDG2J2wcXlWVSrqXV4BSMgovRNYz7axj7t3cEDVIPkHYPeHCtvsG/z3HeKp3FmUOaiSKrrmlMOd3BuC0LPbDi8o0BpdIEn/hXdPA5B4RRyqK2xqkRR+Iyb7PNZeyhHpWpQ3g/F7Gb5mNtCGqhl3mamxPHgkAAAAAAAAAb84lw6Ml8S9Yr3A0G4efNDevUApRTjOGshhhrA01Pfpy8Jz+9fOnRaHc/sgnYkuGig+5VqHLog007Y3YwvG7ErSfTZBO0BZE6gb0oSTholE/b1pAAAAAAt8czNKnmz73LaI+5mdX57VYKVVK/Nu7tJjtSFLMPuTCL5u0seit11alLq8tj1gwsgpwU9AOFnyufWmtHe0QRKy6BRLSj0iufPpV8b1eYUlRC6clCHpRBWZfvuNQUzk53AAAAAAAAAexi6KRw1jZE3Aj60a0M0kuaESQoyXpyOXonGeUHVBFGq9BVxbpI+pvYe6P1H4Fzuy+5Q38GzmkUO9wQoHsa8sprv+R0KSSt/RgpLVC0LROPPPDZksGcsdd6Y6s5yublx4GnspKlGhnINSd0RAS7KidKhjApTz4FA89RsLV4/R3T9F9amsYwZqPyjWFDoplAXluuHIo1laXotGZaJuB7GWHWpj6NZK+zHqV5Q+dl6I9fwfd98zcHToBkvUzKSEm1IAAAAAAAE+Ei99aGkSzXqWlwLsmD3wQCoXssz3v5uRiLRdXawubBPHvF4/0K0s30m/QunPc2wWR3WlMG88uyF043qTfu9akG6+xuoQtGQdEY2iBY/D7/+fhOXNhdqAyoQfhmHF+rNHI/PSPGtaG/E5BvE4pc+w/zyLbmYGbdOSkNmYOW7Y7o4LjU1S6H5935wXOn0ixXTwgFwzup2Ip8IHky1kqz7aksAz2E0H3XZkNO71xreZsWci1FNVdQVhbP03CwT5Pvs/7ownNeCDunTJ4m9pOkJC4FGPOWxNylFNetGs8v1u2G4J5HGPr2E6SOQKgfvaMCfbwSJy5lvECkVAAAAAAAFscQOWWMBqsNb80fZOroFJMx1W6ComdnmbOErfhogEsCkWhWMy225mkCf7Qp4s7wgRLvCQxuUJr5UNmcrPeJ5xNd82vpTQoAAAABbvnAEorJNdNaqPYvcCDsaKsSvHBDqYRaVkob9HZZvmd6g9Trnep7THiczHpGUA+B3eQfOBEtvup/RUrh1HuEaDU3JAtXWe5HzQige7TpGOEzpyA4V5W7kdIvkMVBLJZpiLoKRfxCbJyyZro7h/xOvFwC6WsySnnUghH0rB82JwbjEF+t18v6omcItk056yzp8OgjoBcyapOf8xzwBKpHH7NCCpLF20qLM6csZG9UW+RY8GbzHqHSAAAAAAZkUvcOA9Auj5bAcskAVlQdzvGIJTPRbnUVfZDtu2YlhbLETRv/jWTTQ+LzIuzQhpcomHa29eFcxL4LowhbzUYuQzW0JAZykASC9J6cBOpt2cNyiBZtjf4FQNp3GP3pnPcTFBp0iQ35WDztmfhl6dqrAHvJ74kIG1sDxuxPsOfW1yZv+BSiGZP7+3ipsqAufvweXSCo5XcIVty/+ifN8YVqrzR2/naqyXJj554dVJG3wRGmicDqewSfwsLsfsoNKPxE2KDtqT/wxHsffWvVO8MNI4NHFS0kJRnMWp8ovkFyNfjavQ7iU81WkDKnJjTAPcGe2rLExMK/N5mYuLSTRtPCtMEL8Zgq3VUfMFhjf9tnqgyKP7HgqyDqM77JSAKx5KFqRpJXyJVH6vGvGMnjQFwQ092ilygAzBnouBwx0gpyxpPcUDCjsE5LGnEc9pBn4Q/MQ6xZRbazrasIoa6V7SnysFR7GfveEBMJc2B1ofxuxGa9i8c026QlQNFQWNEzJPmm99augfc2TZOQgqCZbVjHhpm2kepyk6Fk8MX5zhsmVXfLnF0TjKUuXwHk4OkzsqcPFds8Qr6mpzT0PuaZtQ7ItdTsYiwA7SebeWbBq+Z7Snx32VN1mxyGCd7SXA6hZCfRbPBL2tw49x99BZjxJndySYGHr7RmyvYXr0n9OPNUSXdJG/JvN+aZWvF6Y5rhhy2y7sBnG0iSXcF3LMero+yv01OorrvVljmeuqnsMrVVJMVX885agURQmU1msFODqWJzMoefcitXG7m/AAk0AAAAAC7MFE52uLL8r7Kha/3LGwwEbdwC8Jy2+N5D4s0JIMsoojQGUNwK0exS+jRAE1H0pxAgo4ABYxn38stuxnCjxk5OB3MO1JKCwlgFqTcLzKjCFproJyJP14T2Y1xx3Iv6Hq9QhT9RQ7uI4t5m1s8z7d1QJgVejXJj0kW7VnweG7uhTvdwA8Z+D4Po+W6aQFPH02yC2FZgx6wPPxGek+H3Oac1kmz0lp51XdZqhwPNAXYDN+kwk5VbLrchL0n8lpDD4ilofEXQkeny82ZoBrwKGWSiS/o7A0EmdxepoeQvIpdkoeCnIMuZV3CzNwgTWhmyL+5XIXektChpctCZAsmzBDte13L2qFHR3MDDAAewxY7ig7YH9H7oekk7LhbHWCWShzS/IF3Wdmmq3ImYuexFF4oYjSEIcdVsPzGgzTmeJtOWvY/DLs3rH1YJHr4HBGAWZ6v6foWOzdAFnEtLPAAvkRPXMOENWqaNnpn3k6zv6+tvUXamHDQcF0cpRExnD21tCHdHcCEcCUipHreVn+vXYEhAOS1CZO0yA/kwLp5qpcZ/o/OsWRlqMqmoKarFZvOxmVy3vJ1slsbRa0/Pgt2q5Dn4p3bnDPokAxtmZYC91wCjQAkuZGv9sQied/BwSBs1dnlZoDuTj+H7T7TNDi4ZV/XdsVck+lqyOOtxVco1awHELJ0Q0jnb6fIPLbl4xDOLBbr+MTPh4HBe5n+d9H3ECYYxI7k/thJ6G2MKuaJHszgj8hOMx30+fqz/ILhls9PltDh/Zwagq+aKj7oRkolOwP71lydVVucek3oSdMuI3QftNgvLx5hOIqhxCg6xQ42xnyrLKiSiOX0KQsoYEGIhLlnZ0pgjlX4YAAAABWVPgzD/2n+vm/Jc8RhGH61duPhoM4CVxx9nR2Z0gLta9JlNB6ecRZwscHAM10G9s+jO+I3cVnY4jMJo7SZS4dt1vn5tvGC2DhNOgnabMAW+5tRJVm/QIPYqGLWw3Id3lkwBZMGZfx2dxoP0FMRoQzb/iYyK/L2+InJVvryujAr8dvZfjUGA9XqHzOJLeFCuAqyEDXq+dBXjbpbP6vpw38hHQQI3ojCITvDqJHbmMx8UcDVW6vwZhaPEq1YvUSaYJURqFF9Fnv+G44i1tdXwtAOmWbukMozlEbvCKNGcrSF0PV1CB30Gy4e4otyFcu+wTo/MzfSQ37pFtpwllRsyQMSFkePe/+Pv9GYni+GqHVbRnJ9jkyW9czR7zH3JQnQwfClKNiFYIyb6nmAvK/PZLjTerYWSlxBQnCCmVwxkLdmFI963uZ+OOc9zVab1doaChj9E/KNImxTIM9utkR+Ex9hG9CMR7S+6rONKsfAHp4G1iQBKMkMiy82opy8aXj5eTExmwV0Tzrrr77lJf5xRrGRCT1wlEZ17MF/NIio+tRLgRssHN/CRbPGowlnsmQpjq+N2mQJ9iA/WEC5PatolXZvTgKbIYlSOwCxP0Yvs/TOVqEui7tD5Rji8K4WtVITOmNFPzxftH+sbhz4BJNI8LO9a4Pgnjp4MIGgv7ktLIf0c4V4QrABaSLrX+4+7bzvE5XUNIJ0jXfFurLtRo2iCs4cuohOReNFAwIN7hDcAAAAFbcGL6Jt30a0IyAIfwPSQPZL8+XGbJb4L/QclIiDh48Hs/7tX6mPNje1XY6iUTUQ7vdAZWQACmITGSFUG/DKw8SJpsP/CLrxQ1Z2tUBbLalvJG9r9I0StEzNLKRxDzNgZNdB+f+N872Zlrag5wQ0OmerfIUFDGI3c2KoudXkLp1TeveH5frc8XWra+x9Rg7DK7f4V4LM0tyTNpojV3KGoriyzQu4iMFlRj+6gqLs5XF6SPWeqdv79xk3Ogwyr0hLsjX6sMMTAiSLWV9PS2Zv86zkOacLtFRD2qxl+9vBZJ0t7nBa1L/ol4QYng7lc+lerDc/N7ZtfMhje49yznu054TiclJ0FWXLnYImrcJIDpT+9rjARdFGYOra40UJU3WjAZUSQV5gG6LY2zpoa0fjkLbVaJmVcnHoVlsjx8VxP8qUYSDU00s60bNlLaE9Vr33JNBR179xDieTFuw6kqXUEsY8ppMJrwzgLS64Z/TaO0e5jQG4lhKgPJz99S827vcT8Ik2heblqa3sXluC6BluZhroVd04v48FHlklafB5niJfgNQQvlpETtGQFOvIyfmAJ8zYlZ40J4RCu/ClVfAMYspSx57MzH2RoEWEBCiPEAYkTvkBtLbh/LNP1CFCJhg7jxccF6Rt6SD06btIaj9+r32c2mWaMaswEerkTQTDT24BL5HqJt9oAAAFMb0ieYx6oqZ89cwkSnET2OunaDHaN4WnSSNOTCDLKu7e/gTf6s+4UqBmYhMNp+GJcgH4tpVgrGEAB8IpRu1Y3t7zF5R853+hRKjHsK2wHOsNfcAII71ebK/Y/2zojl6ETxhpk0I2rNef9SOA9F1BWd9Jo5v/rivjgPQ9S3+C5LyXirfHIiVr/GjSpKa9oUCiTyDbGWbTwrTvsG6vBLoT14uzIl3B98WrL87LI8AxHlMOx2SGukLHppUAW7rQkhi7jo6HLPXz/5aLE8bFPWrneN0MQCoxfVVBkbaCAYUvAEzQu4rUrTYk/F0XEhXmlBaXIYcoUB4S8bjr5MC7XnWxfD0nK4Wc7lVgMcuS+XIvUvnUYhZdoPLTBfUn/bFmsfVebAIFvyknJL4ofmqCFuTdLiO/tciQBdFtSMDW5JpeV3I5iS1b9SGe85ahUNbPs29yQRXQSDl2cGL9bs4flMuaRhR0uuk0WofpPU+S1xuzbzes0S4daJiK42v1ek2LkvGJUMcnEPf2faV5nHL9i9iM1nmw2SzvnloBfEJuAo5lDzaMrTFBlYRWUp4sIXOL7qk8LvmQ2sYkbyZB9hVr0M/ghyxZAqptuxWWVXZcDKrz8n9o3XKtOlLoSW24/GMs8Ja5CLpyVC5QQIgtWxJJRdrp9eFlcSsNzuAATZoeQ4q9b3dEHpjsiBlGj0Z/qpiHdWJlk1BtL1sHApAPijF/F4Vu8DVyPzxDfxTqsU+v7u7ddekhR5r9HOeoFergAAAAu4YD/MdZ1CyUb3Mcndx8x9Mwmdnkeo0CcyldS+OqQbMIzTsnq4xtkI/NET1KJDxJ8Y/MDTknXQBapLBWUd9Ev/YGSFTs/rvUgxxu/nAGTt8T1LigKgodd1QDB6R5X/2KRRVNqDNdbrs4Dxbwd9nHCoGMAGLIDV1EZCJlTpn9pfaSX1FfHCQfi+FI9h6kmxZlcbdGQLKyjhYv6lcqUFxREsY4y5Nrthgi/cedJOTgABCUWaOp6dskCIo25O+kqsI1D60vUuYx6nqSibU1jQQ8zp24bdzKaPIxNBE1OF6RONAUTzdHfEXnaJEzg8GVlKutnPPBkclxxnEyrb5k/uh8R9qnzYB6fC3ZBzSSyv7Th5RVxT6DrudJxLXv7JBGkk1lpT6Tu1Yenc/XI8ZM5jHRbIeUjtQg1Rh+WVEY1r4nsEotyn8evPgkdCwhNDEnGJMwdHewAFHlXwaLNGpNFynQNzYJkbgsd6SECG+FjIkoayRGIQwDeAaA2AP83R5jpsi+xQrBuJwBD8NngbBjQO09EYsGFUA+a8kIi9/xwXP76wsV0fXQ/l+/GIQCz8Q1D3JuwitjOMRYhRSxaWLYidT0B8G0Y3Jbyjzge1NLM9+mDsarbMw0Y3ducB5dPMl6n2JrN6qay3lcfyt+FQLqakKK160Md8iOuUPIyYhJafvJJt7KgeQr4rFN8Pr+3fAS+RPjKI/CTUMOF/e7DWjkcRKTWbmKrG4ZAAAQ0Phe/eLUnjAK9B7lz2ZwleTxVVlFvmLSLNrVWTrO8zyTKAg5d1upvolcDixfabZym0htUrH4bfdNo1Ge9ut2yen30RWZBuJf60O9Z6Zu9cczGEhx9IH+DwBYSnZoEMXPl56wVyMt79ie68OkWj+Q9Ay0n4hdswV0wX8lEKKXgcLUb1BMBKOssYmqkO2Dhga8UNw9vx+jBhqqe3pIosoG2Jk3IvHMdzsVWEFyatRM5ImRQcrr6BkRlvxAgJu20Td0PiiWULG2x5R+4eZPMC01FG5K4ZudYpiWXe2niq4UR0nHrIdRdWLbvZ0SQiYACHXSDtqchrcysr+ihKpfF9cONmfVN/I6vWpvMeT7bsXYcjUOaCuF6HGLJ4jwXjYOaRCakrEY95dJ/VNBSBxBJ6Ry51uYHwihmMV5SXvhuYqBcu7bdgauIJAuqgELLcgL78k1SawUakWtnkxMyA+bANHlpckF0W18zNvzAlrmitOHdHkXv+JY6mdN/3Es/ZtHeCXZ/x6LVP9vpQZ0E9+Iln/He8pD9cb7xSngGXFWRzth/oOmg607biSx1Tv4eukxe3tpJgG85VrTOGVFVqhuIWqMnnHmJo1w8NIu7mv0biixHF+19gW85y0GsMT6lnPr35El9dtCSLvkjtUhiLNWsWt6DJ1nK83eos4Hepuui9Rd5cYSnxXgbt4HpLiIPvUA9TbGIHkkk0GcQR0PZwyKpRCuRgyXqGlOd2aA7VCZYXlP2JTyCphCcW/Co5RHXTWv9eReq/jmnbXTJ7q9GVutJuTIJ7tUomFkL2ZKAAACsz2cDZhTpr7Q98dI1pvzqkL9CKSd3yYJxxwsnIHWocrZ00Ir0mrRHie4/c0ErsR8O7KxtZFI85mCcydZ9lsZA76exwGyCJUy/cMXyFsABud1UrzOfYm8IhhHAW3SOq78JrszgMTOonSD4CCmi7IVWK3fCjJC0XhMx7Fxy1HrzOkXkiK3MzKvc7sY9Z5pyohzjMmZ2U302rJK82TPdpM6erz0t5xCwjZ6EeySbhU4CifF/hPfYMlduZua5cRYA7oCLxMn5tNBVUU7koLKdEKWfkBf3SjgDCZktw38ps9jkqSqYmeDSa6Tibob/hFgTCJh4fasXppAtFrOKhryzvaSdccP0kjp6diZJFy5XeMSeHR4bJMWHZwzz0yXfeaVHb3bGmboeiQpytF8FdIVSMmEDe0On8n3gaVfXE2mfssEMU0soJsMCRKLThamm58TEEYyt12aYjNmWNn6fAekTcbhiWbWCfA3Swq15rD+0QBFpmgVedSTvRGgUsmzuuwxxpt0pRsoq8ujdErgn8Iri39xpw+tpbqz05u+aDKFkCzGKW6Ff4GED1CU9Bxhv67548hDZR9ppxEdSex6Vt9QmDwLykejnBx2tQhfcUKOOFE4ymiTWtpHLNI4PVOUvJvvHdol+AW+jqDL2CPd8DUAcD+WoFqdc6vl9ONCsbwCMkl0WAAAZ6eBhVxNyGlJ3pobQvczTjUl4hIN1KEgRv6gmjq9zXLovgx0dMR6zqQSVMffQDESG82lC9XOW4nuLjjp5Q1rWTB7JPlxcF7yPZBEAdhEhCNKPqbo1lyDwqsDl80umNuSd/4Bm/h9m6pu2emdqzxCbMHIHi4GxIvpHinqOeDrTONyV0WHo8BpQa1Dz72WtAn1FMNK5LOfmKK4TEuHCSFfjx7iLsaS+qGQmcGhwPkQMuQDDDy5kkCnD309Ms4BfWPDA2iz39xqBfGFUtrIcyUoDQ+JxZxY/7y8dtZKW1HaEuFV4sT6G2YIAuapeebYtJrdNMWfFw2mCIO1Milt39QUdMdoRqgRfMyJRWkfzw/XBatPahjIJ+5DOFG0+jQMM8/mdfDM/cZjNWBUhfIG5Jv6FzYcU6y9yOeEt1Qhnn4ECvTDRFgm//Ivs8SOn0DztIcYserQodQukMysTeTsTL8aBVaUk5fqr+G1J+b11webnJLF8dO6jF2VZpcEA+dyfUVaXxQYbvv3DJQaLXmBMYswFTmWzxhtsO4tIh3IoX6B3rFBOxWTwsUZvTbbYUMv2+ngAAgJRYFBX3ImWMQhyuNm9GHyXPsqDrEMIQhhS9xmZdREMm1c3eASV02s9QssBJdxcf6orpyspmteE/qDUIpwZKEMO35KKgKXVJkOvxP92GU/kDD/jyysJ317T1ATw4zMy+pf55sbWe+iYZLvGBprkLhURIP/DgxIWdu+wCgXeEV+dC4zxOcwXFZDJLXP4MLGmqTMI6jr1IbQqKHpoQQUw3j76gOmicoKOAUJh5ero4BoP6fdYg4QFQEtPHzjag/x1pcKwxodmSz2j30sE4hcnUADhifuR0zjl4hxYcsBK6tglGLyNZkGWm9XMlpyovb4AAOo8/ShoqZh6C9j6dOvYahYIWYB24MS0dfk/nhtwUZ1dkv5CDMES3smuWQyRJxgAxmKYV5HsK1FTRoaTHNz5Z4ydOu33HghXM4HLkwwW0GzCpsg0aadZJtnYMkiUlL3ZTvzdDR1ew517/gxK0OIJ231ilulA7OHAbi3KjIKx8nvEapXDRNr+bt2MXG29E0SKBUUaUlgLFfKBGlkyVIXa1pRsSXGSubgOonFOHuOtojdLtjfXAZCdfRnpdYe+VCzL0lfxOzKjs2ABAAF7TTj2PL2Fchjz5Nq1hmbBNV/3ocF5H8HQqroh5JDgBfSHZCdnXynJ0d72AxhjllIfj8yHSeTceEv7cVwiHYUoQqaL8zamU2uMPMRUJZs6xU+ZjN9dkUrlziXig4yhfQpj0lfYRluxEGW1tUrVFidVKjzUlxPseimI3ACgo5DXDE4kTIEmYe9aMViWqIXmIPooSMc0YYBMDZ/qsdzILcbKznlYRhlR4OfzQSB3eRKrd1zOYVW234yc4W/dfNuZ3L+tBsKrt3Qzz4oj7FB+mikBbbJ1vEUhyxJkwE3/cIHYU1s2+uwUhHc5ts2rXNXESWpEMhBNVB7zsreENsROArdyPaWX13bbpNFyYqI2bcX+WQ/1ON6R1rk6yJQY2LQTawoht7QX9KitR/vk8AcGKgS5E5YG8nqh5teuE+ej7i5rnp9BrxUSWEeMSKOWU1LPaOOWonhGBJyHqHWpHqpHJthvI1UulFxvGseIt801MghZsv3DxwzP57osbf0BsAJqkFkRMETQxs20HyLJK5O/wyrv/pfQCAET6ScyflczwN9+SYkxvt9v4IuBRsRUZ2bcvNzIAQadpLkEuRU9sPJItY6I2PqhYnU/g1lJrQ3Fa2BECYou9KiEj4ObAPAgYnvomB442yplZAofDASmN6IKbBwJdqbpAumsD1RBi4l/cvRaIxsWAlg3fsGgWyy2B3bOCOAi21xncDH8HbMhIIRIxi4trJ0jsGaOshON10cZSTrpaGG8J99nv2KUlcWc2h3S2bnU4NZGOR3IEPO/qvIcc+RsPKc6S/KB3rlHvJckqtO4whlNjrEoEIuew0+3I32fI4VBvNSTRq77WP6HlmRckpZl6f9InFcoAJEstQ6Rc9YzOIcay9t6OrFEm94uqGDhWQNHbW3igo1zaqadu+0vdHTmQ42TuQ2u3S1V0hMRBbueTJv6Z22o+qdaaPcDnagqP3gW3sMx9RhhR2Q5yEdciE7dErjwDQSNyPDkv0d0sIW8gOOtJSHZ6qesS9gYPkCjjtwRb6R+UoNuFx3HzbGrX49OTmykxUgEQw6xthoYnoADLgGLgtcUrxd03MYDgBpYaZhV+eQTzJiBYsUWandNxud67PS4BxqBk7jNW4npI3Ob0h4vFtCj9tgdTTdrwW1GLkoZGuOg5yuiAAocytl5Wq77Pea9q5ojBu1YRShc/NqAvKLiQDOnKzzpBgCeoNso/pdfIaTJIzWrhYPT0ZImHDi5xk0QB1G2j+yM3iLtd9hSS30JPS5PfTPes/WuvXYKpLW40cJHT07++qqwxvLZAbds5WYwCIrOt0LUo+y4AJgAYu+KljHopZ4Oi35S+iadopKJ6LC1AcwFWoYDzPLz5354hjPzo/Psu3WZHDj6a8S1EqprU09rguUz9nqTkV+p7euoeii2PB+Wvj9R+GX8vyeTRabvtB2pMl/pl+Bl7RaXO+nN9y33c6EeH4YtJhP24fnDc4XWsZV2m5oO+3dAIXs2R4q/Zj6swESJED2OEcPWb1Q3c072fn67ft6Yi2YJc8WznxDqyT1I8ZT77v/UwBTKNGACv+1AnYmd9HQ8+tlChNzbRhQQCbCMJwqBcsdtWUeHbd2wIgsStvb0apLYIaIXTOPSKcpRa7DAduCEXxei6bZJxPa9DKL/wHm9AKEdfZgIYHyP050ScVE9Ym4fagm1TTSLWGA9wsiI68ueZ5Yysu4HvnpuPKtq7LgUwbCcxgWqE1ryQ4KAKhIZaaeM/m3HhqlzNDyECdNGSZ0cLEbH4pmkjMSnHEcaOaw3gK+pnnPbaeGTsSI+7aTPi3z7eCsOVpYTriDpYn41GEQIxOB0qdLE8BTQcq98cfE0HQjx+jjKf0nQ9eqWZ6kkXyTWwvqczgdWXKISDu2aHQkV2VroNZJ/HMlIgGaA0sjfx6kwqbh7e3eY/ahHMlw+vkpyryZk7//LyxeJTq+72AlaZ8r1K+i8KOlXmVOy1oz5q4zas3iM2owaxCZYKYIlbng1zR6d5m0ND+pqjRA49+M4t5TLRNgDetM7ldfr9ot/I8DuncuUaaWFaBsuqV+PKG7KQCxfGW3+yqaYgUYBWmSjEr5V/QzqykMvKdHnMtHWT1Xey1KRvWX6V9DoaPjkdlrGxyJo97pzge4mNWBls6YDJHilGfh6V4Q02DEANrBNOMwc1rfOLh1uKdt/EhScqN58KCSp8OmPFbYzP01RBJeCd+BWEsCssk0m3S4xTqo5ClkKkKFv09E1ffvPjeqmQfB4f3tSAC/atEsUDFj/8Cdvq2Rqcgk/xkJ1lxKa3mZL1z29gYSXUG1t1TLx/urKDNQQz3RpOpdUxGsOZJhzxZ2B+g5/JihsVf4hQXR3pfCTxQo6ZIHtbFL7wuvfuZiGWmhMHx15b23JHJBJaymaQWPbtsJIC1Kn1SY/VvoEKDUUKTf7/pfvWK6KqscHJdptRozQE45nI2mLJi/H5eW5bEo+o9pz5YjZ70jRrHxRz4PuZdsRjfBbUZ+yUN88bBoDC4DsR7X6GE301aeDdQP45Yuk98pNwAlAZMbnkg+PjSCIIi4iA5HKW9g3q5Rn0iALNj8JYy0OTRYSY+woSJ3X2e6A+PnwpZFvEp9fG4yElvR8/6YylK9qGaBUE7KA/bAavcAejKMl6nv/I6V6y2CyYIgT+pshG3RfcUP7XB27u9Scz8I2XuhZfPs+ixdMBoVisqzg7FDCAWZlsJ0S8BA/TQikKFMyw1GIZ5Tpg9lEy73Zo2Zs3wwLXy0BKQ8IhwSBpjXmdrxlfpGXUozCkVTRKoRHKa0J0U7XacczYsrozBmYTiP67gjT80aZt1zjMGUtUKtd5HGnXU//tiOmffwC9OazS0BW3g9T4JKMxn+rwlKUTdwC8HuP+CLYVcvK7VnJuObiy6yJTg8UtwJBC2Y9JKjDekmwYaq/XyhUzTOFyyY5k50m6JbkRXBmQtc+r5fpct05xD/6eU7cwb65/VHIa3hzPgrdsnFfBrBE8tSgEuPnWtVQnE56DtPmxKaDy0dVQu1Zx9QhBzcsaKs7l/4HpV1T9cqX1l6Zqj2FBQ2CKFcg3nBn6CGld/nh7FsHH8iocfUd7bH9D3so8HpWNnBrttVBjqCk4gf9ZnNxdbTJUQlCP0z5Yv/BtVfbTxYPI++u4xicN3zKsBPz6eqlM7AGaeluJ1MoGY5ZkhpI8KgiDxHYJXg2MbKRk5ZT5YUlPqMLYOB0tIw4zpBxgSo35INdb2jxJq2zjgbEqDz+qvP5fw+zdonTxsHJh+YvFs8Ei9JuVooO9udzbhi+uDoCJJXPv0ymxDyCf8kxgBy0GTTfXcx6HnIyxAnBj70ENSSHXZ+zDRX6vxXA0QGdjXSkUQMuimIEHTx7UmIaWvEYQ0H0IPdKSDp8pomiFovGeUjZNoQoU9ZGImtcw884f555EgkUysthStMcsaX16hJosWfnT8hdDHNvXCmjyPw6llnBcC1rnf922aaFrHIFHCTBZ6i47GJnz4Xi5A872ZPNQQtHjlgTM1aiipu7t2AFIBEJ9YvlP+9FBxfBTGu7Gu2KVL9jfCfH/iJl8Pmp2D4EsPck6g+aqVOt07IPy0OPm79VDlqAjv9XdJfWJngyY7F8sNrXXEgli67kFLmXjWZE03rPmOK0iWrf5l8yh52xQfc8SebRcSj3zrZv6UkACuHiEgU1c2dRymjE+igggKz0UgDW/w/os7yiGnR5pPVmm+ciuivrZ/ITc+sKrMoPGf2X26ARZ8l4bdhorNjB1B5q3gA89FKPV28PPAvsAn4RcullJcfD+KhkY5OHNQm/D10OQoJ8igShUBKdObGPR57wXPLpeGRyS8MmHi5y0/BAtA+c1B7uQllPqRzWPqJKDCfCq/0IgnPuMt7AA0Dq9QnwVPKhHUbOhFeokcsqDWw6txrPD7GTe3/bqY7f4KZYOMNeSrkogtQyXEHwfUyL9xDSzPsCtPjGxHLgIuYNAjtcyUHj+sVFIwrxC5+SMVPnWWAeHBQGjXTo2FMDcteUw/7N/rgKDJqKM5/8Zyo37G8jhD0ubzevmWiFoBgC3FQ9jDvA3aSTDZ2pL3vU42sYlW29SDxteP6E3Zog7xP5xH9/w8LX4P2TShXRNxEtUepeTPfHlmukhEhR9ikJ4J+aFmyVLTRp6gyv6U34dcT3jyvx5w9mpTMpsUVKwd3exN9DKn+npSjIEXts/mWAbRJChgxVTrfdoaj0KSCOBjUwFaqt1gSxc6YEUDC/O8gPtT3WKQ9hTgbveig4XBIFq0tMXMhzKZn14i8igPwJcYPZp5CtNkM5U9+52yxHQfGIDG+4V8Qu8Glk3QCi+KJ4bfZjLvvcohv29EMMQWSKepCs2RtCKPgasXqo2cm/ioAD6k94NdtfvB8H1IichvFpzeb6tYrrCqhNPjNbTi8PX0wqPV6pGEj5j4L+CPMV3rOqAVh50bPQSaVO067lG2Jr3evpgjHJdMXPezEad7VvpTmH6uqaolqxWf2N8PS6AyyhZamZc3xAQBW8GqPr34cEPAMKYoRMifD0reWXyR/n3gCtOFC790jqotA4Bx/hj2MEw7Ak8K3jltW+FVYwT928Xqr6wP0lbkiIlhsIcUNL1KuiGF4f6RdRVarZltM7xPjn83rmJXjAV6DhX6GWgsoVv0D/dcC2NJJwf2Z2Die1PRGYvqygQehPXVDgo+L3BFefnXYmZeGXcSqa1wBfnAgUWL2uAr/egccv4KLxeRgiBUYcgKGVWSp9gXhlcXJuhB4lwv1p51nbFw4fJspQn4onD64QlygaAH4NG95ocAC0K23TKjlK//jVdZ8RI4goHyZWgGP9/GKmtbNBnheb5LVY13fZywg76qq44vkzz1NAWSRhRBAPKoKFxQ5w/NSYjSZ4jPiUKYjCapHlYThsAYdBuXONJEq/zi/lLFakmjMMPRZDSywLwh2GRBkiZ5HlqnPoI5SHO4PsmrQaF2blpKt3sjAdbW59QLrOcjpcUSGmmg0hsEg9o1BDFRVnoOQ0mk2sTFYn52lxTfJkIW/Zz7VvqgGVRFAQwDrjcrx8dcu5udtr/yd4cbZwlBWyiPdjBmuf78ULU/5PMKZ5do5Us0ckHF9c1MAz1w0/LgDlk+Cci3W1iVnWYPt382IG5TlB23XhyqQctVvovDOn1qmkXsgzGXFRI1vm3r3K95Cv7Qezm3C5rpfDFLCtCeyABespsSdzUg0AAIoJwfMy21MQFepwbl3vJQc4CL7brOhwmCGvQQ3J6ZceWFYCfw+sHNmyTpSbamNpc/ejTXBbjcmwxsUk+GhLUZZWODXDJdhk5HRrqcXCKkQo3JO5DLnhVcC9WONgiS2/oTY7Aae0iJMYsCr75ZqjV6Nc9TCDpeXqwVgimbOzQO+zw/vq+0lOJjf4TyjVVF/qB+9aQsvoxJtHYAhZC3k5xAUS8YsiMvr7j+jeAEUezj3zwTHFEcvFUHShM1GvS7aHUHh2V3hxR5u/jmKkDua46WlI0kqMpEl+L1ezDNLKI1TZ/rEFYJdMsbw/qxOe9ckw1DOnZqyrz0BZFR2CXsoLgYlTz3rlHnqu/tDQXOAlGI3WUHY+DQR6rXjernAcLd6vaHwleNTuH11+1snCkh45UEMM2xsj2bIwYgRng5wna5y4o4htlVbLYQ1sscjf2UkRGtZkT2YBNMoa+AWoT5VR+d1czkdQvnb+mDcgzMwNwDgtjZrkuXTizcyxtGvCNrRO6SK822C5SDXxkZ/vQ43t0JSKpvtUyaaJCecqj+vP6AphN12wD54bj63UdgxZmcGrsETcSzMb4sNeQr5WGxILeNEvoGj9QltV3yTpFoOzi+atIwNOYOVOGZhwNprsMI5jVA7mgmmcJcjhCtqpHBzYISAN2e3HbPd+p4oXPTZ6d0iF3oSBF28W7CK1a8deN9e6oKeHwU/4emWL+YuW+E5cHCl5ga5xQFtV+UUYfiWgY0kXMLUz1BELL4sPE/JevYNUji0OaTkDQ3O6OtHDx9G1xWBtCWtdqPL1AiiBGfkEqekuhNgtwLo437EMsdE0LhQdw4S6q7pi6qV93YBx6Rel8epe9jsSGxGnAVY/v5IlWXuR9aA2HUN+lrXuFoHo+tZBb1qletUr0uyKzlSlh1yWqpb1OI9TEcGqpvBABDSEqyCdcaP67qKFVina/dwhZYZ8B/X1G3Wk+2O4RH/23iR+z/9sWvLxNiNw4Y0st1H3eeq4CJH5Sp+uTS+fwrBhpTh/7LxBPKxM1qOf4z4qh/qiOdJ300SKaIB5JJvOM8Kc9iWndcWbOvi+L4o3EXpDJkAwMigbSdiAJLIuJPfLsfdd4Iwy4xYei8ImopM/eM+Tb4+igA9HTqvfnwOIL9/4vt8AtcmZoY+YyChjkBgDkXQMmUAKgrWyWhFqA7i1qik8DmbLyuCZEasqWCFtLHoEKNBszO8t9R99D+HJnYZWlNBCylfWIAImYCzEk5BT/3Tmgeo+gE21pbTbZ3ePAzdNdTqCH0u0x2mA1XYnpId5vbGh2NCzQa9rztGi420hSzFa9duKdxjI5lm0gK2dA+0T73I8OH7ML/3aCh7o7PkMfpZiFZMXfcg63kylnPONGiDVPvfqmXTq4DQDM+oSIsIU/2WiW2yl4vGprIu8tQn9daNOeNmQpnMwv0D/N10iWRbt1LTTbc+XEyce4ZZFkp7swn/wu+vj/iY0+gz6J3YHF6LzJw2u88Uh2PStfxJiS/QcMsJfoAJ2DW1QHMFiNTNcv+nI5a6ZxOj6oxsxfoafNLnhx41/O4sGcgwi+zquyjOVEKsAV5aGVLzO48Jblcv75uyZQJQS+OCAARhqRw9X9++19TijFJH28zPQmyOQwbxUEIC+3zQIiLpXoHQnoxz5GVxw1RsPFxMCFSIU8Gcoq/bffR3RmpUf7eohH5RqogJ4ldlgh1E6g/cc/t1YDXgzZiBFFV02Fn0KBXlNEXOktAKnIRdsGfrSA9bT9lc397XkckVEE+rU/ZHIaurKozOf3MpGM2380M4VRm3KJ3aYplWHxpcaqnrRdvz5b3LJEHWDSUgqCSde10orwMlrQ/v9QlYWRl3VRN35KjMseOYu2x8PqZ5kcyOl9KTIRGZeCG9/c30Pd6U4HG3B8S+nXctXEYAXUUB8wfV8cTpiomN/d0ZM+N0M+lDyzbH3yEsg1DX3hQI6HzNpFUx6mXKjzdBZHRYIub0YdgIopcvRHdS9UI+aWO5aEXEKAnOXmXNrBOzO6f4BHaqfI7Htv/dThXdvuA0pk8Dy0gfkwyBJ+9+/rTCPNZTv4rUT+kglFLbonNgoWtoHTFWhsogLWG/R6LuvoY2PIXql10OW5JeH6yW56A9HXMxzSKQ8AAQi3kzKx78XfBswmkpLqRIGUQnt7H5EArTR6lUc+iIn1Cj112HtmaTSxy0SBVDhspUc2xiSPJLir/hph9PNF07RL7RJ7c2vuPcJF5JqBoYUloavytoGHjT5iKr5p1LunJiDpFYD+bi4ktui3ut1t8dRmCJaiduM0ti8hRM6QVcH4JeAcJwBKK3t8v6p+FmCXtohwr0Ai+BsDJ65WCnJ+9XDW93GKqFkA9lnZ4HS/AM6ZrMi//fidHE1sKabaENSnVgn+kt3iLc0wh84ZxrsF7pldK75LRAHk24slrWVj6pVF8rxVy4mdKcvmSxEcnisj93TpiyxIs3KnY33CnXZdT5QT3LQp/zNxTuMf7mXZYjZzj9Buz4EO47HwXbMXe7wbhpEzYKpDKaJDuepuaqNIFO+BMFT+UghueWLnQ+aMoATFvyu8El7BnxGlzQZ6lrsW4hwGUVAv6fLFLX6xVzR0xAunQhxoAVYjifp/Rd59al3EiiZevfuagX6SpYEM1z6AZz2DXIKYuVHL3CowT8nIHQu5jJkXB5F9bVZQCgljzqskpcMNx4zMfUJy5QOvJiecR0vylpTEQl6Bqk2EbRHVGLVpHlm+UY1O54hpqaUCoSSw6C+AQTOyWkdBnMhuXE+oqv/gUpxzo24lkdGqr40fKAc9Wv9gVnPDrQ9aUDotbc48JvGDpOO3qNaQ8gvhL+kRNr1m5qAZnLQWesrnxgZ1M8autYGPAEnM2FcFXlBi6IzEGyWJ0nlfBRGpSDEwlalgMLzI4c66VVoYsChkBJrACwvMzpHpcQ5A1KTfMjEMrA/wUc8BMpgYwYPuB9yuDoTLzzWr7Pv+mAO68tNlh9REf9GRMgqyMDCOXJkFmw013OZ3ZC5MMOxdonSE7lKDhauxwXA6Vf+mRe6sEYw9ZzR/tMGjvfwtRnYzBtjY0qLZuc2FZRFz1H6Kikqorl+m6zfA3z7CTshX2iswZwcwk7MVf8iSelMMVgdWN90urTkSbsq5HPpSj7UD7yAGfMJQq5IPHVUnOTlYyJuZ1qh6oDZ8kfQdCnL/0ude6dJaIa9FkQglyFZSn3iYZ2URLK5UlMOETaKgWFDD9BHHQQybs5YEOEsbGFXPJe7y6GulHKkbu9apYt2LvSy7DZivfbjJeK9PKGKwGdfW4oeEfD7BnUnbGqPZw1a5xBiyjSw19DmehBjpbIcf54VlJRx+ds5ZUHpUI2d5NBZT22sHCa/t+pQHYmBTW/zP0h7ReVUTO0HSBbIwHrlUZTvbJypfEZqJtDoThFB5+J8cq//+sNKayEie0mO7FA9uL+eISCGVFUROJscmd3vd0/lX0A7Q889ipp3MY8UeCGuTXWtJjCfdgzS1qaq2jKMqx4u0PGuAJkkT74of0Ya8ZgGwgZ8KlA42eueM7pSWLUZ8EXRZBr5MFxVT+fneLX0tz0keHxx/w/s2fO5woR4+yJbskIVEVNcc8wC+T/4rGKiRtMf+CtIr6CEgf+LTyKnQPEyTH4Bs6mjsmqzbJ2t+1MkF6DyV8rEBt7GSjpKuwCzhuLGbyme8DQIEzxJ106BaZ7CQwJ79eEO03bajqGMKmLLnJllKZQBYmWSpyt3hKK94vOxzq6o8PRtXuqG0s54EysKR1p0qAg/hHKWrgxaPUWewLlsXsEAJOGCJgQX/n3wEbq6ERrokqib7PfubRg0t5ZwkxQQjWTIg2dNrvLTC3Gps5kNg8IjczVXl2gsLAjpDpdbIiivjjmlNF8woPzIwfXbCTsYJZSswK+3R8ADfsrgN1LO55WCtJE3y8NDOCRxAJvw4sg4oSxnWmTSiPKvL9Xrs8DB9hRRIwuzdQ6++QfSlO30by65KoQ/24rTD8xb2tEDuAcZ2KITZCxS16QvfPx9A/3e6CXzhZS6lzgZJwpUkw75FR1zBp9DsS77mrggfgBV8+4AqItJOngoHaXZMBTrHonki9z9hQZyww4Wz9J5945mMXFDGhb9/KxAysx2FyKoTGeeJyEPQuZiDdnk265Z2xiLe5xqvd5gC7qMiTgm8K8ZBr0L1mmix0Zad/rMjUQA1TVUd4PQph9aT98FBxKuXrUL7LBwNEVYthOqb4Ht8fV2FnikJeZQE99fPdbcdGwt0G3h/y9DCZnH+B50uJo8lmhKYWehOZI6swwrMXs+zk7fmup913XWyl6fHwTuVmqfoG4FqAIlPM0/nw4jl2HjGFycc0FuxRbBpA0FUfMIIvOjHRVj9e6rj4tWz4ZOaAAJr5Pm6LdUfBcxZfQSAr6EEEQ95dsskK6BxPKkLFldu7LAMheFpWbEzQNGrrBjZ+psk8gcTf6FC1CjmVRChbfWNnhAtZDRER9ch29eE/fCd+0Epq2w7LdKlGaJvF3IU+SkZcWw/tEm6kB7E4BYIDKHyR2v9yIpP/rxtbgMnDv0Fb5pxRSbi78N4WqeG58V8GqcWttdjGAY/Joxh1lYqoi7b9+BEMRkkY8xxWTE7yhbvMH0QTZHoLG2Y9wyBVHfPvgv2vOnnVgTVwTG2bS0eWDvrQmABCAVZQLAgL4O4E7sMVhxCtbMZLf+YbqA+il0NXNawfePCuEinQ0ajliZNJb1MF3aI9bqGyHimqg7d9L0+9rxd/3OJyTAXO+pXt4FHtUbsRRCiuwyEMEJJRQi1p9Ah2JGLT/BoblX3tWHQzHN0GqbyyRxqK/hsNiXT3uwQF+whna9OPy+rY5b9/LcpmISEANb0q1L3Z1SURDfPt63uuiTKz8hJAnOpMc5uXV7M+51ieDGAagjRpocE8lugU0Nw8ybN0cJokdeICuNL1nywipuBzd27csjHQzMjN74LNKQaJTIyK2Mv/TrYRbH89Wd74f5PC1rpJ6r1VSB3uKnrmF5OXX1Ade/ozk9H9ntpBWTrfqsxUY/DRvYxaWRBeXkRhvwvmnZhe89ocb8eG5gq40kBvLQiNtvcO0su857a9a25/DLdBOVlXPgYSz8BvDl9miZukGJkvWOF52t93YvDfiIFomb8GZg2RhySfULx1fNRz2bHaQA1xfrm6U/G3JJ8X6Ftqx9AMH4WPx1dXZCujcI74cp74lYnT5yiDw80PR6rBNxBIutw1qRbADK9ejvv44Yagmq4OWtWyEcPTwfZhy/Gu15cck8m5CJ/05WBt/OYSfOKCC2kTDKwFSk2AAiyjxltopwkx+2AbtD6L2Ma/ryX4s5YF4HM2uwENoBcgf2M+3ReHkhSaBifHNpcgHXRp50Vp41yM3QTk0IOlxC9hpKzEfpRD/tEYgVzaN9udFs7lJt2CNYtJUPPo2ggyQ7/bQgL0ajI/bT8R0ALI/zg0m40EWpP12Y76It86iu9OSYHUMV03RFQl7Bs3Tn6n2FjkDAtWzon2gCjkaHd2ZIpP0kBB6WIsOPtlbiZyEac5sBy9goEdxgiYvU+nhDbsml1ZQH+E8/qxOAt501SptZYADvJlkHlg8mFPxIo41gGC1I9zQcQqHet+4cIsh4VjolCrCuSdtWdO5EpvkbxvCqAFcysWxtHeDAds9V+lOuXfaHKUfSzzYoSNvUQ8sfUmRc90muYenI56EWIOzSwXxs+BF+ZLgdLG4LBgY+LgP7VQDzatEHDkBGn59eIjeieZ6VWleW7D8MA/ZbGsWOQlKGXtiC1kuOHWyp+bfbcXqOSu+ZZcOEsCaZjxzh+olvzPGMMeKqjtL5lJ+cpFpNDOnbGEaSa4hwXDKFf5Zaw54tYatjMKQbPjzYpYN7XXfmTVFHgANJSfOF1/En6jBUz8d1EsrZ1yaz+Dk37VGSYpu8bA9Q2Dz9vF9tVii7QKSlgTDvYU/ppAWBEhjPT2zAs1rRaZX6fyOCcNyVGKM0m6sgwTkc2gvTcbC8HV0G9NzreXUj5O3QXKouQiWS2CfX7KvWkBpJNyY1S01adjgOGqfPvmVoq5zgwCfnCMxxdsl+qNLjnL9g9u7h6o2AGvK+I8XER1/+8jx5XanzCOWuN1Pe1KaQIvX4FDCeqrOL+dGP8US17a8AC0bsl1OIcsWvV6QPjMOcOJ7hBg9iyPCn64mQ1IUkHT3t+DrUBQaxXeWSvpCoVryGecVh54/3m3K3CYIuqlc93EKjanlNOqLXYgdjlkWh/iLczMokaPR6ltlsFUAfOY/3gizPyiqoAudop+928TtlpkTlt4eHzcE2t+qisPZ8kFdkf5BTcfGZ7TB2Mm3NahTxWOYQufH6vzYPjgh3/TjPQeQrwcKiheOdIxkx/OsWhiYAneQdgWR2EChTMeq5l2uK30G+4rKfKFQU1CKGr4bKs6qHYmAkEiFVL064Q713VpxQAMF5zJpx4iSyv/vw7GfFPF9OUKw014X3gEczERqzcVG589HZctUhJ0jWgTOnEFEKMc3m1zCZa1bm/t0k8nzurNQ8J+ksDNetP3p1TBcxHB1A0rFqbCBH8gotaoNzE0h6Sx7YUv7ZEbfhXYqh9mCYo3+chf59j32/eLkwQy6wGq+Yh9sVCb7KleVkDse76wr2bc3Hxr7vZ6MgOom5z5y1Yj16vTydlBe6IgzSmBpcbigZTOWOl7p00lf6ymf9+rCCXX7SCFL5RS4pBPlJg6vBt8HodrpD4o1hZsvDsBFxZuJvAq+flBItAz6u5Dch/o04mvAW7zntLASK8RtmfxJiMOD8DxI1h6ukDZG6twAH2ZvylUBCOZq0RiDmpenlabOQRU9hB+EjUKjBMyUAAN6Qj4Zly1iyZMvzzsxzo9kvTTUMaxWVyuehzPGvtpoMpR8nQFjO0uM7j4DzNefK6OebLwNC74dtc5AuprnoEq/uJJf1O5pHXqTxILeGByycimS3t1Ds7hRmYvgrbMGLqmO4X6dnOeQA6x01wGP6VX6aUrC6EWiJ/3buIUGIGCLe3PD82Zmjx4NXPnLI1kAE5ZBHk5soOkCglGfK4CXOfCifb0f+aAa+hCRjFVKO42mC8H6hNhVS7rA86hVn//g4wNZDqnMRBgMFA7k9yL0PUqH6mqxlbkIS/eqPRw/wF9dnSr6xYnEmxSTzLMMudP6ZlTYrxcWf7MGRmnPBk1bpoLvZG13Hvz5hMp8TdbyQQLpFdj3u21BJ213LJRPR1l2NYNPXXmIFNV0gkUK1c4qBR3yJE9cP2qmW6R3Vp9BuTnaAyEGUyhxZ4qQmNaqH215BKbOyszrnrpk7E+xAMT2PDWt8dhWK+XGfUeHx+9q6ufnS34qL/h4uJbMHOX6emyKX1JTOi3ykt8PCtouuyx0y9/3MEplP/ukss8TvZrUmogaS+TIiiv8+QMAUvS2H/uxD3kpse2S0wCMgvpelxddAO5tYMwYiKvQM1psgU0j8OrTnzAIwfVQVrNmUXoN7gUKr94h6THl4QtGqww08Sc5BC9Yb00CdTctOjVNBbDEE4X9/pMm+JPDCirHRnQe4Vx+aaBGwmfY7GhAl6/z3KalAAfXXjwmtyyNU8tFd760zJFdNApwhaMk/BRdLJrQ3daOxuA/QKVpRkLIMH97+EXAoAQQAa+j4UfrJ1aFi8Qf8qX3CNwoqjuLRuHnc05gQsLptY9mnfxzTgRInPo4E5FeMJuvyUCN7Vd7msKjIo0BPqfDVun2zbvdDmGaMyFk8qdUREwzsigsLb58ljiX6xFdw3sdDuF3Bfau6CCExW/I2x9OfMBYclAQydU0CZq2tEN0Vzmoon2KSKq1FGvkJH/mgIRtXz4Gs+9D3kcP7bO8Ihnq/LAV/lj0lTsN9zfSxBCgI50nwNvIENGA812BaNUm039c+potvje7curaZaRiPs14uKZE5SZr/ibaJwk1e1n6j+Sazi9bwS2X90DPwa3K+/YwaeGk44wK3QugLpVxYQGryQxZuW9ujgVsMShYQ1ijlxXBQ/V0UDK7MLyfohbUTBKq1Ka7cbK8VEhsjzPmB4uhlOKt1mmFm4uF0VaKMfJn4W/dZMfUGNFUQJLZA3N8tq2ZQzHqVqzUDb9/s+wt1dQoapC7sTR+JztszvR/wcfhwBamL/6UBKF2zFbeAzB64oxyYVBZc4zXZV4BuNeeBroW999NjMnsuTa+mykQQ7lvyKzThYkjQAAKPMihx/aRJcFW5EQs52NhNRaqvmLvlyMSTyp4lwJ7TR8JuknTbrmBPoCaBO9HFvFJa5v8W2afj6cZlPABU7rh00oT50rB9alhjESXQD1jTm9JE5spKom5D33UB1HzvLzVrzlo6wJQ9xKkQK+nq/Jws7qEySiqC1oh7oGDhQwyWYRh2cd6rfg77u9VCArS6ZbEQB15BMo0zy0wIgBEY0kMCEbwOAIy8ORit9lgFxiMFtqlDkwkHp5qgsmsg89VvXucHxfXf2bL1mXkEO7NhHXKynykitNlWbOvmh/In3jBvZYM93cT2Nta6g3mT1D08m8dyb432UdyGUrVHFh60seLUEdxyZsWvFOQ342OnRn2PFDSzQIad7BkZiHXsh3p5w0Ms74UJJ4O7iXw4BgIneoS3FrUm2z8AI5JnyJtRMMs6glZYwaxyCkliqSo6b6QyOBF6pGLee0xF7ks8+vLvf/O5YN+p349MpA6kyeHdeQPeCQt1eV81zmdHEBs5Fd/b03ZFROEE1fFwRp3FaUwC9oJzaTo5tQc2VbS36MviXsklcRLJoGG6kG8+8FcqqSZmyv15yqIElZ/7/4zMs+afg2hG2h58HTqUFcNTIwoqf4Tb2O7DLIhFt1k2ckPy/XwImtxJZDttgEHeD7D33YHJ1ocoBCKKqI0qEkk7mnZs2ZI82ylpT9opuH5Kue+zEsAABoPsLnb/ha4F/KqxEc57kXGyXwBLzZwEpgZQUmQ++XFjiHUax0/LXeDmYIg79sJ9oKpsOMbqWe0PuhWCgOJBEP69aX9zsKclpqq0eJEKKhmjiktW+dbJbUEI/0LoamQL902zUXcF33B5X4vye2NB5s7nfNsysEyxg8GHPdlALoNqX0Fo1sJcYcPFXmsQPX2suTWFtWDlLHamf+K4QxTob4rD36b+99qYQXf44D/cX0x6Y4Ko7w1asqstNismmvYDIPJyPrP2HwMH7oE6t5Y1HC4uSKjQWL36J/NTrbdYDrd3p/B1o7jp/a5Qqrt48LyNu6OMflH+pSO+v3PLrgtdoPPyYkR5bI9b9mdayKR+Uvd3Y5nIbKadG9Uhld7gxRHR2z2/lXI8U4HKLj55ZoVOkHLYJ8uZWkj1aOpBEjWHeCldigctmwbVDhEdCsrdxAXMpncuDE4RBbciZyZ3Nwbr+0ble6kjEiI7pqyM6HW0npSGCrf/JavOCgR/nXkB1vPbXbKgLFYln7lmhBL0caQiqomJiw5//5WB84LGwogPoHv+3MltDgf/75/6oGI7DbkU5ZmU3kvhEKjkNDHfwEqJunGxmip9ohgheXxnsMP9HjzAphw/kTWol1C9ZTZYpc6Z7nm3z0FY1LrjP+/vhRoYfoAT8eAqdeX0RPRLVPuC6MD5EjLkPCH5LiQluwCRfjimAoLp6eYAAAD+SKoplnFX/FlILvR0/1ncrE40h0SR1bvBkL+l5J8y3qF78h+7FrG5rAiaTyIvnw7j+C/swJsiVlfVJyrga3E7BkOZzNJcD2ygD5ND+B1gFM/cm3uCjSlGpOgexM3nU/UaOKobcrYkAhnTJJfHHfQdje/c+WBKQPzSG2VT8Q5EBD4oIBwlf+0Ba8blz0mfYaPfG/WhvJzMO0bhoPiqQfWxbcol4rgjSdai0QVeJI2eCyAsotul4+PUeGXbMHj7D0eK5cN8R+fPEyldPvjJ0uHMN/Tvn9PDq2sx5Iu26rLtrReBHl0rRQL4R2Pnz51/0LhJrvP/hjBONVoWgEpPgfcVCPb/oW2WBCWkOjnYySDI6Z/gmihX+UMPp2NAFm5MydCK487HXl00aL+WjDkX0CaaSNdMlb69LHkKVWHsI+hTXxCgJW/viZ1yH2JkN3Nuuhnn+STckf+OzB6M8il/wUuOB4b9SKWOwqUfmZNcSXENBhfgzYlfGn/Wd4qx1tdDhH3cW3ZTeuAfB9ZFAr0IVNXnWJwtAObhOkaLzbkejFP1FRwToVC6AMyF0UiKIRIf7JTRVvPQYIy44056ii6cow42srAMlgAAAAADXUVGX+A2mzTDKqPVrKKK3rAZq4ModRU4yijBptq9ED+cVBAYTRfAzYD+gCVQivCXvWc8WbMKZ0KWyipF375N/6b/f8oK9aMhfhTOlkKN0m3SWRlzTLo8lrh3w9ti+rxY/DZkcIK+2pc7IlhLBqb8zSWoMGEwxspfG7e+r3EHanjHl0MEGYv7ShnlBRfOsvn0+TBy2AdZ/+2xMhZpAESUTDN6f0tQLAfWPee/htlQgFTMzsj5nFp4WXnbCr0pBa/Z/VQO1KseM71eP0oKYIk3XpNtE92pVoigzgePxuPJFA10HkDaMOAI2Kachgp/hIRuNtvUfayuO7u3Avp25b8lEr3lbBnljdgHeGoDniC3jMIwLpIxR3IHSSHtV7LyTUAlK6aIMCX/vTXeamYhcn78DC4OWo6Bjgd8ikmSsKg9nh9x+VpVxkg7SK7XgRsKq2y3bXJYDT5Et5Mna1pCATP7ipQM4LIT5cf7/K4DFmICjbelLhAfZmPRqIRAus3JqzWY8n1fDuCdOmMYOM8ScjNSn0C7IGH1mofXApKBxi+J92wMwLexJwL8vok1uTkwsR0H+4wkFzvfx2LdgGEmfeQtk8IAABgjuMjTKvyGbyc9czve3G911eSCMIVQP/BJQjPocxET49LiRbPGYKU05VpKUk6Jv8NPCJhwkPz/vGEAHNrgaS8gD8oijg6Xmcud0zjZHEJm88OLS5SiAdu7VrC+UluE3fcaLsluMNv4S4vb5qu6+YMVElIpeylUJhIygUK0V3p3VgzAMexQrM0ySWO6rMTa9NTZONDYiI+2HA6s29zFDYIGpoX4nuZ06+pMgUORgmTkuWO3NVWqPagq6fAsTruUx34zcq/mhMw4Pnp6eqlikk9Dw+1o04thuZH9Y7lYpHMs5mecxUUph/0tQKktNScxVDcUg3vmPmCG6lCs/mOGEwwk+kQPMuPrsUI2FWSztoDHR4dzgKcEygFRf/Oz1LqVIW5N5FCcxn1FsGk1F32YlphPVxwhq/aJ22UTJVUhs1sLN3LYr5uo1myq+/KoSvBa0X19VIqe7JgP/grWvQCTaM3IMm6p5JjbvEVBpROHmbXPYg+LXSshaSTwdq2hn9YGP6MTDqXJUvotLgAlDyE8OksZW3GLI96JCPgo67ta932qf8sE/JZMls5OLPuALNwvXXlCSwpWyWb7Xk5f6gZVGVX8ttVAxDjlwfSbyt222bYuVdu36c4XP+XkbhXgG80/JkC3WlGdCyGftLXlcu0i1r0UdUtd3hbI8rHJ1YAAAAMXeo9fcKrLCCTyyMHz/X84n1evDnkO/SIrvKsbIJb6B3Ptu/JHejjl73nHVLQAXuwTHUmvx34dioiLwWohGFcXa154Io/kkWzFNA2jLpqVRu9Pcl2pBvvk5IegZDbhWp9+AkCa6p0lPWhaft69U7UApmzZtYTuVrt1h9vn8O0pLPSXWkSZMGU2IRX8p7GXbKkvMgo5Hue9IrcRG3Ozt/29mviQ1MtyaObdP9Q+ZVthxYnwDgyMWzLWzCS4U/sQcWUyhYLd6WjvdYBDvmCpmmS5ZSQytWmE3jJO0EVLJu+qRozckRIrysiTGf9Jc2njaR71tXkWkePPp2PxkON98PGn+8fsfSCQLEZ/wEfKck692hKnH066eRo5DyyeRFu/SdnJ/4fsphM7WJsxz/A2JKGwwuL/hyqIEi0JgvboQ1P4WYEYu8SihO8jBdKCzo2yNCPCHWHusRLYtiL/sAHCwDxIaVRUN/O1Gv4Q6z5VuQg0Qyk/13hHBA9Qn/GLwxFIP7MsayN6jcXT8yVD8iuviILhU0o0jjYzE49C3Mn2IURBEjfztWKdXTP3Fj7yruUvhMW03tRthnWlcmllIogAAAAfWWLJYEI2ru/4TZO55feixoTStfxwu4Hom4Tee7U4/KWNio6V1TQKiflnNnrx3VOddf9gXprlMjauanpPKJzwU4lIn2bqByx4MHwrkNqwnW/gQLmCY1rQfk5DD5qaQpCnPYiKsOXOfsdUAF4ofcX/adV5qC3RxmkD6et+2VoHdWEuZtUvOUgLx/OjaqBxQ/rhCqwtHVdXVUPiwqJY+KisHl/Q1AI0q+LyeI7UOo0DsXj12hbck3ZBbtdRfVeGT+DdjyMOF9g8hrNnaH0XxASBMx5xFaVAgi3LpoWmOz4MsIwFQphsf6ghb1iZIo28AfIJhBODjv+Ou5MTLD0shNnDFskuNUEUMN5yV0aijS1qw2SpeTPtf7toDhG93UoiQ4GGW4xxR3kpcTX3r8DytyL1BKk316IMTXKcFSqvFYHYIVxkdOW/BmaNBa66sOmnETckGF/VHvvVvMRmM7u6crCGPqP53tucyLXxLvi5QuLdYjXGEHNbVoxmrHVnOuTue68xS0QJogSw5DKeq2nk4c4+sjepSfEmrxyTQ4EiCYz/5KCW7mdQI4IHXa4ACAh8snzC/qH938PEx+Ym7IUlzA1AAAABVz384gh1ns/5gaoKlOsx8Eus6PBxWpnMetuybGJg1eg87W6nTIXWGpdRnEbXYIlje3x2cP6BrAhd44agC2IsQ9mppqjsbw/gYb9PWemROckFZtzOjFU9wcwzhn8mW4JUsTffwj44m+30xztechWG88eDkHprhbFJA3f1hkdVhFC3VUTir+eEGN88d36LdR8Ziw6HWmp7Bhk3jsaFta/RtcXeJluUgETVgVbrGHYGjJ2lubYo11ceuIXEwWsNkNvsGnYIKFLY8qe+JnNkxaABH5BjYEvZeYBKajk/Qpbxdq2M2PfOv2vdXeeiXpmrGiLi5VqAdVKks6r9hmaCwZptOttYlP6Xk62qHO9cKPuPVMSptWNvS2j8NMEIl9GmJM78t3yKnQAj5HALPPwspLKq/hJTvsZc3ArS3x+T0mN54WBTEUrpyymSl+4ydCbz3KYlw6SNu35mRqwtOW55kF7AR7Uvcj3ivdZx8pWMeCvLiv6BT0t0oDj59jBJYzJyfFa68rSYij6PqLA3OrQKM3269gz2phP/K4kxxP8IABj5bwRim7HBA2FJbAAAAAAFlJbIXdGntFBXuw38qidtvDW52LQvJ6084c3aJHL7qZl2TGhFYx9YU1X+6/J18Bg02aBubzzTddneNCI1ITtGUqMFG/+VeV2K/Ok32/Qf/11w9dSleq0Enc21OLS4z8Re5XBda2rG9bQlLq7QQmJIKWm+TVgva6dO3vjszpzC+62PJZv409JjWEeko3UvR/4/tAAlTGdlclXXsU1yxyg/n7uaYpQFnJoed4L/X3aqikfBbHt2uWfKUwoR7Z7TyAtR6vpx7/4uWgCDDXqD4jmuCFmGVgD7Y8QcQxzb0E8faRCmgj9Bc419aDp/Wz0Jp0TW75hSGNGR/lZ1CJNoaEd/uiLdtubLxWrijBVlclKvSqQn00l/czknDfJGIpvAmp0d+MYgH+yDQsKRgGWj2eAS7BsZ7KOGXQAj/eQRkFC8qj8IweYmzgnnp9xEw/l/SjctSR1hNm2FKqTEUfyJI8K33NCDvy1TE4HHeaQYmOcOeOaju8WtgjIyvUlVDQAAAAAADSBA/YTMl/+3z95Yz/NXsP0lax0ZSjnKMKqEK0k2eGYyQfNkrs5vJSEmkE2WvF7QhKG03uFSZNYY8jku6TzkUnUwZTMrUapS50kRfR1skBUGScFPyjVT//E4i7YsyBXILf3RdNcqRCAmh9L3p96UKSpzligiD0LzgSTaaGhgfgrT78Po3AKQqcthjsfJB54BRMdhEsl3mZPc/q8Vruf0zEDYNM75bFiPuLWyKM+642fJ9ilrpXGRx1rFB87dcBRHFp/E2yPYGWXVKNvVZOZRD8lpxRXNSV7hCKDWGx55nivebrAMtvFIxqYACyfQ5w/4Hmwm1gtlPXXLXhP3tR55u5fhaprIuUwzvgx8M2tug4fNlzsaDInajY/PdY6nswpZxXeiwT5Ys2+4N8iUYAuqSZTtEP0DefiUNwktcj/gD3rMegZV7Vm5ST2Oyj0HEEuyQqdvO9itZZaXkAjKjHG/9kpBQSLUSF5MDqBV3l7FyZCVo1M6YzRztPqWc0RCQve9D3DQ0NALhDbITQGtplyqfFDuj+h6YUDXeHnhv0AAAAAS7yUqrCUIvthFmZQxXZtxj1hBiEmoAJB20ttjVE6snwXtk5G+Z3a3ZA4S6SjW0QmcTrqspdgd3+gupTG59PVUo453lhNECJUZwT/lZ6q7l4Pl7KAE7VzVGV+gJd9kDfi/0bkhz2vElwtG7T7aBLZ+wGL89NBiYuAS/m122x04H03PYpAvunkEOQjFUnG0MJ3pioL+TdIe+Zt/L5QhdHsJ47JIs6h3wTJOlbHwuioWKtkBjHVFA7bpBi1a+C9k18WeVloFKugwcNkdV/Q9savM34SPdISW5GYo8QvhXG/C5r6NtPjOmETMazv0PrdBpPGV5kyF7OuQGps5UwKeTxD+q3nLiP2ZcRRhFnnUWXQaGkOuP4Vag2W0hZISIb1BXGBp8pYI6yzmDAoTI/cANqK27znoIeF4pj3syVya+6aNyU6eDe1U8f/OI4wIofoL5g29ZoRl/ZzVFV/sleRer8BEdDg+PGw7aTsezQgwmh4OivJOcme+ma16nh0DP2El04ABPurYkh2BkcVj/ZcrszuStt0QWjx1MgQAAAAAAANtDl3CHWlY3mF4X1EmY07amAAE2szR/YGaCPhmdbI0hjLRjUUV7TjBncNVRuGnBDLMMkF76cDYt0IYPT6iGPNCDiTe9Ib55/vx30YUWJE8wKUIZ0Htyp2ftts7QZWqaPGTfn75/zZJjah8L/rGoxrCgoBQX7nYPFGh617I2C1NVBLlfEEfXj+7KENAb4wFNojFTwLKmbM0GYD6ozN7jjqyHdkX+NUcyyHu4GfYLjpLpfaMz9MHz5hq6b4+x45j8srGHEw3JyMzD6Cc6wmtueotYJKTiiiKHiAS7Ytzw4dr0LPcAW2Lks6mzZVmPm8k+7WThVCUsU1OGh8CI0SWH7VUV/TogM7QhggdTUk41qhTd4QCPeEPuK3dvODkQDU1N6i1RB7re/BmMXrxK2H/g2y7VGaGvnwlIUZzoegFkUAAsbetd50MgoUvcQfUg63yb3LpiJPItWqa8x4biM9Kn6sh1VvpNb+u6z255koMQEbDw0WcB4t4OmhwGAmPbDPO6zkN8JkSz48L7/jVXQcFselAlsnNKFP70aMEMl55ftQI8auq1K+Vsv9B6Nkdoj+PibRWw9d7MtSh/vvAuf5ZiBrHYAAAAAAAATXUS/Jsp6ArJD4tdRNuZUr567ZYi4/et+UiiS69xK72/SKC1kn7DjNE5G/3gXX0s8K99pL7IUDwfAIgpDAgrAZIc303R/McQie9/Wa1OfLpl4ceCZM5WMJhMUsVssbcGdbBs472IKsSBx6/aAD6Nm1w3bhUk7dy3tqBiXt/+KRaihnpTU2tef1FAnNI2dXPPNSbzDlygI1Wtdr6usE5qYE8NQveKaXPswoB/RAZnf9T2ZOBJc4FL5vPoFhVoovfn5voQxptaG9bRBgd0aqBUQDSWODWjqr0OxUrQJR0rdQlV0YgwA+jI0ctvpDce39elew8UYs5QYgl+2PRNF3Jb2TFqSC3rRlD7ZpKezAlwQCjCTQPF26ThJQY2JR5L2/176rfceGjoslcGThQhTBI3NM5QNOaqLSSnCj1aea1PXxdnozRUhj4nO15TZigdn5aEf/gTZx2t2+9gbp9rwTnKVb6K7mAxM+AzRsrq8kJ1ascR0sdv2tzUvOOxSyj3LSsB65ofZ8YEuL0tF+C4XQ2CUFqPxFFJ/x+EFAbaQtA9v94NfLrON7kL2UvLHAgoBfKvgk+Kpci52gAAAAAAAAA0UWePXj+nSGKnj3PWhtg89JA22CxRFDDJ5OJeJyjAWDl9EqqvhEEm1YvDHyHY/mpLcA9apiftKBYZdo5XZtboT+FZatFVPJFmpDsqYnRCtkY57yNczQg2JA2KtgW9IFY13mfukz15F2zUCETM3KPhqC/GSlXA+6JEXJAWMsRaRdL6CIEidZcY79DVivT4z5S/b0Yirw0AzFGf846Doo2ngpMr3hg52HMJu1YdpZooM8gDWWd2vNMiDSR9llKUrHn2LyFapEJwhsDRB2VRl3nVj9LC/asUE7ofoWEldsEVQt6QSBPLNqZrSsqwr+l62bSEvRkOJ6cJrDbnRNBW5siYQImUv4l3v274//bcmV31ahL3WaVnGtXguBH8ZHFcaj7ihyojwE3I/qSurVFRcWdCBDj+5eykP8iIHYIGsh66foSRhrjV2qroqyDch3IHLQdkSlypktrzgrxe9LQggcKVUf1ZKc5eUO8UWGsa1dYEEo2h3CR1kcV6XKQqLPOL8hviFXFK5EAWH7HeDDiFHfdiviBptiWkf36HEqAmfizlIILt/7uB4beQd3zg4PR1e5mxhWVCF7v9n1Qxx9X+VxEK6ut0Lo1mp9tuL7fc8DMsG0YX5dgAAAAAAAAPyIpesBAKUdYUM1zovVzbOdyAjgSYAMhcWGBUYZ86zJ0QYQlWxsSjWGtbaQVXfMlGZUZwAprOiTg1EeoM+2p3HRupDNBClAa88CZ2gz0kNUanBF4ydNKP2B2u33v5+6+8gpqKa/uL5e1TwNWZP0Eg69YtJ1yacmlb1wWe90FEytOajccvlMiA0jQjyqdLqJFWf4gtx+ayvtwmd2nHD8CnI58YMMlAYs3atnBnwONykP+6b89HFzcjOUnHMYOu8nRxaS6NS0KFn4ZcsvHiVx1Mn10F6oDu0mlpigYhJvzaN6R3PSfP2hhlwE5R1Ir4tBr4n4fmEeYvm89Kw8UR2kfs8jXyOrB+3Yo8Q53WtxTRWdez6kq0ObCqZGz0eQqXKHDAbUccDR+pYfD+nLxuZy8w4lGgVT8b2fTnndQ+p+mumz/jC5UoQbtnxUjwk7CqirgYYs2W6wgFg2nYHSrVo+Rakv6C7XyRaR98dxVOuac4cPQA05dinrT/9KN279Lbb/Ut3updvZKMxc3nPcnjRMAk3x2A/bf1VLm3C8iF9Ej9Kaoar3iA9WhpnEU6sV+QAAAAAAAAAEXgi/uLNUZsW4BsuCN0DaukQn2dxrczQlvNDU2TYe+/yMcsscTXkqaU1WwbekdiKAG9zE4O1s7LTbR6BYBenchI6+Z8jrSgUQcbhHn/0UJzkXMK1HiAf83TbWxi+dG/Q8K6rFQVC10CsW9TgQCX53obHeIGrCeaPzHUgHHb9BJlpR1sCYkL6QDIaE3/xsyjQm6zwr/+azpnq9VFPJWUx2rDzdrgzUhV2iRu2XfMvUiUH9k6T3OTkD+HDuJnPBhfQt/rnyins45nlg6pE7WgkZz6pEhAMK9DgqM8rf/SYCi9MP2dqIh6Z5jDOdRxiyH9k7b/LSFXMXmIFkxt5vzDmDFVoBcgY6zgn+1gFzqviltFfPrTZuMsqyQmf5XzrnyoFlx7Jv2h/elCRs0J/MVaCkT7DQ6w/IS2Nhnhpdq726y65mb/RyglPcR20oqPPx08BXpuE2WUlOGQNR8vV8csTcaoG6nhVTmXCBvgH+p7nbU2/8J1HM6QYOu5PPvRzg6XnxXEF5x3cVzSRoAAADdvR4XYara8E6JGbGHp9hzb0HOAbN3MvTWBuDf15mmu7spqfH81/7SxYUUpueekAAAAAAAAAAAKMDlbzn7ClAQ/U6VDQJqjRlOyRmlrjOcbn1lkbd3y1xePIxGGoruwHmzWAAHvAAF1lUGZm2GrkUoQ0eoUSA7/ZTt25cVUUHbkAXk3hjsrWk479LRMilfnw9D7IWZKlgI5kXlq3xvDuVnLUeF3dJa0l7rAAAAAAAAAAAAAEGWZPiCBASHBTIdnyNk541yTj0XIaEoZCDaYFLOxXF8Po/ONJ46q1Ng8liIG9AKAyS9j8qyvzbFTWtlU51kaPeQNvkAPk+3/MCbN7b+mkA3Q7Wuz5PjgUX3GH9sKyCPj3sFccxkxuWAom+0vu7wPp+ajRZekvTp7wc8L0ryO1tr4srnR3wWBM+bdUePKV00Klp6XDaaTPDeEw6ayl1R7OAAAAAAAAAAAAAByHsAJGF1OXUXdlQXYH2VnrO7/uqxnmOT5HgRxrEg0BzIxJDviFVcB2AjkIvXEhdPX39zpNt0BRJnOGVh1a2n+LEIgHeh8im/jukZrvjE7KQ+WVQePW8qA6urRzgCU8QCjvLL7Uvzt1+3TewTcaO4pv5pk3RlBuwyPlHf7zC5HPsLJ3NnVGa9gl5BSjOS3IVvqf3fX/4zdjvUYXZH2EZgAAAAAAAAAAAAAAAZKK/oxiWMzyvDjdOLrQNCfSOu7oA307eLkTGyKEANaI6x3HQKo+3F+ZBjxvSAAAAAAAAAAAAAAAAAAAAAAAAAAAAAAAAAAAAAAAAAAAAAAAAAAAAAAAAA=;" vertex="1" parent="1">
          <mxGeometry x="530" y="95" width="20" height="20" as="geometry" />
        </mxCell>
        <mxCell id="WnzjhXwsgpQ9HhIkCpvY-61" value="" style="rounded=1;whiteSpace=wrap;html=1;arcSize=6;" vertex="1" parent="1">
          <mxGeometry x="302.5" y="120" width="357.5" height="193.85" as="geometry" />
        </mxCell>
        <mxCell id="WnzjhXwsgpQ9HhIkCpvY-62" value="" style="shape=image;verticalLabelPosition=bottom;labelBackgroundColor=default;verticalAlign=top;aspect=fixed;imageAspect=0;image=data:image/png,iVBORw0KGgoAAAANSUhEUgAAAdsAAAIICAYAAAAmOEQoAAAAAXNSR0IArs4c6QAAIABJREFUeF7svQm8HUWV+H/qvvcSwr7vOwEd0fm5jI77BEgICeq4/Ikb4zJqorihOCPqqE8WISsqso7jrqi4jAtbWBIQFzZxkIA7IpAAImtClvfurf/n3u7b3VV1TtWp6u57+97X+XzG4d2u9dSp8z2nuqpaQP2vlkAtAacEZo2Pj46MvXiXpmjuNAJyt5GG2LEFje3EZHN7OSK2AwnbC4DtW9DaQYjG1lLKGRJgRgPkVrIFWwsBMyTIrQHEGAgYAQmjEuQYSDkKIBoAMAoADQliMmqMbP9f9N8SQABMSIBN0W9iI0iYANH5ewvIxkaA1gYQjScA5HqQrQ0tEOsbQq5vNWGDBHgUoPXo6Ojoo63JLY83RluPNJ5oPnrV4gWPxxU5+18nqCVQSyCfBES+7HXuWgKDK4HnXHDz2E6PPLKXlGKPEQl7gJC7N6G1RwMae4OAvUHKvYWUu0kBuwHA9m38Kf86Pxi/JqgEiT9LypCSyB2Xq2VHS0N+VErFG91twkRLyr8JIR6QEh4E2XqgIcS6lpDrBIgHGyAe3DIp7x8bEQ+sHn/5Q4M70nXLawn0XwI1bPs/BnULSpLAceNrpj08fd2+YlTuL1pyP5CwnxCNg6WQh4gWHAwA+0qQ7agSgagKUn/Q0iCOaNx30Gq+AErt1C+A1iQIcRcA/BmkvEtI8edWA+5pNOV9E1Ku3Wd04p6LxxdsKWko62JrCQy8BGrYDvwQ1h2Ys3jl3iONxgEgxYFStg6XQjwNJDwNAGYCyBEzGo1+IXGXcCcFkIIiZ0TrBq01Jg6MaJUe2SNaJOimK+XKSYK8W0q4QwhxuwS4E1pwTwMm795m963/etn75m+uNbWWwFSWQA3bqTz6A9b3Wct+vOvIxIyDRkXjINGQz5UAz5FCPldI2LbbFXXllo7WuAAxoFg2aLUKuUvHhYI20waunByRfzuO/4MAcaOUcDOA/F1zcuSPWw7a5+5bFv3TxICpYd3cWgJBEqhhGyS2OlPZEpi74vKdYWJsJgA8RTbg6AbAEVLCPmq9qonng5aIK1kRLZ43zWp7Tys7r3jpFOZDR4AaiyODRAedzdfINoeEJyf/JfYkx0YJ8lop5WWNxugNG7ds+e0tixc8VrZu1eXXEuiHBGrY9kPqdZ2KBMbHZePGba/ZryXETNEScyTI1wiAmW2EIPxLAJMtpJ+gTZBk3RBVFmgzMW0fQOsf+Vs3jTUB5CpowZdajcYNPz/tVX+qp0otgWGRQA3bYRnJAevH/CWr9oRG67CmbLyqAfJ4ANhVgWcwaJFoLLbv0f+zbQQi3tGmNEWlHK0sWyGSf0MUUbzHzmP2hqhgOeVdYm+PeTa4l/JeCc0zoSWu+MWZC/44YCpeN7eWgCKBGra1QvREAgsvuHnsrsc2HChGmi8ZgcaJIFvPoNlX4LLoMICW9BEyBPbaEGVzOIiNY6wldtwjSBlsX2JXQKtppZCtu5pCvF+MtX72i/EFD/dEaetKagkUKIEatgUKsy5KlUAbsGsf23BgUzRfB0KcBAA7RCkUAiqZ7EvHKnWc7x8VFpUV0RIk7PaqpCM+4RuiygItLgcuaNsq0SInkPouW7bg/JGtxNLrx199F4BwLCnUs7KWQDUkUMO2GuMwVK2Ye9Z1ezUmJv4/0WicDgDbqdaQBm1bCC0LiLNLwE7QKkwn12BjuRPLx85lUffSMY1ixmYoMnPou2wyRI5dIJ6c8CDazJsGw/aI1ge0Sg9E6xYhW285etpr7xgfFzSrh2p21Z0ZVAnUsB3UkatYu2eNr9pq+ozWP46MjnwNpDwsCey0uDUb2OpdSECLMkFDtvInHa1xj64YVTpB64ho423HloVV5fUxmo74EVnRzYgy4zg4lpazY8GVExe0iXQYm8a4Ea0q8azTJv/SbLVeecCfG7dffPGCZsWmRt2cWgIdCdSwrRUhlwResfj67SbGmgtByjNE565ftTgjZiQAohhcByT6ufPYZ1mUC1qGb5FE4OWA1h7xdr2CYkGb3qJFyslfl37bGhGvuOHU1/wRRL28nGti15kLl0AN28JFOjUKPO6cVduu39Q4VQj5fpBtp822LGpfOg4/4oNAQqmKjniVJWl9yIio1mdZlF44ZSwfE5mT6NMRBvstsfNA6x/525aOo9LoDVGmvmjrGtGIocMrQbbgshkzxt6wevxVj06N2Vj3chAkUMN2EEapQm2c97lLp8PENp8SID+cNmv4QctbFh2sO48jVgU4JIQzksqIKDdRGBto47yZZnFBq28aE9B6775/apxXLy1XyIBM4abUsJ3Cg+/VdSnFvBWrFwgQ31Lz5YxCuoXljdYU4xwAEJUUhmgivjiitZJ2HpdxljaOLU0VQNaplV5b1rF9lti572lDQZtxBB9pjYrn3HjagvZHFOp/tQT6JoEatn0T/eBUfPTSn+0+KibuAQHTUOscGIUkBrcPoDViL2e01h/QTuUjPuoY2V5FMM5li9anf3nG6z82OLOubumwSaCG7bCNaKH9kWLe8uuWNAA+iH6KTntP6xOFcEFrBpR01MrdUesPWiOHFtyTC7LRMq3WZIdvkSm7wCM+rshf6SLRH8IhSYNdm0MSyYEb0RYK2mT1RP51Ahr/WN+/XKiRqAtjSqCGLVNQUy3ZUZ++apfp00fvBOh8OB35p100oKSwRyHl7DwmDD1rWRTP67Msaimh/0d8SgRtAsWeHPHB1lXsupbNETdxCzTlghuWve6HU21O1/3trwRq2PZX/pWsfe6Sq14yOjJ6hQSYwQGtTxRSDmiJyJMFWjwvC7Sx9abjOUZUS4S5llejyqYm587jvoOWccRHGwLuCkmOd9ktgNbZNyx+w4mVnIB1o4ZSAjVsh3JYwzt17IrVJwDA56QE9aPrSZFDsvPYQjOfZdHiQVvgV3wCQGu4HgW9yw6L/OmoNRy0aQ+llNfO3/p3R46Pj9e3T4WbjDonUwI1bJmCmgrJ5n/mp2eIZvNkIk5kvH+0G0eab1osY1hm7QelGsSMuyLadO2TWiB37Dz2+1weEbwSdSuE1NLY5ETLoZ/vstut4jok3Ig2fNMYqtm/bWxpPPsXZy3YOBXmeN3H/kmghm3/ZF+pmuctv+5zDdF6L/1xcxOkXOM4eB8XoPHQ3fDEBQjpuKBsLB60Uf0BDokr8rdEvB3Fjte3uRuiuLpUMGi7nsD9csPmp994zpv/XqlJWTdmqCRQw3aohjOsM8cuW/0JaMCnaNDGyCBZQEe0bWvG3Xmc+/1j6RFteZdWFAqREiP/VMRuh4QLWtUhseuSxQfwe5edqTQqs/V3Aa1n3rDk+HvDZlGdq5aAXQI1bKe4hsxfturtoiH+u9+gzQRD8YhUd1kUVxnGZihLmEtDxLZ0jBToAq2SJUpsSNoStUaPhg20SX8eXi9HDr9j6YL7p7hZqLtfggRq2JYg1EEp8tgVq18C0LgKZGta2LIoM6KlLXoiqt58XADvZcoWC0Rct0NpfURLIn4sLFpTVh6IvmiVlQHadpmkpLUH6Z82XcqzaczXIZEPjUw8+ZRfnPX2+gP1g2LIBqSdNWwHZKCKbua8z126fWNy69+DhD3KAK1icHGL3mPQ4mElF7RkUNqNDUmI0IF6VKbdYekKKfcSOxLRGn3KFdEyjvhYZUTLoYidx6myRf9FxPTxA3nv+m1GD7ljfMGWouddXd7UlUAN2yk69vNXrP6ekPBqGiL1EZ/ELJuiUAlaMmg7Y6TUgbhHCat4Ea0/aO3uRruB1ojWGvn3FrSKk5Od/9moX8JtN277+2dBfSxoilrI4rtdw7Z4mVa+xGOXXvc6aLQusoI2h3Gkl0VVEHCjNXsUoja0rGVRfFDD39OGR2uDBtp4fJQlboRwqI/Qw+sqMaWVcMmNy97wsspP6LqBAyGBGrYDMUzFNXLe5/4wXUyu/YOQcj/yvVopoNWg6Fhazr70Czq6klRn6WX9FZ/My1VTTqwl9nhnHXfnseZuJYsHpoYXCNqM6nHPHKfslafetOyNnyhuBtYlTVUJ1LCdYiM/b/m1pzVAfoxYbDQurvAxjvURH02ZKhitcSP/DGwsM8Tv4wI+ukSvjpjrMUUvsWsympBN8c83r3j9rVPMVNTdLVgCNWwLFmiVi3vF4uu3a44175VSbs9ZFvUxjoWBNiAKMcxvGpIZ3WRFa66dx5o1JpiKiLgi0Vq3ZU450S5Z93IPbkSrrWtYIlr+prFOmUoTbUvsJqQ7jUCobhYpn9iw7diu9YapKlu36rethm31x6iwFh674tplUsqTOKD1MY4tdc3XGt71yDiiXeSCljDL6HWVaFrviFaTtmuJXXFIeBDhRrRJaX05S5sHtIgc4k5H/48GcfYZAtpIlwRcfdPSN84ubDLWBU05CdSwnSJDftz4d6Zt2G739u04yCfzwncelwFakPJJKeQGCUIAiG0EyOjrQ6woBDesLNDG7x/xeE6x3JT5Jg6YMj5uHuuhc9NY30E7TEd8UJcyGgkz6petpjzmlrOOXzlFTEbdzYIlUMO2YIFWtbj5y1ctAhDnm+0LB639zmNtEZqO1h4GKVZJaP1UtOQvR7Y077xsfP7j2XYee8ZPd9osNh3ekK0XtABeCiCOagOYG635vH/kgpYf0eaJ1kpbFkXVlOuQtB0Crpy4ryLCd2fTEW30JDSiRUd48qa7/3cruPjiZlXned2u6kqghm11x6bQls1fvvo6AHiJWqgrWjOfd/PnAq3ovBS9HqQ4d4dbHr744osX+Bmv8fHG0TNe8NZmC94lAJ5DRCJJVyOIuN8/0imqdsQHj955kb8Fk2Y0p+mg7IiRKycuaMu4F5oErSI6YoHZJgcJX7hp+RvfUejkrAubEhKoYTsFhvlVn75ql83TRx/qDWhVECDLojdLIU+88j+P/lkRoj/i0ytfMSLkEpDyKVh5btCW93GB8GjNFo0VHq1lVkxtDkkkJ+6GqDJAa/pMtsif6Iv2KoK7OpJotZTQmNbc9cYz6i8EFTF/p1IZNWynwGgfs3z1pxsAHzFgm7E0fOMIkLynRe1Z+qMKWrFRgPz4FR+evbwMkR91+mVLhBAnAsBYGn27IloGaLUg0tHlTNcK3HmsjFPAsmhKCkP0KXuKA63mbkV1EoLT2GdE0tkfit5cFwLaaBe2+M3Ny9/4/0AIh9DK0PS6zEGVQA3bQR05j3bPW776pwLgxWkWdS0wCLSoAdVKiv+UIO6W0Jp31Yfn3OnRbO+kR3x65YtGoHUJAOyQrgRa7KHriE8VQJtpg/eFDKrXgcqTG/lzI1o+aAftXXZbUqkubRHy4NuWvekubyWtM0xZCdSwHfKhf9r4mmkHbve3DQAwmoQYGn8ysaglCslEtB6gBYDfbWxueclPPzr/b70Q9ewzr9xBtiZ/C1LsaXu72H2Hi6M48RKSJhcT0WoowkMrVUxKU9xRbVi0ZhkZj6XjIND66VLcUFyBo1/dMjJSpZ6ZIYg08jbcjbtuXnb8IXV024tZPRx11LAdjnEke/GypatmtRpiVV7QBm2IEuJPY82Nz73kIy97pJdinjW+aqvG6MZ7hBC74uEcaZZTY60s3SKlEAFzYV/xUSLakiDiuq6yvZe35zuPPR0ST2fEB7RJWonH9UJO7H/Tin+/p5e6Xdc1uBKoYTu4Y8dq+bzlq78vAF7VvfEnm4kb0QaBFuCJEdjytMs+PL99trfn/+aM/3Dv1ti03wPANkao6LGjlhF4JcVzQRsf5800i47GSovWLNFc1zErA7T2ncdhoI1yhUa0hCOTHLWlF9ABxFU3Lz/+aPLzvT3X+rrCKkughm2VR6eAts1fvup6AHhRpygyWjOXTbtV20FLGEcBEpqN5678yJG3FNCF4CJmn37pv0sQX+jc/9MVQNmgZdC56I0+RpWuZVEGaNu6wn1Pq2KO1qVKgTYRmuVFAhHRpt6VhM0b1+/8m/NO6OnKTfCEqDP2VQI1bPsq/tIrF/OXr34UQG4fAtq2cQy88/jclR+e/e7Se8eo4KjTL/s+dCJ7xs5j8l12XJFr6bhA0JYRraWMJTqSeFi9PuJjCo7vkJCDogxa2Ltsi5zizXVNKd/y67Pe/BWGKtZJprgEatgOsQLMXXH5ziNy+t/DQBt6xEdu2bJxdJfV40esr4Jon7Pw5rEdD/jbEyDldNp0mtEYmpb4Md1Eo/dYi/lwi59mUlYeioVI2sbiQKutaySLB+a486+rjH2iTBH5l9jLAG237xJka/vt75q+enx8sgr6XrehuhKoYVvdscndsmMXrz5CjshrkoBFKdG23Be88xiElC+74uQ57eM3lfl31OmXXSClXIg3qCKgzZCrPuKDa2znV2W4Qt/T2paO289sDkn0HiKbYqQBB99YHwOqzHyvakNq2FZ1ZApo1/xl154H0HqnabrKAS2AbO4w9sh2F39wwcYCml9YEbPGV402xjZuAgkjaqFlgVaL+VwRbQBEwqI1i0jjZVESQ9qD9E+7LrE3jaH3j+CVRr+WANpOsbYNUSZoo5a03vOrFW85pzCFrQsaSgnUsB3KYY06NX/Z6qsB5JGa6Y8ekquUoTcftfOJxVd+ePbJVRTpkadd9lUA+W9p2wYXtMbwdbriitZso9KPIz5hS+xlgDaRXgBoo7yy9at7ZkwD3zu+qzhR6jaVJoEatqWJtv8Fd3YiS3iRTxSSvtvT288wjo3WwSv/Y24lb9U58tRLjwYBVyieBhmtxX1H+dXf94/+oLV4VrHXVcbHBcLvhUbamxmH/hzxcW+ua22Z3OfWz79tbf9nfd2Cqkqghm1VR6aAds1fds0aCeJptmiu+yzoiE9ScOc9V3OHmx+d7v0FnwL6ySlifHy8cd3o8+KvCzG+4mOJ/OmVAZtDYlv2zHNO1BbR9ge0g/QVn2hRwLZ07AZt55hUU86+9XNvuZqji3WaqSmBGrZDPO7zlq1qf+lnF1s0Fy+DYV9ny0gmExvT7x9/s/LDc/6xyuI84rRLLxcg5+orrkQAa3QlPForC7Q4TNNVZcJjSDysXh/xMdszKEd8cL1OnTYpxDm/WvGm91RZ/+u29VcCNWz7K//yapdSzFu+uh3JCW0Lp1Fn2Fd8NEPfar1u5Ufmfru8DuUv+cjTLjkPJCQbxsi4D2WjspapNYaxxK43P3llTIbQcQ7iLSXxnjZ9DVAcaFU5JQ1HBqS/S+y4H2iL/DsrMrRixZ4AWYL6oHnwvTMqu7KTf/bUJeSVQA3bvBKsaP72hfxjo6PtCy2UwFZvbgJalDz8ZdHJiS0HXvNfx95dUXF0mnXkaZcuBSk/lAR2WGOJMDeFmD0T8v1eM0NJoE2G0HXncdkfF2AsFTjlpKitbWUgs+qSlTThjKRq3o5KbQ4JvvNYmUya/zU2ObLDDWcf/3iV50Ddtv5JoIZt/2Rfas1Hn3bFfiNbjf21UwlhU4oCbbuKERjd77IPH9GXe5C5gpx12qVvbEj5dVIk3qDNE9ESrdCoHhatWSRS9hEfb6cNyVAiaFOHxP+ITypV/BOVsjFy+K3Lj7+Dq491uqklgRq2Qzrexyy+7CliZPpviz/igxvHycnGvtf811H3VVmcs0+9bFYLWp0vIOEQ01vPXxZ1RmqZSomF4UyjAqM1RkRLL5yaKyCaK6EEdWoQqYV4ihg9HRKlqGIj2jJB2y671Wod/evPvvXKKs+Bum39k0AN2/7JvtSa5y65+tkNIdAPAQR+xSdur2YA4z8HAbZHnnbJS0HCtUWDtmPElUJpSJQHWssSRmfkbGdp47wkM00QZ6M8LRjP6HU/QEvLIVpZzr/zuNtB3RmRAt5864q3fLXUiV0XPrASqGE7sENnb/i8ZavngWxdisVqtHFUDZUzWstYmxExsV+/PqfHHcIjTrlkAQhQN3ERS+zhNx+VBVocIhFA3KDt/Vd8PEGb6UK511USAx57TPRT23Gx2IVqwedv/exb3svVxzrd1JJADdshHe+5K655Q6MJ31C7F/wVH3PhVVvukyAOuOrkOdE74or+O+KUn5wOQnxUaR7KxtBlUduyZ56ztIMGWrO9/Mif9H7iYSPWBiwOR/So/b/lgbZzX7IUP7/1s2+OPmdZ/6sloEmghu2QqsQxy645QUhQ7mst5IhPV17JymL8Hy049sqPHm1E0lUS7xGnXnougHxX0qZCQYsAUXNIUFloywxGkwiIpNksAIlvzOd+l1btQTLASLP577ITztmF3nlKYNR4l82VUVImA7S4OxP/qlWY/qnKSEpYf+tn37JdlXS+bkt1JFDDtjpjUWhLjlm6+j8EtJZ0Cy1y53F6mkixQtdfefLRLym0EwUXdsSpl/4QQL4iY9m1GkLvhSZMte6Q6P0JBK0KEUpI0bJn8aDNROgo59Uf+RGtXYbZqFSpIW9EGzskuMtiOhxa7yLhZ3781X1bj9Z3JBc8cYekuBq2QzKQejfmLbvmoyDh9Pbv5YDWMI6bXrRpzjbj48KxA6VPAh8fbxwx8rwNAHIrfDWxLNDyIBIWrVlkGXzEJ9PeHkX+3IjWkKQLtJ0MxR/xUQiryUg8uXnaLRcumuiTltfVVlgCNWwrPDh5mnbM0lWfFCDHy9h5TBlHMSb3X3nS3HvytLusvEee9pMXSil+5g9a1cQ7N40ZrEKJFXfTWJDM2HFLrOU64mPdeewfrXXHJPy6SsThyHSvPx8XsF1aEbdXaWNWM+kl9k07bj39jvEFW8rS47rcwZVADdvBHTtry+cuveoUAeLj2kplJo9tuY82jo4o5ENXfuTo5VUU6RGnXvJVkJD5xF7aSu7O42qAloiUk+7UR3yigLe8Iz4dUeO+EOzR3H2ry86ev7mKc6BuU38lUMO2v/IvrfY2bAHEx2nDkImq8DXMLI2yptxsc5r/yYnNY7usHj9iU2kdCyh41vj4qGg87xEAua2enQvajn01XxaqxZUYraUrpoSV7w60x3ta1/tHxB1x3gbi55AQfdE8xLAldouc4iV2XJXcR3yoOdXWpT2be9SwDZijUyFLDdshHeUEtqjNKQW0kbsvReV2Jc865ZJTBcB/kaBFIxVb5G9bGi7piI9Je8Tp4X/FR+0yvSxq/1yeKTiuQ+JYIaH3Jqdeh9H/6FH7f3sP2q6catgOqUEtoFs1bAsQYhWL6MBWxpGt0kD1RRQa3WTTJ3aYF4UAwAYxCnus/I+5G6ogl3nvvXT6pt1k+6PeO6vdUuVAhqiciDbDnHIvZLBItJSPC2i9cayADAJoUb8qsyqAqH78E88hqWFbhVlfzTbUsK3muORuFQ7bsGiNG4UkhkzAx686ee5puTtRQAGzPnXJt4SA1+ow1VYqM49tMiJMtadDErYs2mvQahG6F2gROSmssq0MZFZdDPLhDl+inwV/xSetngfa9jmrPWW9jFzAtB3KImrYDuWwApiw7RFo2/IUQspm85lXf2zebf0U76zxS44RDbisN6C1g5i8soG1LGoHLb1wanv/qITjRgVl7Dz2dtp8YNvjIz5R0zJSivdj1bDt54yvdt01bKs9PsGtU2HrGa0pK6yhUQg8Njlt2szVHzrioeBO5Mj40vYnBmXzVpByl2yEQke0GiwNTtFyCIaIC7SdJlneP/bliI8qJ+eGqLy6lFRniWr7AtoMajMbn2vY5pi0Q561hu2QDnAK24JBq9haAjMxRCSIW0SjcdRVJ895rJdifvHJ39hpbOsdbwWAAwYRtClfQkEbl6CAzggTiX1E/KsYqw/ayFmhpZhv53Ec3CpyrGHby5k+WHXVsB2s8WK3FoNtbuPoAdqkoUL8cjpMzL/kIy97hN34HAlnjV+yp2jIGwDE/ipe7O/dlLSO95PpdZVaNNwtBAmflSLt4XX8ER87aH2uYtTcraiVaPEFgjZTB3fTmNEsV+Tfp53HynExTY41bHNM3iHPWsN2SAc4gi1E52zR1UjNSriW+0JAm8hW/rnVlEdf8/H5fypT3C895ZJnjACsLm7nMUIlhdnBS+zk8ZSILzbQRs+5dx4HgRaFsW2FxLbETvSF5ZDYlo7bzyxyKimiTRaP0eol7CnXb3XZ2e+rL7Uoc6IPaNk1bAd04FzNzsLWGdH2IgoBaEKr9ebm5Ixvrx4/YtLVfp/n4+OycZ34ydtko3EeSBhBI1pvgNCgjZ7wIIIHyS6IWHrvAVq1B7bIPs/OYxtoiRCaBVo8b+qM2EFLBu/qskTkiCritsnJ3BCVZo3y1bD1mblTK20N2yEdbxq2ZRlHG0AUk3ZTa0S8ddXJx9xhD014A/PSU374rBEY+QmA2NvMUeDHBUqN/Lvffy8uovUBrf3iCltEW0LknxRpyiJldOjHBXCQpjWFgjaVQw1b3rydiqlq2A7pqHdhy71ogIzWckchRIQixA2jIN6/Zctja1aPL1jvMwwvWvzD7UY3T3u6gMmvCtGY6f/+UTPkXjuP+xfRtmWEYyb8iM+ggDZlcCho4xIUpymrdczIH60+LbSGrc9Mnlppa9gO6Xi3YStb6TvbqJsmZLrdt395Jc3LXRZNGW2L1jqQaEkh/ldONi9sNsZ+35ix5QlYv3ETwG7dpebRGdM2ztgiWtuJLeIZzYZYCCDnJ8OGFs/f6BN/zjSjBX2I/DvidcqJBq02tEHLooQcE/3ABz6Vmyvydzltloh2UEDbkgAbYP1Wf6zf2Q6pVc3XrRq2+eRX2dxzF191ioQsbD1BqxjwKC8XtKlxdAOETuGK1uhFaO7HBfzeZeMReioUYzEy499Ye5kDtHmiNb5D4pRT30Gb54hPZlxRPyvzoxHVqhlq2FbWHFaiYTVsKzEMxTdChW01QUvgK/6ggSoTV2BlROiOSA0PJnE5Ea5GxvuwgRbvpUfkX+7OY2852SJ/wqnQolp/p60tQ8vycUk7j5XVHgZo262sI9vibdmwlFjDdlhGUutHCtv8oDVw0SkSN6zRI1tEy4hCtOIZPIgjbyXE0iTHYVXCAAAgAElEQVSilsKN1voHWr8jPqrI4r4SglN+dngx3Hf+XDkNCmixqxhThTIj2u6zGrZDalAL6FYN2wKEWMUiItjK5Jxt0sbEDvOiEH/Q0iCOiGi70SfOa2MmUXwZd/lGVdGRXNbh8IeI2yHhnqUdbNBaIv+OiOwRrdXto/3M1Fl0OSTMiLaGbRWtYLXaVMO2WuNRWGvmLl55iux+PL5bqhLwBEDEGdH2B7Rl7KglQat0kYjnnHLqB2jznKVFxjWvLiVFmrJIfgm+89iM7LV1jWhGeINWzdR+R6v+k7ABNtQbpAqzYsNVUA3b4RrPpDcGbPMax9QCGhJL2WKBSLweSadQN0QRdhAZrQLP0mZsaT8vraDjuXCI2CN/LTbGw/RU9nl1yQLa9FG1j/hgoG23vYbtkBrUArpVw7YAIVaxCAW2LuOYI1pLGWyL1iKQckGLBh2uKMRBZ+c7WgW0RNijORw4k/BeshyS+is+8b3QNtC6XkXYnDbTWcnO3ZANUXqIXMO2itawGm2qYVuNcSi8FQlsSwRtGoX0A7SZZdE+gNbAsXPpmAB4MvKys6+M65AELYvmlVMmf3nvsosDrRavG5F50aCtI9vCzdhQFVjDdqiGM+1MB7ZSpB8i6ONdvlyA8CPaPO8fkda4HBJkCV0pJe8Se6fjJX9cgLEuz995TIxo7si/XYDFcSvpiE/ozmOsrXVkO6QGtYBu1bAtQIhVLGLuGStPkSKCLff9o3+0ZotoGct9WoUMHnREHb7zmAYtKScXaNPw3lCDNKtbTqXuPGYIlg9aIkLvAWjptYHw79K6vuKTHVTqPW1mcQI2iHqDVBXtYRXaVMO2CqNQQhu6sC0PtI5lUVcUEgja8J3HJYDWEtGmDO4HaPlL7HFQndHAsiJ/XA7R6rsjoo1f+FtKUILMoCV2x53HHNC2u1LDtgRjNiRF1rAdkoHUu9GGbasT2dogkz4rdFm03nnM+AB8GvmTENEeGKNFrubGD7wjWsSBUooK0CWT5tlAMPrvATzio8y3jFhq2A6pQS2gWzVsCxBiFYuYc8bKU0DoHyLIvhIrCbTWKCQ25hnjxOBBLN4C7/LNMIUb+RvtjEIydOjTaM2mGbYNUSYsudFa+BJ7b0GbRv6DecTH9Bii1YQnxZP1OdsqGsQKtKmGbQUGoYwmoLBFwlcuRNIVU9uyaH3EJ2WwXU5l7Dwu4yxtBMXQiNblkBS385jrjCj9QVev1ZLU5WNaDl0Z1bAtw5oNR5k1bIdjHI1e2GEbGQ0uaNMopB+g5b9/LOMsrSEnZ0RLAyYapCE44qN0MVSXigOtKnH7sonyRSh8AiRziQ/atAU1bIfUoBbQrRq2BQixikUYsE1D0xJAy9h5rBk27vJx+LKoLQohgKjJqAzQtj0c7s5jfrTGX2Lv9AlZ4VB0OFnFJpyrQnTJ4ri5NteRutRf0LZlWMO2itawGm2qYVuNcSi8FQpsc0PEFtEyQKtRa3BBi0Oat8Tud5YWjdYIwdnZqSGbDVqeQxK2OmIHLb02UJ0jPmkb1b7UsC3clA1NgTVsh2Yo1Y4ksM0NWseyaElf8amP+HTHMwkzUU0Nj/yRcVWqolcGyK8dOZfY2wlsjpvtnb8ph6DI33HEx3yXjofR0a9mX2rYDqlBLaBbNWwLEGIVi+jAFrq7kVOjgAc2ptFI7WZoFBIbI/vKnvvLK3jolIjc+Z5WqZ/oi+aQcKM1n4iWxgwjWiObbROuLaItAbTm+nQ6Ronf0I+dxxl3pCDQRtLDB6WGbRWtYTXaVMO2GuNQeCtS2AaC1mI8o8b67TxGTRPxIxKMZ+ST6Y8DxNngo29HfOLIHzfN4dFaGREtCRFkQLgOSYL14LO0LqfNlGF2MiVy6gFo21PiyUZ99KdwYzYkBdawHZKB1Lsx5/SVp0CjHdkSC15p6GpIIHpkiWg9QYsuuOUErfkVIaRAxQ7Tz8uRUYwu8uMC4aC1L7Gr0s4d+ZcOWsY7fzKAZ4IWXVZQ9YG/85hcZujMoxq2Q2pQC+hWDdsChFjFIiLYyvhuZK2FlQQt/4hPGaA1HIJcMkqjsX7uPHaCNtNpbuQfJieL4zZAO485kf+TjY31pRZVNIgVaFMN2woMQhlNmHP65adAQ3zcf7nPFtGmES+5LKo94Kz0GkbMkckJEc+I1gcg6bKoW06lgpaxXFD0ER8fOaWrI2WAVvESkOkTuw7eES0iVCWqdq+O1LAtw5oNR5k1bIdjHI1eoLB1RmuoBU/Ltt557FoWjYtB7RW5Tmjs+OSClhOFdDumNAlZNs0KN4WIRXE8PpenSty2LKrFnl4OCQ2J6IkbImWAltY226YxJmjbyQxvx7Z0bJcDN/KvYTukBrWAbtWwLUCIVSyiDVvZSL9nG9+MjzY1ZbA9CrGjWDWQaEnEjzTf1AxTF7Sa61AJ0OLawIpoK/AVH+cRH4XpxLzQFLf958Z6GbmK5rASbaphW4lhKL4RR51++SmiC9tSI9rYKtmCU5LStpuPPEEbaBwVyTvlZHFGOvVH/cFTFRSteYEWEbwSPAdEtEmRZt6UPcUd8QmK/PPuPDaCZ7ecuilq2BZvy4alxBq2wzKSWj8S2NJhYwqFAnceFxPRmpAo+v0jziwSkzFBbbAt5ys+w7Xz2O+4GB+0GSn1AbTZdtawHVKDWkC3atgWIMQqFqHC1gYRXrSG99EVrVFhXll3+RIhNLLc5xfR2hfQh+LjAohT5u+QlPVxASPU1IYv01Kv97R0xBo9cUe0eqoatlW0htVoUw3baoxD4a2Yu+LynWEz7FxEwZuLKEQpI1Ni8YU7W4tXaWnIJmeRxSZoiJUg4SDlCzVGDSkIcr/LVoiRKTdbp3OJPSdoNWppLxGilqDsKx60UVX+oG1n2ThSH/0pdjIMT2k1bIdnLOueDIkEXviRb/+uBeKwpDte72lt0RqxiuGKap2gbbfUAlvXWdpA0CpILCiizQPadt4atkMyCUvoRg3bEoRaF1lLII8Env+Rb/8OurAtDLRkaBg31RbR4nlTBttBS9SchqqZPnIjWh/QlrXzWBnjWBgbRzbVl1rkUf4hzlvDdogHt+7aYEogga0XaBGkxflD3z9mdtAZgkyD4dCdx0rjkCAefx4lLPDjAhmxcc/S2t5l17AdzDnXi1bXsO2FlOs6agl4SKADW5lZRo4Bky2C+542GLQJhPCl5yiQCwVtXLhWtBFbo1WXBVpe5G8DbbuEGrYeij7FktawnWIDXne3+hJ4/smZZWQs5nNEvNm9PUEbfSoL2uoc8Un9H3UwathWf371q4U1bPsl+breWgKEBEzYZmK+yoPW7ys+ZjxJLx8rjkNBG6KCI39i01gN23paUxKoYVvrRi2BiklAha0HaDPk4r5/NGBX9s5jculYabwxImWANqoRWatOX0gj6wrZI0hm3hq2FZtMFWpODdsKDUbdlFoCbQmksNX25ip/0pAYNtD67DxWv0trxs25l9gREHe1tv1oU70buZ7EhARq2NaqUUugYhKIYAvpOdv0y4ZxS22gRQCj/GRsQ4rKdEAkep7jiE9gRNtT0CJycG2IyqpODduKTaSKNaeGbcUGpG5OLQEdtv3ceZwyOHTnMf4Otuidx7kj2gJA2/4QxabRzfU523oKoxKoYVsrRi2BikkgC9t+gjbhT1+O+PB3HlcFtG151bCt2GSqUHNq2FZoMOqm1BJoS6ALWy5oIygGbPRJaYoKPtorFRrRxoWTy8f0rmOlP46v+DhBm4lYy32XHfWnhm09hykJ1LCtdaOWQMUk0IatlOo7W+MW/gzE+gPaPEd8lMYb0i9j53EvQFvDtmITqWLNqWGbGZDjviNHHrnrusNgpPkPDSn/oQHiIADYE6TcSwJsBwANASAkyFhutmMZyEgnzjwShbSTd7x4YgNLUhyeN4pCiHK7eRlRSjepI6BQOmfZW2P2x7WjNq6YNI6IHMwibTJKBE1MRdc3V9Wvz6hyskVr/JuPAGBfCTCWNnDq7DwuA7TBkT9r05g6NiGRrVx70othRHy1YmygmtNW+RYI8RhI+Vdotf4CDfg9tOStcN+GW8U/XTgxIP3oeTOnJGxnja/advo2jfkCWkeDkC8ACTsKgG0A5LYAYiQFjt14JgzDtyyitrI8D9sF2ui5BUPKQzQdavNtUYqagbssSrYUMX5c0CZ9tzokEWjphVP1+71a76LxJgRn9zFscrKBlqgwh5wip83hkLi+4qM1OUhOXpdWIHJQ1JKWYXbQ8Gls5k3Faz4Lgu0DJ80BECt7bv2Lr7AFAp4AKR4DkPdBs3kxNEa+IfZc9mDxVQ1eiVMCtvNPu/qA1vTGWxtCvlIKsSdI2BVARlAlGNXqPmBQR7XfNuNIVFaIcbTANm7gIIC2jCiEB9poZWBqgBZXfC5orU7bIIBW6QDh2qXCMKx69AifTVMctggB24JqPAhS/hak/Dzsufx7QlBWd/AA6tPioYXtMSuuflWj1TgBAJ4OAHtAZ/k3+y/+C5kzCWhRq1LFKCQUtHEHlSgAmy+YSmVidDwkSDJxI1o3aNMB4UYhZYBWVQtaj7pRE+JLxbKx6RIdrRF4QM/KKjXQDckcsw3dEIXLIa3fJif+Ervzc3mKLvOc2yJ1qYatAz8CHgUpb4Fm61Ni77N+6gOrQU87VLCdt2L1y0ULTgQhnwMSdkDQqhq5HoHWDRHDJHXtNGqUU4DQMUYnozWi7Q1o21YcdXJQv6cs4+iWEzeiRUFLFl+8QxIMWlVpDLsVRWuhoDV1ycchSaTk2ChQBmiNoQuMaLsCrWHrQqLi8f0JQFwIuy9bNhWi3YGH7bzPXbebmGieASDmA8BeHdOu2WxuRNvOmMz3CkdrqbpaItpYDnQKl5wY7x/RwtUwmQ9aglhaNFZkFNJ1SNpl4nKyyUjtp2libKDVUOTQtdxXDOYGbQE7j0k/Kn7A2JGnHvNBCkyCZ57T5g9ah9MWePRHDs87WwdpMcPc+e1+EHAu7L7itGGG7sDC9qilq1+wVUOcKgGOAJANJRQk7WAyGxHPvvgohIxolTlLxCq5PGzXjtpQ0GbOc/YBtP7G0eaMxKNjiiLWDVNXfJw2zUfQ9C0tqbgl9kyZunY7dckW0eYBbWbEUDZmfvTaEGUDLc9p89clN2jbKerIluKtDlpsbsq7odX8uNj7c19zxceD+HzgYDt/2fVzJEyeLgQ8VxU4DlLDBBGTvmfGsXTQ5jWO9KaxxB1xgRbdP4J5td2Ikjae5FEoF0A6crbBVnYe0ykK2HnsLScbRMqK1trlWuRU0s7jQT/iQxn7Graop5f+SM7bjAWW8lqYmHyj2P/zawcRqlSbBwa2xy6/9oUA8iwJ8Dy8M4wlP8KmcHce545CEND6e9iOaG2Adh5HPSkWtEmJ/QYt2jUtNlb+7Ee01h/Q9vTjAogXbUiaAECa1THnMgaphm3WOmMOti5LTLad3zYCND8q9jz7M8MC3MrDdv6yqw+AxsjZQsLLuVGIaufiXC7QDoRxdCxlDRBoo56EgpaWQ2Q37RFtOWdptf7gFj2xG/zjYnkcEjxvKiN7ROuQsuVctm3Oaa9rLHJybojKNJB7fp0LWp7TZmKghi2lryRUNSFqHqiUl8LDa18tDr94y6BDt7KwnTW+aqttdhj5qJTyZCHlWBholdlojFV9xMem591nw/Qu2+8srY/TpqDWC7SIcVJYFeCQpKQwdD6N1kJ3HuMgTVvZD9DyHJKyQdtuRQ3bXNFsqq/JakNnxfI+GJl4qdjjvD8PMnArCdvOkrEQXwKQh7WjlDJA2y41NTz6EKo1cqOQMqK1ROcc79XsMa/t/WPcd1TI/B21ZkBJQ6K8KMQd+ec64kMqYqguBYAWAak/REJBG1eO2dOOGk1t0Naw1RUjIJpNshg6Ogmt5nyxzzlXDipwKwXbl4//eOvWttueAo3GSdHcjSSP2zjXjlp64oeDljaOwaBlRSG0u9GVU7hDUsARH2Pl1gbasqIQN2jbrfLXJRtAtFEnHJaucSjunb8RRyIRgWmSIsetrJ3Hdjkpm+tw7yBpMP+ID0+XjFSpB2sIieXcWqz91IxsOdEsNT8zebPRLD4y7dvp3yT2GMzdypWB7fzlPz1MiNa3AeCZkZxtx1fMia3FokkR+pjZQasqhNM4Ks48gbvkZ8JxcE78foDW44hPCaAt3DjGqyMkaLUKubpkXzr21CXF5th0CW1dRt8tvcwL2kA5lbHzmHTDtflWuC5ZQNt+NPVgywEtppNUPj0tkle03gF7nvM/wrqN3jFQfXhcCdgeu+K614GA/wEptw4BrWbWSNDaL63wNI4KaHkeNu7Q24yjG7SUv+i+3INxxActXDP2jihFXVlE+uMyjp02WDHp3BBVH/HpytCiT67XNRUCbdSUAF1CdK1rc1Of1zHnathmJKADkwHVbiBlCN4zb0u8Texz9hf7wMzgKvsK2+dccPPYnk9uOBUkfDjtQZ4LGeIBI+ZLYUd8AkDr72G7Jn2eyD+WNmqvlBALUaz0uTPyV4YjwDgmQgt1SMr6ik8Vdx67ZGQHrdVpCwRtf474pI3lOrcpg11zzm1np0Zkq0OW0h5dnlQ+RzoU0B0H8pVin3N+6B6VaqToG2znfe6X2zcmN18EAO1rFjOsDd0QVQxozUCKhkT0JAAiqRttaAHPwy4HtD1dFkWiDK5xTBnsMI6lfMWniqDF9TDSpfb/2uSUR5dsc852xEdtzyAe8aHM9/DDVgcmpluO35LH2P4BS17lUfxHA54v9jznhmrg1N6KvsB27lnX7TXSkpcIAc/yAm2ghz1UR3w87zxGzSzxI8K/rBeU/Dc3oo2GizD0WmX9BK2qVpmWoH6U7bkJEXX66YYqeko6bUrDiFSE45aKt955HAkY18PUISnGXA8vbLHJEApaygHUy8PmmpGmCSAOEXufc3cxI1heKT2H7dFLrz1obBSuAwn78kEbTxbSzsUPCONIQ8RmHNHCUuAER7SWKMQMq82Rd71bs7OCsDn1EZ8s9qgFi56epc0B2jTy7wdoM1LK+xWfjAxIhwSZ3MrM7SFo280dTthiTqIFjBkrqdr49l8FRLN6oRLWwhg8Rex+7vryUJm/5J7Cdu6KVTNHoXF9/H3ZtPW5PgVHg9a+ISosCul3tIb756YzgiIdzVwWaIloQjOORpOcxpGOUiJIRiXimAk/LtbTJfbSQZvn/mzbfNN2seODm8z7QT7iQ5ne4YOtDtoio1nKmuk6xqhTwkWw99/+TYiLm/mxWE4JPYNtJ6IdgZsAYBfVMSF91jhZ+IXwhX0uT/GwCQXJDREao12IFA/aITviEy+xk6DVOK25W0Zwm/EGLRegqIWWscRuuBdOhyTnWdpAOU2lIz7DD1tONIs5vlQ+z0gYWbHIzkdT/hKg1Xqz2PeCr5aDyvyl9gS2s5as2nOb0catALCn2uSydh7bvkvraRwV0JYVrblBS8dzrmht6hzxKefO47Iif57T5g9aOq53O21xbZmmcR2SMkAbtQaRE2KIlVQWQ50+csy5QNs6HJFtUdEspYuWSBUfyDTwMsZFi4Jb4lCx37l/DBy+UrOVDtt5n7t0+0Zz29+AlPv3BrTtJUTbUlc6ms4oJAC0/sbRNenz7BaldVQxYmgTPOSkiDvAOCZCw2URBXI2OfXgiI9DRmYTaTlETwLkFAkCNQjpI0tUW+LrmqRVXt+lRfqjgJ7nkBipCDmVDdp2bwYbtphOWsCoaKIycLGe6nkdZaUDhOg4kVf/WbTWwF7yWUJcOFEqOQMKLxW2Cy+4eey+9et/BUI83XRISj7ig9oldWS4dx6XaxzdEKFThN15XAZog6OQ3KD1+7iApgGpWqLs0w1IVov7oUs4bAcFtMN0xIeytYMLW20CoA4LA7ydJCVsgsLArjQn+0frPWKfC88J4GGpWUqErRTHLr/uShBwlDdoNZuCGkhk3Ms44hMMEcK7VtnSe9AO3kYfm4z8QKuqlQ2kec7S0tEa6bQpWYhUhD6lwUA/dh5n3LY+7Dw2NMM55xy6VICpHUzY6qBlQFVfnUmy6IpAyTz+PVXg8GjWWO2RACNjB4s9P39XAUNaWBGlwXb+ip+eIaB1sh9oY6tD2kF9gNRIo7ANUUr9aMgTV5w+w50sM29qD9wQoVOERbQ+oO2MBOk5qt0v7ywtHsklo+5xaYUPaOsjPl0J2+bb1D7iMxyRrQ5Zar7plgjL5xnNIg6mKlMC+C6blL5C/DHsc8G/CmG90aUwkHIKKgW285aven5DNH4OAGr5Jb4zKgy0GSUoGiKpE1ccaNHpgRZf1kYfYoJqHqt/FOIGbTuF/xEf0pNLPAja2VZ74Xzn73LackS06QpJzp3HmN3MRi2EqpaxISqqKtS5xRvKdm451pKRZnAiW33gCbiZ0VL6S5KFA1pq3jlATuoio71CHCP2Pv8KxrD1JEnhsJ01vmp0m+0bjwDAtoanYm6czSQp44iPFs/gFh91qIoGbWoc+wHaPEd8EAOoBDwlGMdOlTY52TZEmdGYhshovHM6JGWA1mhWSgrc5A3RV3yivpegSxYZlmFhqw9bTMYMcOmTppOFA9mMVivVeNTptNtEWe2Pzu+z9/5CjDs80jI0wSyzcNgeu+LaPwDATD5oTeOoIdJqHOmINg9oeR42rgM2D9sNWpID8RnSrFwJXiCGmfIqzdq4EIlKLNY48hySsnYe8yN/p4wU+0KMefJz+ty0RTZdooxdPPyum8a04QtySLx2Htt0JQ9ocT1MGeuYcwXb2erClpK//jsDgj0BLcYFRtt0R12Kt4v9Lvifgoc5qLhCYTvvrGtPa0j4GB+08UTRZGiYH2K+1Ed8tDFH55MNtJ4OiVJUKGit7kSOiNbUJT5A+JG/H2jzOCQuiIQe8TGNGF9Otg1Rainq7VB2ORS9ipT6Mb0FbbuX1YQtNleZ4Mo61EkWziYozO541GkkZToFejIB6+HJ6buKQ8/eHETIAjMVBttZ56zadpvNIw8DyDGlfS4PmwStEh4YXS5j53HUlFCI4BO782v6P8TQ+V3ugdZE/JgaHqzqjFvjUu6+g9Zv5zEfIHl2HtO6kk+XcoDW+qGKskBrOm2o/LMqmDSFAKKmuLh62uZc70FbTdhiBpYDPSxfP5aNOW2lXjt188oPiH2/8JkCuRlUVGGwPXb56ntBiH28QKvZFK6BLAO0UVNCQesyjraJ3w/Qmu0Z+p3HpE1XvAjrUgFfRnT0rt/76A+R+ohPL7/i42tVqxPZhkKWMsoc0GJziQlL9CIiTl5sI5CR7wmYmNhdHPTlTb7jWWT6QmA7f/m17xYCPt8L0IZ/XMAG0n6B1u9CeJQXxI9aYFAQRMqKQixw6jzKXL9paL/tukozklOz297Taq4fTsW0OKWqsuTUD9DWR3x8DG41YFskaDmQpVYhObCM87rmF7qjkQXaaGlRwvvFfl/4nM9YFp22ENgeu+La9nr4tKRx1iM+rrt8bQbSdudxmHEkI1rF/kdlc6OQFHS2iNYPtHT9ukrwN/rEHMsUQDskhAQyQvGTUdKfTjaLnPryFZ+CdQnxfLi6lMqprCM+lKGM1KI+4uNncvsLW2r+6r8zINhJEgpaaj4T7VB+ZrTNNFwWG5KUtxZ+/tj+YkH/vgqUG7bzl1+7Wgj4F8XFJ4/44CBNxRsKWtVgl7GJxd849gO0/I0+qL7q0FOGgwZxFpbmvMHlwHNI6iM+kS+SE7SaP6O5El2qGlQpA7Skc+tySJDn3Qan/ppjzvlxMyh1/2Cr9Z10Yh0wSx4P0CYoKuo14pDmv4n9vvT1oIEtIFMu2M5dcfnOo2LGQyC7l1f4vX/UEElOevvS8WCClo7nTIcDNSEo+zI/4t5BojJOh6RE0KbRms04DsARH0XcRF9YELE4JJ1H9p3HtBRdumR3bkm7qxk3585jl5xYMsJnDM9pK8BSMovoD2x10FIaof+OAbrsaDYeR6VqhwOQeFWcdKhh7Ea+vxT7/c8LmENZeLJw2Eopjv3MT/8AUh6SUNLj0go+aOuv+CAhhz0KKQi0ZUQh/QVtnsifmsTduJ5+bo/8LRBhgDbcaasIaJUORG3C1dfmkNictsJtprXA3sIWgyUHSJqUaa8KGQ3Fc4pl4VmnN2g93s0a0azWtsnmC8RBX/5lb7Uiqi0Ytq/4zPVPabaav82GSlYPG9MLfWohBZSx85iY0sb7R2PidzLaJj39PMQhQWsifkx+HnjQlrchyv61I1VwuXceIwOC2xhzQNOsoRuiTJBqvUvU0TQ6ZX1cgLAOmpwGGbRtWfYOtkWCtl2WLnkLQL1hGdvFQvJRNpYpDym/Kvb/4psHBrbj47Jx4/bX/UUA7BfxMvRzeRnBIWPbLjUMImhhqV8wRY/4OJeOleHok3EsaedxT0Gbhu8ZndOmt9NxCwUtZtiQ2JrjtFkcN7/P5REGcshA2xvYYrbNAkZF7XQgYZB1wIw2yESUazp+eMDC6Rejn+S8SvI+CVtv3kvs8o3Hew3coMj2ZZ+99lDZhN+XCdrwIz6IsmTGKOgsLWI8uwOV6h4BpyRhHock/12+sU+U0S/aIYme2BwWIoUTII7IP3bacEkO2hGftBc4s8heOjZElbUvQlti7zFoDc3Iq0u9tqRxfeVGtjosmVGePp8T2eqDbIGZ8ogBvW6dFj2KREaU5cxH2XlG2yR8SOz/xeW9VhF/2I6PN47d8Yg10IKndi+L9zeOSgiF9LnAIz5KVQQQNW/N3zjWoHVfNOAGbTsF+RUfLbsq8fgvdBhCV0dop410RhCnLEyXLPoUvIqUKRP1ozI/FnTnMSknbb4NC2jb/SgPtjpoKR1xALTzuMhNUJZ2hAAa/QAJwylIHIgsTkjw3ir2+9KzKw/buWddt9eolGvjg8K2N5iK0+JjHMv5uMAwgTbPRp8AiOQ1jmZYrel5fcQnshXt/80B2kCHpGgAMmUAACAASURBVD7iU5zZLR62OmSLjmax8jDHjASXOZdx7wlPl/wauAkKhaxTRu3K/p/Y78u/KW7k3SV5R7bzV1z7bQFyAfIRmkxt4Ut+Q/VxgVyXe8TidEUheOiUqrDjuXpLGlqZ0RCzSBoQKUQoZayP+KT2Yoof8UFWBrpak/p7FmfEbe9KT1EsbMsGrQWg1qi04GgWhQkD7mzQonI8R+z/5feUrhCZCrxg+8qzVu04IcUjZYE22RCFjqUWG1uVIQ0QomQBECEHMi7N8jySr+3dWtwezIHMjr43aNW+OjdEKfUHyMhiHNNHDuPo8Z5W04BEzNiESaK1QnWJ6EtKgqyfnjYLea5ApPO8/oqP+1VEtUHbHsXiYKsDwgI4ZQJg+RjgytpJi77Sk04PsJh1hiwbk+1z1JnNJ+Vd4oCvHFxZ2M5bdu0bG0J+nVb58KsYy9h5XE3QpiA2vHYHaJXL8xwQGTbQam4EArLsTzYvph9OG+7wpXO/uJ3HfIdEe5dt6FP6g9/OY55DgleH5+38ihrlXppKXl35YavDkggWXLcmRUKjNyBhgFaqZsIyNCoNzZf0Sx8PD9B2szbgBWLf3p25ZUe2z1l4wdheT33KOilhF8uUCHpPGw5aRBEVO4u0FPGKcB0jekkOdgadHpd7OJiZ0Sj+ncdO0GbEVvS3RNVgl3bLusfFSF3CbE7W+yZsUE+P+CCKEwYRSk5l7TwuC7TkoMR6nAG44VgOPmjzR7ZFgjZ0E5Qn3HsJaDZomXIU8gtiv6+8g+dG5U/Fhu3cFatmjkrxB9p8qoRR08V/EWShN0RppeCWDI1yij7ik0LEApDYA+fKCFVrQkaIj6CAWLFdrgmQDAfRUpZDYjOO1ITt2txodIoGrT3yD9OlKBfS0oEFLf+IT7vn3KsY3XIKBG08p/Kbut6UEB7Zwko12MRmB+M3cpOdJa/duNAXXrjsDDpv9HZw+uTpAGTinug/yTr+JPb/yszeaIbHDVLzlq9aKkB8CG9Y+aA1Vx1oA1hetNYP0ObZeWyTkQsiNuOI5+3kSP+HUJWo3EE44hN1h+eQGKkscoge0e5GZB9IfCX7ARQHS7XUpI0J33mMjHnc6TJAm6qSY871ylIy68kNW1JvHFBK8nnALASWrOVfoq34JNEki9ksBpB1qHLlKOHp4oCvrGEOb65krMh21pdWbbX1w+IJABg1awvdeWw7S6tNbKOK/BDxN46UhxRLJPj8Yzc/NY49PCeaCIUArQWmaVabcfQ74qNKXLHsxgRFmp5Jk+mPa8JnnnNBa2hG2aA1p4fZV3SKZH70OktLg5Z0SFy6ZB+w2GcbLNC2ZZELtuR7aQdAexLNxjoQAuiQTVCkrWGAlwvaSMtWiP2/elIuijIzs2A7f8W1zwApb6tBS0jVFYVYjaMNtoMBWl4U4nfEhw9afuTvfJfdE9C2exa689g0eKrpYTok/QatxWnj6RLTuvUhWTBspVSXkTttd4AlgQoDQNmyrI6OpSxv0Pb07Cx6t32kAtY+/Voc8NVn9UJVWLA9dvmqMyWID6sNCo1oI+NIO/+a+WBGIlEy1J03aGbqDO5Bpzpp87DLOeIzXDuPUxmRktYepH/aAMIHbUc7XMYiqYoYb8RI4UWa+VN97zNo2w2xyKHzuGA54VPYMucGZOcxZqCnN2HaLRcumvAx3nLtB46GhrjCsK9GIRmZdf6zwpugWNEsYrNJMOj6ghkMC1QVWSo2ZQJmbNxZ7H7xep8xC0nrhO1zLrhgbI/1T3kMAGakFZgGUO0mbSDL2Hkc1YYImmUcaZBG404/t5+ldUUhhg+QGb8Cdx4r8zMPRHIYR4+ztOZI2nUpERpu0dPHbIDk0SU8b6qGxR3xUWuiZWQ4bRY5+YGWJ6epBNq2RHa9c93Y6tXjkz7GWK79wDHQEJdFeRjAYC8b63Cmysd+x3SK0TbUZjLysSGrtRWx8QanMCORbZJsvUMc+PUv+IxZSFonbNu7kEek+ENVQRuJPhS0tPK5Qev3tSMUVcSPdi5obg0bImWB1jaBUxmRqNYeaL0j7U8ZR3yCdSkRgcshoRy3Chzx8Ypoa9ASxlbevse6URgft3lVRla57sRjQTR+4gRtoj568RaYuewDBXeH80q21ZkP0Z1coGWAPOvEYPIQcIXY/2vHhADUJ48TtvOXrf43EPBVBbaYw0R2qJuzwI8LKPUHgJZtHC2iLGVDlOY2OBSXv9zHM45GKnISMG/RKimiLeOIDwlaRSjRgODDEgraPDuP4zpJPyrz3KJL7Ufc99mEBND3ZaZds8gIjYh8TFkl0t5z+3mL9vdtiVx74iuhIX6g5sO80NBlYy6QYu0OATRr2Ziy1frvjPayAY3Byij/PnHA1/b1HTff9G7YLl99DQAckYQYJYO2Gkd8eNEaLmzXLVq2u+ZDN0TRDkc+44jLIdVzwspnDGd9xKeDMpvX1n0bgaQxYaqWRMO2PuLjawrzp5cAl605b9F835Lk/R98LYD8lhLQpDFK/F8c0LLA4towlGk+A3qso0CIHWHDUsubNMkD0BznYWJyfzHzW/f4jp1PeitsX7H4+u0mRyfjj+yGbogaviM+NIr7AVpKkbsmngZxFgJ44GPmTXXdDRAuaNUe0ADp6aaxQiLadiGh72mrBdpIHAG6RBrHxH0fmKsYXYZVSjh1zfmLPuFKpz+X6078JAgxnpFI5j85kM0oqxUs1Jwt817jPKDV2hsCaIf+JTZQyv8SB37jdN+x80lvhe0xS6/6x0Zj9P8w1zsVg804euw8LuEsrTHM5GAxl0VL+rhAGRAJjmgToeETMxJhKGjjwrE51NFaty5lk6mKntFI3HMgAgeiL8gkNe2YTUYO0FqPi5lyUmtiOiT1ER8fW5g7rRTyDWvOfedFvgXJdSd+DwS8WslX+CYoTFcxPbKkyzbQsAGMfCGwRJxedCInP2baYQWt0d6fiwO+/iLfsfNJb4Xt/OWr3gIAX9IdWi5ouZ/Lw+03bpGDIeICLRMiFvOqrBai6YgfrTqRET73vVqkn0hlLoDkBm0EYjqWC10d0frjgCn/XXafQGt12goCbbtrpnegmKSi5YQPi80hIeTvY8EqlFYKOHLNuYtW+TZJ3v/+PwCI6NrAxE7psikYlqzlX6JOx/yL+o/ZbwaQ9bwhgLboPdq2qM514oBv7O07dj7prbCdt2L1j4SUL0fPQ2eFgsgwAS0id30guBApA7QpY20T32+36KCA1hgal0PiOv8YDNpMS1AfIfNjQaANdkhcMuoUHLp0bIJWHaO48xynzSInv6/4oBPY2BA11UHbltJIQzzl/85Z+HsfA9yR7gMnPgoSdojsbOiysQfIQmCZGkqtewyngLV5StOzpFhOvzD7wMmn2Z0nxd7iaV9f5zt+3PQkbI8bXzNt/XYPbhISkjRq8+mJXwZo8xlHwmAkK6I20NZHfFK+WORUEmjDdx6j1M64iPRz8l221QB0g5J+gDYjJbT6tK9lgLZwp41rvSqWbmLzo9v/7osfbl9ry/4n7zpxR9gKHom0hwOInGAJAu1A3ASVkTlHjphjK/5DHPj1ZezB80xIwnbOZ689dGyilXhpXNC2FaZnX/FRZnnUwsI97CE84kPPN1NJuaClfHLW+37SFwrdnY0UqPiGhNOgwdRfl6oN2s4YuYytS06Iw6EUmSqMYYrSrA7n1tOIVSX57Q/tNAoXL2j6tEeuff+LQcifmnkswDAFzgONNR8xCUOi0k5R1Bjrv2t/k/rDkYcHZDEPUcpfiIMueqHP+PmkJWE7b+nVLxei8SNzCJTZqNXFB201jvg4Jn0poM1EIWj1mlvjmiCFGEd8orFAGw8kd+ex1rtIfwg5IHYdNSq5X0MU4rQ57jFw6ZImB66cBuWID0+XfExXxdJKuOD28xe907dV8oETXw2t1vfUfBYgWScFARuXg0VNwuHbBEVswkwEdK848Jv7+Y4hNz0J22OWX/v5hmy9W7UBoaDVSuEMvidE8CJxmEYT3w1akgPI5gJOl6Ly7DLMDlxuiCATkyunNKtNTn5f8eECpIzd2Yrs9dmhyYkro0Q/Ohnsdx7btS3sE5XhoEVak/kpaHOdBQJDD9qOOWkds+b8d2n3G7vNsFz3/k8ByPi4EAFLLAoziiYA7TRMBQI6HWjUKSYdCjQfZX0x+0n0HZORktToews2TMwQh1+8xT1y/ilI2M5fds3fAcTOaXNskGibGh5EnADJyDgq0WYYjNZFEiAHr/vIbvq6S594KrOfaDq02YpFQ0Yr0x/XJFGaESCj3HLy+4qP2kK7LnEdEqcuuQCiqFeoLvUHtIpDUvYRH0ROuHqaepj84nJu/W1XpXI0GyMH3nnO2+/2bZRc9747AeCp1ve1qRCtNiN9GPiOtTPOBHyVmjF7w8mn2XOvfmG206NOlz3tgqMpjheHfPMbvuPISY/C9sjTrt5nq60a93qDFmWjZmZdnc4LESdoKY+pK65ydh7b7/JV25QbIogSc41jymCHQ+KxIQoFLelH2RwSmy7RDkd536V1g9aubWERrQ9o/TZEEWOu6VPhusSxVBVPE/S1Hzk+Cvc/vBFAat8JLxIs1DzWfw8ENGpvGXWSoLUAVHnEAa0Ck4wGIX3vPhVwqTjgomPLUDcUtscsXTVLCMicF6ManYloCwRtVBRtPO27RfGBTnXCBpFyQDt4y6LFgVZzIxTnW1foMj4uEPUkVJfwvKku9WNDVEZKfdh5XIPWNMNSinPXnL+w88rN55+8/31HgZRXqXkwW2uBQ5KZk4+aCxxwIXlZUTCWj3JBOaD1aCuurNoQGYn+JA68KDrzXPA/FLbzlq/6EEhYGtVFgzZ857HN+OUBrcs4uiFCp7BFIfGooJn5n8vrtN7lvSXDQbRU8xj9jSM1Ebp9zHlpBVl86M5jWpeGD7T1EZ+C7V8hxbVk69l3nP+uW30Lk2vfuwgEnK/YWWV+lA4WZNmYUWfqbbrApTq6mm1KMzvqJPNZoB0E2lY7elwvDv72dr5jyUmPR7bLVl0pAGaXA1rKu+qqXLEQScepONCiPegpaO0y7I5bGaBt10zuPNYqTP/MPPCWk5qBu8ROghYxZv5yyrnz2CUncgpkHni9py3LIcEbmtpix5zjWKgBSDO9CdvccuGiJ32bKte95xYA8WzczjKghwZCnHzxJAgBEgpaapz1ee/RNsPE6XktZSmPmHVmL6JpwjPEzG/f7juervQGbI/7zppp6//64HoAOZYNbNWC+B8XcBpHJXguFrRJ0a7NGa5jGaRxtEW0Fdt5nHodhk7wHJLB2XlcadBqRkRzJYwgpztY1dt5XIM2Hpvv337eote4DK3+XP79vdvDBPwdZPy+1jI/yc1TIbDs6B8HQJiDxslHKTgnrw5nS+SKWbFgeeieqzhDHPStj/qOqSu9Adv2ZRajE83oMgt0PpUF2rKiNYd3bb0QPvwrPuHvHxE5xF0gIYJMVFzvbAbSJqeydh7zl9idTpsyT8ty2nJGtIGg9dkQpV5agRnM1CSE74vA52qntvR/XLZnKJ5PQPOpvzvvhN/5dkbe/57XgoTos3q5QUvNXf33sjdBUVEJ0g7K5VeSegDaCVqsrBZ1C9KvxUHfeZbvmLrSG7Cdt2L1y6HV+hEO2mja0/Mp7ZDTOCoRLQ+0RirLxI4eOUBb0ld8hmvncVmg5Uf+Tl0KAG2YLln0yeq0xbVhjnvW2hLObfKz19Ix7bRFT4p1SFJeuOacyyQN1HM5vQnTb7lw0YRvq+W693wLJLw26/qoZVhA4w0kbjSL6QwHeJQX6Zk3t9NBRYiY02Ft2zpx0HcK/yiBCdtl13wKAD6Bb+AM3cRSQrTmBC0l+K5KD8HOY0Q5cQcPN4AshyReYidLCAKIZuwdXmnRm8b8QdvOUdzOY7W78V8u0LafW+RUH/HxxV3+9BKa71hz3glf8C1JyvdOh3XyEQCYYT1fqxQcGJWiQQcDgqR9RcCVbScJTEedfQWt1jYJW+Dg72wliLVd3/Hupjdge8zyVdeIljxCLzCJaFGGaebDYTzVrwghg+CCiGVgUh3B8RD1awBAm5Fz0VFIUrQr8vcAraoWJIFj6due23SJ1pXoSVm6VBxoUTn1FLQ8ORXutIVaqArna2wzY9vblr1pg28T5doT3gjQ+DoPtJgzxoBlxs6p7WPkZb3T1fQoBJa415tprqWtyiNGnzo2n5MubpSQLxIHfvfnvmNrS6/A9rjx70xbv82ujwPAdH2AevZxgdJB24Ov+BDGU3EAXcqSzDHCadDk5G8cCaPbbWRJoLWfOQ5z2koDbUdE/QCttsRucV79IloeaHEbiOth5NzaHNsizVWFypLwhdvPX/SOkBbJte+5AkAezYKgZezT/JiTyQFLaL48oMUcbU5b4zqD5IGB1lGnEGeJA7/zwZDxpfIosJ27YtXMRlP+oW+gVcaQMKHR7Eb7w5r4pew85m/0MW0TpvBR90qDiEWGUcVRzfURn7YcKJCky3qkNmoP0j8xg5M1nZnnBb2nzadLlvk2RWE7vQk73nLhosd8jbFc+/79QUz+CSRkbo0iDL/ys0UPlUYELjejNoEBwSSJntaS19kvoiwnaLE6yU1Q2tBpeVvyDnHIdw/3HV9behW2S685tgHwk+y0pyNa07tRm2uDCKE42sDhsrVMfJeHXQpoIznQ/NKk4lK0+Hk+44g7JGkbqYmbeo+D8BWfjORNHS9ElywGDrNpSSuUQcw4Tt0E5vP0SabOSoA2p3NbpLWqSFktKb9xx/nvPD6kOfK+E8ZBiE9m3Wm1HEw3GNAjnR5GXp/lVU2FeUvhGR0i4UzpWaDzwF42xjjV+e1BcfB39wgZYyqPCtsl1/xnQ8DiriKUA1pCqLmNI20UImtH4it5h5sVEmpmiR9p/bGBFmlvXtAmRZoNTdsYCtoUxLicaIDYl45VOZSx8zjMabPIaRh2HiNKi/uBuBwix82mS0WaqWqVFXyJhTxuBNbtvg4AdqvE2dnU+9YE7AC0FzAzZXnlw+0ND+4By8am7dwkDv7ujCI1T4HtvKWrLgKQr4vqZUZrhuOBeQpZP45+nhWkOfEtk9458W0bokxIFAPagiHiMo4W0KaP+gFa/hEfcxhtukT0xSUn0sB0j4i2E7jlRKco/+MC3A/Ad+cxajA0OYU5JEWaosEoS4I4bc15Cz8e0lp5/3veBi35BR5oKQ3Tfw+M/NB5wIUsFthY8uJeXEaESJ/Q2IlIl5TkuQlKiRqQ9o+0DhEHfP/PIWON5dFh+1cAuV8ZO4+jrhQLWh+IhBnHWGQEfa2OWqavuaM1F0BygzbdNEa6NNoD9U/TYekqW/jlHjbQFq9Lqe0pbkMUV0ZG5I+TL5lBRR+F8gctIf+irFJ1y9l8+3mLtgptnlx7QvsKQO09IDZ3HNBLJhcznW5362VjdQgpeUg4SRzyvRWh463nS2D7yrNW7bh5Uj5SBmhJD9sFETvN4vekNEbLO+LDj9acoM3YLe4RH8PUoV5qNNTRI5uMGKDVKuRCpAzQlqFLZYBWFRntjJQHWp5DUoOWbUrlqBAv/vW5C4OOg8i173wNQOO7mpW3np1O02KOpyvKQ8aftBOOskg77IC91X4TeS2OJi2PwE1QqDyUBlwnDv7ev7A1xJEwge2cJaueOSpatw7CER9fiOAy6MdVjP2K1iywdR3xCQRtGUd8SgNtp+DiIlo+aD2O+KA+kzauCtNpXSvvdU1RZqmK5Yif3X7ewheHtkyuPeFXABBfAZgjmo3vCDCgbTRM1w1uFKx4/3Gp3LycflnKUh5x6uQuG3OcFdQ5vV8c/L29Qsdcz5fAdu7SaxYAyG+n4VA2qRbLcLyPRO6Eode8Hn8P2wKQOJqjUwwTaPEIJnXa7KBt5+7tzuOq6hIlJ78LUIJAiw6C2h7ue9ooV7GgZTu3RVml6pXzZOuhnXa64+IFW0KaJu975+tANC6K8ga+Y41tmlm/PtbBYFH1RrPPdrhn6vTKl0cehWyCynQLnf+Pi4O/t0PImGN5srD9OIA8hfr4gIJelwdSOmgJg9JtZNlHfNDqPSGiOIGhxtECWnJyJkLqzHsuaPkQ4Z859lti50EkzGmzOyRWp01rlqYFiX3VJ1/4V3wQOSi2rlhdqkELreakmHvnfy/UPvLOM8FSjjdg3YN3AsBhJmgtDp5SfCCgU4/bARWtHWg+yuYqhiyuB+sX4RTgE9bS3naGUHlw2qXYx0k4+PvThLDumOQpAgAksD1myTVflyDf6PKc+JszyjKObtDSKRgRLZm5h/dCK20gYhVyQnDe0/p9XGAqgzZclzAjlE7kZNoXdJY2amcAaFOaokYjUjOLM8I2NQOaUMhv3H5u2JnajujWnnAygDyj03tXkIKOHxcQOjAD8iVZPPOG5HNCFpt5pS8bm9G9lM8QM39QyLdt08h2ydW/AYCnq1NC89NdAlLsS8DEdwHEOfGH4IjPwIKWv2nMHEZaVwhXI2O40rymLcMhkQLEBpE8utQj0GZ0hbu5Dp/CNjk5nNsBZSiz2bffft6iZzDTGsk636zdNHk3AOxos6vRM2wO6L8xIEjaUEdZJDAddfYMtKVtgsoMTaavXTlK+E8x8wdLQ3Ugm68D21njq0anb9PaBBJG0ofVAW3qfIcax7gEXZa6BNHiC1wWVeon+qIpr79xtMlosHYelwfa9sAXtyFKmymk7Sxv53FZujSlQfvwo1tt2Pfesz64MdTQyvve+U0A8XrKptKKUvYyKWYIGSDPOgWmZ4tDK/kVc0A5dfY4mk1hE7VcwJXi4B9o91iHaUQHtrPPvH7/kcbmtgeGCsz5bs0FEcT7wcfK5mH3A7T8aM0po4zd4kYhhqkjvdbu0rHDOJa083i4jvj4fahClThmULpTSnPacC8qMWeVf10TZm8GJdfGxmjjsNvOfse9oQ2Wa9/1HJBwIwA0rFA1HH4mgILyafbBKyrNCWiLvtPOSC82QTn79ZA45Ae7hepBNl8HtnPOuuZFjQl5PaYUToj0HbR+xpEIXlFZlgGRYQPtcB3x8dMlPmjrIz5FGKselbEFWo2X3X7BO64MrU+uGh+FQ+//LQhxCHlblFF4aDSLOdgMYJOOuyWvNZq1tMM7X7us0GVjRt8Tl1aPLZG8Uj4hZv7v9qG6YMB27pJr3gQgv4IpBt/D7tNSVkk7j8sBLRF55oj80zljifxdX/GhHN6sUhJeCu0cqxmcTlumDVyHBHeWXasjdjnRT12b6+iotoydx1FtmHHoTu/0mWnrrL2cyhuiJltSvOWO8xd+I49xlfe964sA8FY2aENudOoMfwBYvKJZZVLGIvGos7BolulQlCOPzeKQ/w2+NQyB7VWfABCf0pWDD1rexPc3jkS5iT0hzTLv4wKkzenhzmPE6+PKKZ03FoDE2+TrIz5tGbkdEhLV2gPNlcAWhWIcZlL2e+ex1dBydrHnQVDl805KKU5Yc/7C/87TUnnfu58N0LoJQMbLx6bzo5RvAIIBs04SRjrjmkZuPsr75tQZ50XsmilXvbzQaJYJ4xB5CNGCr/5gTIxbN3mwVKazjDx3ydX/DSDfns0xCKClUeyKQixOWvYAhcMzc0ZrSrBDGHpt4nBBm/TdeiyjrCM+Zb3LLstpc4A2dkhI0FK2J8Zp9v+psy7jtNWgZRmkviQSMAlSvvX289759Tz1yzXj02DH++8DgF11PTDKDYnCOnroATyD8555rcC0lOUErZ63x5ugrE4n0q9W69ni0B/dmkc32nk7sD1m6dVXSCmTHVe5IYJ0xpS/1bQ5lrLyHMsIBa1qcbkyinIhfXXJKKUpOsYRowmAd61/7HOQktYepH8qXoJpJ7r9QQtWfyzaaTNwrDkrisOYJA7deWzKQetdVB0hh+RnB2g7roDLQCVNIcZc0ycjFUtONn3Ka2oqml/AZEuMHHPHOW+/Om8L5b2LfgFCPL8Y0GI2wwI4pdJMOsu4m4qr56OUm2gHrnSaWPVEZW+Coowc0g7E0nV+ajVOEof+IPcHCSLYLrn6TxLkwbj9xhsb/YophOFOIWe56Ukd6YZt0vtdn8fgQSLiBIqOTGWA1h8iDsM4QDuPy9Cl1MaEgjYeEcz+ZHXfBdoOSfVZnP7Qeaw8p+cUV054dbi+pHJy6FNeElUwvwTY3JStp/72/Hf9JW/z5NpFZ4EUJ6blYONIQIoy8oop9YCDNZ8DoC5dNJQ5zuCdr0Mx69wgZdnr6F7I74pDfnRcXh0RIKWYu/TqCQAYKQMi+BjYJj4PInjHbd8SjXMQxXNBa/oCNuNIVmY0xpRTDuM4QKCNpj4tw+xs5OpSDdrM7EiFgZt0y/O8xqXK+SWIP24e3fT0P579vs152ynvXfQCEPAzABFfEoSAkXDKzLq1hL0GCxVEUe+ILY5k1DfCwWD1qyCHJSmG4+xk0nT/U8r7xKE/2jevnoh5n750t9botAeHDbToMLtAy8hUdBRiVJnXOLpAq89lRYMwLzV1k2mdVQvNrUuKUKKy8TltDmjaxuIiWrV+m4zqIz55DVIv8kuAr615aKe3wsULmnnrkze/fGvYa5+HAWA6DRa9FobRJ+0AAvJs8ex82qzyAlKcF/d+dU9P63xoNItZgSLlmClf75eADeKQH22bV1fEUcuuetpoC9bwIUISK26Ln3FMuujysOsjPtmbK/Bxr4/4ZL7fS+ipdTMUZkSQ2JrjtBW0IYqYTbmuq0znHCWjvGalsvmllGLemvMXrrRvTee3X977zkdBwA686xYtkZ4CTAZEdBc0BJa4p++AJeZsctpb8U1Qxj4UpU+bxMwfzeBrBZ5SzD7jylmNhliVPkYEp8iXft5VOG4U0m/QlnEhQ7BxVIWhjFY6j2zG0bbzGI/G0tJs0VqB11UazmMZutQu0w5ayuR18mlZeTLSlsILAm3UTreMaJuJyyHya6ccaK+d3oR/q9mQuwAAIABJREFUveXCRY/lNZrd/PLed94HQu5tloddUMGMzFjLq1pZZKDigGAIoJUiOZDtOrB6WkZedr+wScson++wTIiZP5qWV2/E0Uuuei1I+FZUUDVBazWOmN7pUkHtSoEQ8XRG0P6QisU5/zgAR3wyYxDskLBkZIFIbMgsCFKmgJqO6ZDUoM1rkwrOLydlC16+5uGdryxi2TgD2j+AkDONxobAknS0GcBgA8nwdOOmM+pATx9w8rWRgr3OYeQNkWOI80B7qql8BDTFIT8ezauY4ujFV70PAD6LwjYvRFzG0elh10d8WFGIlJYT1wVFa8b80FDk8ngTXSJgiEwUs0gLJjuPintPWwZo2/YDLTc7iz3lhA+LS04WhySvRalQfgHyNLHN1mfetuxNG4psllz7rttBtg5Xy+Ret4i42oWChRpb3VlkAK8bgDnmfnU2QTn6ngxYJh0X0Ju3mi4Ov3hLHj0Sc8+86lNSwCeo9bOoLUgnchjH1JGzTfqyjvgUH9FG/QmQEenRZlwf13JfSRuiqnddpQsgfQZtu3kWo9R5zHZIeHOuBi1p+r7UbMLH7rxw0bo8xlHPG30Ift3/gUQ+ReoEEgZZYpyp4zVJWM3Np6XjgiULJZfOonYvNJrF+sVwCjpJGOmyLPPtV6v5LHHYpb/Oo0/i6MUrPwsg2tFt+k8BfwBErIPKWRb1uxAeNcPEj/amqZn4xpFwGnI4JKn+WBySkkAb/i7bpiuBDollwFIZTT3QGuaFNDjZfXU25zaPGalGXiHg85NiYtmd57xH+4JZ/vbJmxeOwR7wa2iIp6m2UpcpJWPt90KjWQdsrGCxQMoXSJ09DxzoYXaCk4/rPDjGIMTpEOIN4pAfX5RHk9qw/TKAeHPWmUkdKLvxDN8Q5Zj0pew81mJPowmhoOVFIYUbR9fOY31uY96Ut0NikxHluUcVF/1xgXS+FAdatQdxDRwZOXSp5XiuvhKzzbn0mWkH8TmVymk4QStBPg5Sfkg2Wj++49x335/HGFJ55T0fmAFiw20gROYdLXfZuEiweALJG5bxDAjOp7eP0d5OEka6kHuNcajFv3rU2U4qmqeLmZf9Vx79EnPOvOr7QshX6e0q2jgmIiWF25VBOR8XqN6yKK5kqXhsxtFv57GGyC79EL3p4RK70v2ohTiTLBDpOByUnPxeQ/BByz9L2y6zn6BN59wwglac32rIL+++Zt0tq1ePT+Yxgra88s9v3wOmj/4KILPrmBW9Uc5nmUDK1OkNTMy55ABpSDZBGUqgyUPK74vDLnlNHj1rb5BaCSDnZK0dYfqMs33+xpHyYlLQ0ikYHxcgbUo/vuKTNoYrJ14U4gdaPkTKAi0xomlnSwBt+oKURLX2wBgtQpfK+FxeJCGkQk1GhiSR51ljEDluQwJaKe9rgfxKozFyyfonx371ly+/dVMew8fJK/+66KUwApcCwDaJh4pPZq04bCyZ4MrqATm+lrK8IRtrlbNfRJ2GfjH7GeKwRAqNBgnmj5l01nlC9UubSULeKmZe+myO3lBp2rC9AUA+r/SlLFJQ3ab1Y+exKmjuzUdcZwRVDYsc3MZxAI74GM51KERITMYAsUEkjy7F5aLNzvxY9hEfRXkIjculS3nMRul5N4AQP5eydR3Ixk2iMXHH7ee++57Sa81UINcu/ChIcSoAxJ/KC1w2ZgNCUzh2PmPCdSMXPpRCAI2uKjFAiPYrNJ8Dvt79wuZ+Ushj4tBLdsyjg+LoxVfeARL+IW12CcbR6WH7LfmhZpb40erUZLwkLmiDo5BEwC6IWIYzeEMUDRCjP0bzbA4JrSvBDok6GZsAsv0e7gEJ4iGQsF4CbGxI2b7L2/Kvxf74pNqDlv30UMYvtHnSLQPEyHvl+CebyxDVEaVwsF1pTprW9j47j9kIzyvaQyPkZglyI0ixoQGtB1sw8hAAPAKydf+IkOtuO/9dD4bXkC+n/Nu/bwebRy8CIY5NSmJFb4jhD47eHBBJG5Z21goWC8xCgMTqF2YbGFDN6Lz6n3peaubots6jTrvtmxCHXpLrYgsxd/GVf5ESDgiGCOmBZUyFdSmrLNBq79aMOZhKNjdolbmRKTdbp0VO0SOH2XWBVpufGiKzdluRRAXeZbd7/tuGlDdLAbeIpvwTwOg9otm6f/+1ow9dXMD9tfnMb517qkhArl30TyDhOwBwUDJhHM4nPbE8jHxXwKSNKBKWsaHwhmw3Hwd6Whp2v0LzUcaPMwY6nElHZxJmXjpNCHKTiHOaiKPPvPIBANi9P++M+g9ak3OYR9adUgQQk59DQUsNcDx+JYG2T0d8NgLAtS3ZvEbIxg2NLfLXN5x9/ONOTa0T1BIoSQJyzXHTYIddPgkN+WGQMBJFVBxDjcxbFCyMsthAytTpDUw2WExJD8NNUFTAxZNjE2ZeOpYXto9LkNuheqxBBHfycAD5RGv4HArfEFWBaC3tkjOidYO2nQJfEDQnDzeiDQctZWAsDomUdwPI74uWuGzyiSd+dsuFi54syW7WxdYS8JKAvPcdzwRofBEEPCvJWPVlY2e0TcDdmQ+zRUN8dtYpDyVBftjOPvPKJwVI84sGuUHrhggRJ0bvqbAVhew0IoPMzAOHMLnLx1ExdMSbfYY7SWbeVLy0FLpy6C1o1b46ZaQ42tm+yAcEyG83pfzOzdv88RcwPl69F4heZrlOPEwSkH9/7/awcfM4NMT7kmgWsTus3a8hUWkybxhRb9b+8KIwbah0e8qss9BNUATIDZvObFvwfc2B0b2AJnz90mlinL0dxJguYvaZK7cIgDHlyYCCtoxojQStojtEKmIS5gdtXDnpkGAK1R3hAo/4KKDt/CEBxMoWyC/IRx//4S0XLnJsZBom8133ZRAk0P7GHty38HgQjTMAYB86mqWCBWzS6YBgACME0N6gDQQL+yYoREYhy+8ab1Q9ssjSKo/QfFRgJVvwzX8eEzmChjZsWwJApEqXGmXzv7oBHh6NpfpjidbiwbCUYPnyStwiNHPxZ2kjsRN9ye2QhEa0eUBb4KYxNaLdJEF+DSbkmTed9cY/D4LRrds49SQg73vHbIDGYgDInJcMPNLT9S0NMTpAS4KFsgeBUSkrSifaylpGR/IGg9bSdzwKNO58YAHa21lR3t234NB/HhMifIVOzDlzZXt5L4Itoghm+6yYdOyqLWtDVIHRWqZ7/QFtei80KemgiFZzHIzC1R+Y90I/KYW8YGTLyMd+cdaC9san+l8tgcpJQK5d9FJoiVNAyH8xjLJjHkTpsQnngGqufIonm2kyp07MGWfmC94EhUWDjDrT6EzTmSKj0risfKAFEKIFM5+XF7ZXNAFEgwdaTKgZdRz0Iz5qtIYbjbwOyVAc8ZETIOHCG7bZ80QYP6K0q/IqZ7XrBg2MBKQ8bgTu3XkONGAcAP7ZDEB1g86MroKjN8p2hoIlNB8BRla/ioxmuYDGHA8GyLvOjtOZIsbdkEdLwqEvGM0V2c4+c+WEkBB/GDetGHcELFEtEyIkwZSIEklFyQS93qybPyhaYy8dG+pCemrML69Yj/iYHqvWO9QJ7/6I+AixkGwyMnrYlCB/1Hzk8ePrHcUDw50p1VD5l4V7wbSRl4OUn1TuM06k0I9lYw844EaFF/kFR28cx6OP0b0iE44sC4pmu8COGJMftnPOWNle/tsqa6lxZ6A3oCVjZ8ypKgW0RAtYES2eN2Uw5T27lo4rAFopbxNy8q2/XPpvv5pS1rvubOUlIO85bgaM7vo8aLbeBUIcF12xWFAUlkzpHgHJG5ihYOEe6UFsGisK1vLR3r79vmOrPCzg9ZYjdra6XUim4Xkj2zlnrHwUAHYI/1weiceY3zm/4mOhb1i0hlI78WFKOeJjiXgTJ0fabgpUvfFiIlpVsJYjPk8KKZf8csnrP1V5q1s3cMpIQN79rp1grHk4QOMNIOXbAETmKj0EjHgE4Y4YCwVLwXAY+E1Qjig1BNCFQLatFvpJRSnh0BfmW0aec8aV9wO09kCZZuksN1qjUcw4S1s4aDEvzRrTZx8mXg438k/FZ4lo4wlDH0K1yQnzarv2o5BNYzdPTrbm3bL8De27a+t/tQT6JoHOudgNE/vDqHgmSLkQQLzEdIwJ4x0CWtJBdkS47HwZWxQCCAO0DnAlZgGzNIy8aL9C81GGHbNnjDqCz9w6o9mMvhcC2yvuBoD9je67QNvJ4IYInsIUKpqO+NHq8BT5cQFFKFGtXNAmaRkyKh60eY74dPJuhoZYfuMZr/1Y36xrXfGUlIBcu3Br2AI7wHSxE8iRfUHI2dCSxwKIp6UC4RhgypBiYtXKKzSaxaxGpj4raC399AY0d9kYqbNQeVDM0JnAHONc0b2uC1ZHpIDI9swrbgcJh3MhkoIuFLSx8lH6lgZmyKwoJFrTotV+naV1vad1Rf6YF9jtmk246rghR3wekBMw98YVr/u/flp7KReOwb3bbAcjje1gbNp0aE1sBULsAHJyBjRHt4OGnN7P9g1P3U2tK46LvrzvAdPLB4BmswGNRnufyE4AcncA0YbqTAA4DAC2V6CKG6ZsxIHaCcIr1tIWCRYPONCRjWe/mHUOwk1QSGCjDpbeV8z++cjDC7RR6/IvI1/xS6lvje+02RKTMqI1GsW294+xAIjMCWqJiDfhtGuCKiwiKzMaYzqToTJigFYbAg2RhsOQ+ijhoJUSfnrj4tf+Cwhh86QK54y85wMzoCF2hWnyYGg1/hWkeCWI7pdXCq9uihaoDSk5hwmjpjjBnkuRqYdOyJ4wkuaEKwiWGGQxm8cw3qSttMjRu195wGK8e+SNQV+iWc8xCJEjygaHzneaJSUc9qJ872xnn3HFlQAwuzMCjkkR6ZXDDsfHV/ARdUVrNGzL+bhAWaClnZVIzlFvwhwSbOIhqHU4HFpE25IgL7hx8etP6AWJOmcgn9h/J9gsXwhN8V8gxHN7Ue/UrEOHLKWbDrAkjzmgxRw+BriyRqgwQ6qPOgZaz7ZZbaWlLO8+xRU55jJ5f3MlboLi6pXHGITIEeUWQ5e7zlT7UotDX5jvUovZn175PRDy1ame4wgYPtASRgdxOPCxNeXUHRcbRrvOCvc9rVpLGaCFyRbI9920+HXnlQkjKUHAo+M7wJbHXwvQ+DQA7FxmfXXZiH6nCuqOEI1jdQzDxIYl5WaWeTVhHnkU4LAgdkUdBF0m2FxnAqmXN0FZ+0X0yRgKTr/yyANrB6NOBdCiBYflhO2cMy7/kgTxlu65XcxIcSFCTSHWV3zIYLD4O4+jdiKtzQtaZ+QfGRMuaNVWhoJWKyXTbQmwWcjReTcsec2qsuDUeff60Hb/CE34FgjRfi9X/ytdAphuM4wLNi862UJB61kn7tVmpMXpF6POXE4Hd2VAnWhRJxhtYzssWHktagen27kqfdk4Byx7twkqlZMpjxZcdOVYrq/+zDnjis9KCe+jlIELWpKViKBQKBM/0o6TmsFyTlTpGglapQNEKnKSdm+Iot2NrsNRFdACyE1CwrN/ueR1d5Zh+6UcH4UHHn8TiJHzAGTmDGQZtdVlZqyEKozcYOG886uKIWXALJc8GOXngmVshIKcDk+HqKslbHlofWfnyxhW737l0Ku8y8bKLGp/zAyacOhV+T4ef9Rpl39KNMQnMK8rBZ0bIngKU1jFgJaO1lCnQXEyib5oVDdSVRK0YUd8pITNAiZm3rDk+HuLxlRnufjBD30IANpfV0m/JlV0RXV5iAR0g0jNW/13zJB6Gm/aK7bsTghcNmZFYUjfWfmQsIENFsXQxOPjOQbeQGqL18MhympNiDzIcXY4ItZ+EXlxI+yI0qnrOB063xl2ax+acFhO2M4+48r3gGyejdmuSMdCQWt6aVMTtK4NUS6HBPPuui4FNrkVlzUZ1u4wtpeOJ2Tr4FuXvH5t0bySD3zwTSAb/w0C6ki2aOFay8Ng6TB+qWZoQXE7HycvFyyWsrzBEnivMRuWGmhDwOLdJyyaRYCPjkk/lo05upEnms0T3WNtYziNPP2YhMOumiaEZV+rY86L2adfvgAEfFtP1z/QhkVraESrjDnhNCATypwveN50jCwOiXXncW9BC1JOiIY87Jdnvv4vRbJArnvvbiCmrwEBuxVZbl0WRwIc0FL6qQOTYZg6TcIcQL0OS52lAQmLShl9z/ZJ8VVDweJZZ4g8WJugkHagYHH0k3Q6HE6BNZ8lb5A8MP1jjB83updyUjz16jHOjKTSiNlnXDYLpFA2yLhBm0ZreMEFnKXFxkJzKpALGdTmJDZhuECrXMNhdE39IY1oZWsEGs/8xeIFv8mjMIZT9sBJ3wQQr40uf6//9U4CmCFlGBcULO18nnm9DDA3ekMnPbK6xmgrChWifPSDJow6gvNxHRasvYHRbOHysMgnBJbV2ARFzwMBm8RhV8/IM7/F7FOv/AcYad5hOnSUd+YHWgYzk/aXc5aWmsBKj00TZDEmqd7aZdQuFN8QlXgBmb5nh9F8nj4N2p0tpRCzbzxzwTV5lEVp4bqP7AaNifbmql2KKrMuhysBTe9yGVIMtEUaUkqXsUjEcOXCdtfmlgfSDmNosH5x+oQ5HhywY+9mGc5DkoRTRwF6ZXXCsPZy5Mh1wiiLy+mXQz5C/kEcdk37hrPgf2LW+KpdR6dt/ps6Jr0HbUi0lgWQIgFl/JC+IAphpCImbJrVIiPrxwVw45OWFgpaVSGzUb8E8cYbFy/4ZrCWaBnl/SedCkJ8tI5mi5KoTzm64eAYUcRYdbKFLht71IlPLF2jTAGwlvewue3RNsO/5eTNpLGCxVKW8ohTZ+AmKMKGOVcxyH452hoijyD9KG0TVEYj9HEWPxJPvepffWaqnlbA+Hhj9rTnb5EAI7aztp2M8QTAMRN+O1RPQavYnagnXNCmDkkoaDGvNlu/DbSh77LlJ29Y/NpTAfJfwShvXjgG+21/IwA8M4/S1XlDJKBDlvD2DW2m8nGMfE6wFGpIdZlx5EHNU06/CoZl8DJpP5aNObqR0b8Q5yH4q0VY2xhOI9vxIPRKyDPEU1a1A4zgf52jGUd9+vI/AsAh4TuPTUigak78aHWI6q/4xA6BDcSpYNWIFq5ZP0PMu2N8wZZgDYkzyrUn7Qqj4tcgYZ+8ZdX5fSUQChYsH8MwZV1QqyEtGEisaBZxMoLzcR0WDCw9AFLwJijPtiEBiKqhenkcZ8Uh2xBAo9dPWtrW7USIfuhQaraOF4ev/obvzM2m78B29qevuELK1tF0QVHUSvmJ+sNBAa2hDqT3w7m0gnHEB7N9idBpmAa+y35s8+YnD/z1Z976aB4F6cjob+9/CrTG2hFt5osseUut87slgMykYMPRLsvTCFu9YKIs42dmnSH3+LKjFW2me/UrJ1iC5IF9Do8hx8LlUbAzFRzdBy4b55KH1vemfLo4fNUa95ylU0SR7WmXfQEEvA1PVhZo+cuinani8oQSVhEuATLBzCLxvOmY0e6G/eMCJkjVkgoHrWy1xLNvWrrg13mUoyP3dR/4F2iMtD9WkWvbe952TL38mGfGMLg6UBPl1fMWaUgp/WXWGQIk1JBS81MHJkeOWDSLRWuWOl02C70y1nPlwRq9MdobAiTElrIi4SB5YPJlXOLB1g9dN9CIXMJtu4yJBRcj34vkW6YObI88/bJPCoBxNFver/iQ7MM6mWiO0hQ+aFFBoV8zGgTQhr7Lbkn57puWvO5cvhoQbtbak+bCiLi03giVV5K++XXQesJBmQaexttqSIl2hMDS9KBjITEAHRLdJzLhyJJlgOmVgmB5MCBCOlO6jjn6SY5zaD7C9rKiWcIpQOXo0I8Q58GtG03x1FWjvrNYT9+B7azTLnvziIAvG4VNGdDiipKOG+W9piF3RY74tJcAbnti68Zz876nlQ984GiAxuUAor5yMe8sY+fXIWsxYKo7igQW7bJ6DRZLlKe3NwRI7GhFk1sIWLyjsDiDs1+YjAZ9E5Rl3L3lSN1ayHAa2aD1nmdbxFNXTWdPYyJhd4PUS0DK6/RwkkYMY+cxmTnonCju9Sr6jVSITDJ8Lph506wW0FbuiI9sTUi5X96rGOUDJ74IxOi1IGEkr4LV+bkS4BgAn6jDEQF0moUBoqh8hKMQHJVyHAekTrYBxuThUacTspQ8GBBBl5s92tZVQdLpICLLoHxcveLqR7vRDp0MGWOl+v+/vXOPt6Mq7/6z9jknOUlIuCgIVEq1KMk5gBeoCVEktForSustCEG8tJW+2tqKYC944RBRP4CXVtu+r9a39rWtrQRFQC59274EISYnGDXVxFZQlCC3cCkJuZ5z9no/M3vP7Jk1z5r1rDVrZs+e/eSPFs+edfutZz3f51mzZsZo8/vE0tsXUley7roQtr/x8Vt/aaYN98UXmR7x0QWOyVZQRlUIWkRMKmjjooT3Qvv/ig/9XrbaPdmW79x8zXlfKGIU8pH3vQCgNQ0AhSO5Iv0YnrJYkOjqSDHHVIIjdQaL0allHat3R1oXPfgQVHqN1+AQVDIATXfuCbH09sIv7wlhe+rnvj122GM790HwrG03W8PzuWwkrGEq4ivzQJteANTP5XVKaTJPJYrzC9rOVkc/QRuOPTUo+fPdC1rPLbJ9LB94z7NhbP7dAHD08MCunyOlZLMGOPQiQ3MGkHQmadtB12vGGWa6YhEUuAAaBa1mvWdenWjRN+O4cupy0dFrdm9jH+o0U8blU0esr9RtYywoJYxdBahLdi/gNnHi+lcX9RTx/bhf++it2wDkRBMf8SkDtLocAtuaS7efDViiSXR8xKfjZNtzz5++5oJ7XA1C7rh4Acwf2QASXuRaB5ezUUAFraVTS/kZylZkooCVw+mWc4FlNiLsCkTIcF2AZDWuRB+syhXRYwCy2ZRdWdikk33UOZtN+ml5iVh2x6dsVjd2bQ+2V97yzwDwZl3c6P4sLX1bFMnWsn2ONdD0FFk42eATL9sLpPUq1OwRnw5opbxx+urznV8lFn6DduclXwApfruoQXF5kwIqZDXRvulwU2ysFIfYD7BgGQuhr71FqAhpKKsFZk65rGOgtekEln4cgrLM/ErTA5kDrx93J6whF7uKuj06Nymed2f8/QDTCtf9HsP2FR+5daot5OX4hYQDUbodAvTLGL1cLtneYD/ik4140yaWjJRUlYvdyx6Ve5ZsuPp3drsagXzkkgsAxD+4ludyVAVcQauDperEfIJFZ6+ENl2y0th/EOoP5VY1IYA8WS4XLJpg2+XFG51gGDEQwt+0Z0ZyNNIGHQYg5ZbLgbYLoF3eBOUSTFln6cg6EzAnlq4v/NhP0JUYtr965c3nAwjkZfX1Am1HPyxSygIct4Ns2V7Qo1lk0SINdmu1fjXvs4KuoM0auRqQSGh/avNVay6huvsM5h+9+ARojwTfouUPvruKSCqngpbgbLVQsSzr4oAzTRDbJIEFW7/E+tHgnVIWcaSm3YN4Xh0/Wo+CltDXnkNSLMtQthIgZZOKTicJ49I+c5sTPGiDMEKbLjpmobFXLLtjEWmJGy6KYXvW2m+cKlqtb6evdwet6wsZ0IlLrRMH0OZMWM8+/YE2bQblgTb4bMvjex9deO9n//CAizHI26dGYeLp4LN7Z7iU5zIUBVTIEpwE5rxix0F0apnYk1KuDEeaCe8yLsb4aEcSesZx5Ywz60hpMDMGHhgsHAFNzmYVO/IDFgc9iHZF2jbW+XZKG67rLKEjZh8SnhQTdxxBWemma3r3bD/2b8+Q7YOP9QpkIYHiSPNHbZClREDGk8cpLTRAVBrD1wZetmOj/QBt8XvZhbPahy95DwjxGZOR8O+uClAcgMGRxD+7HoLC4O4ZSKRsFumHczlqwII5UorjLhp0UNrAwEIph0GWqkeifr2Dzs9SXQIW521jn3pQ11nmum+LZXf8iqsHSJZLvR3oV6+8+WEA8Sz8YXfdp+iykWvuPNp8xSezVnSRT+9Cv6At8nGBbLCSVMr95HFnrMGO9vE/ac1bt+5cp/d1yp+/7zgYad3L28c+lpEhe9MGdBQHEFxDcToFHSm+cMyZjst9zE6EiwhP0cMyeEhdbtGmkx79OARlMaaMdBZljXpo6sr8mRA0FrIPizGR9GhfJpbd+XEfXiIF27OuvOU6AfBG7BM/Rq27vYkhgo25ZNDi2qEd6fQkN6PtQk37taMsTNMt6WFbFLQdqeUN01ed/zpXI5CPXHotAKx2Lc/ldAoo9kZ2HLpyqv3mOJPUTxSno7NRYpskp0DRA1+jfTkElbmvSNTROUsnjL2z3tMGR7arTMaiCXRyghhru9KdRCfYFTouwxzEPxPnKlKSUk7sf65Yurn3wqcCji+d2X70lg+AlFei85pOy9AmqaDNcg4RKeUH9L8njTBrE3mg1UXXvZkI1k9ODVlfEKtSNmihPX3Vec6vUpSPvG8lQGtDAbvhopoVkPqziwOOnQ3FcVAdqaYuF1hqg1SKI7UcU2qJUsomrqE40vRkEbfukHFydp9QclCenc0QNz2G4H8J2C+WfnOBL2eXgu2vfeyW18k5eb2Rqyj7MEPHB1T7R3yCbVrn7/fqQevv0Ji8b/qq85/rYgRyaqoF79p9J4BY6VKey2AKuGYdunJVgwUPKdGDSy6AJmcrSgCsBWaOPtmIW5kwTVBgHBfWpuu2MVVvTA+KbWBBWE7mmjFp1fkR2xyoQ1CkOXhcLPvmM335vBRsV03dtLQ10vphHvPxp278g7ZjGijVu93r/Yavr2zZ3prXCd01yBo+4tObcCHljHzR5k+dt9XFCORDl74GWvANl7JcxhW0BmcV/0y4nxV2AQvoNBBRs7eMzy3iSAllXbL7uI+E+lE9LMoZIYtBKpgCylxh/suibxlHTCmL+WJKOapd6fTA7M9gkz2HbAiIPARhqSrIemwVy+58oS+/p8D29vHW6N6ng6+9oDjS/DH+s8FwjSePU3aiAaLSGN6kBrQDR/oEAAAgAElEQVSh4P5AmzYBzAH2Voteo6zxGjL/PdNXnXeIiwFIKQU8eukmAPESl/JcJqmAT0ca1EVxAAUdqTNYLECeAgRlTH1zpI7bxq7ZrAZSpnl3AVJKdos5MNqHpq7MnwmByCA84gTi/WLZNz/hy+9lvlX6qx+5eZMEWJ5poGzQpgIrv6DtBcr9AG3xR3zSyYm8efrq81/rYgBy5/vPhLZc71KWy+SAFnWIBCcXl7OAmbUjxYJAQt+ijNHogBGIkPXAQGvRt0zTZepIzWYxPXR+x9DfQqD1qSM1mw2uU0HrMyilBiwFg9JOMxLkyLFicv3DvnxfBrZnrb35KhDwx2kHjzXn8Ss+KdDqJjYVMmfjQa1hdgNY08lj2RkPvizyXu6BObOeXu6HxlAn1j5i35KFt372bLeXWDxy6a3BFxV9Gc/w1ePbcRAygAh6KXOwcKQusAzborThWw/LNuPLKeW6AjrrQYCIjxPDufNsGGdlemAHWgi27BI89DIlxN3k6GEdlGbsY5eYuPNQnz4uC9srb34jSLgubkQTlFEhYtw6dgAtHtBqMTngj/h0Z6IzvCenrz7P6W0mcsfFvwDzRh7waTzDVZdiX2THoStHAUTBCN3ocLDA1vXNR5q6MkaC6WFZ1jguVVtdQKy5LtVn121jyvymE4heXEUti42LMiYs8CC26XwISgOSTHrjus4yICn6iNN9YuIup0OoOr+IZLa3TYKY+0EyoFYLuz8nikXCndo7v+h/788jPlmjTPdQt4iVw12GaNoYkPTK/8v01ec5ZabykUv+AUBcMFyA9DVa1QEQHRP6Hl9CBpBcC7lgyemHNZCo2SyyTklZsFIu7p+lli7lDOsv6YFSFtPUQ1DOeqgFCbYcFrGc41QRSvCQuMabfcj/JSY2vMuXBwnqycD2nKmbFj492goOSYnBOHmMR0y9OdZFVJ0ZrfcjPmk7nR0dO3bLx974kK0BhJ/Qe/TSxwHgcNuyw329hyg7dhxBXRSnU4bjSM6iZj2U+qwopqNlNpvrgHMcujHowMq6ZrPUMWGBB8U2EuWM49JAyghaTT8yf6aAVud7DQB1AXSuHjn90JWbnTtFnLLx+z79Xwa2QeVnfeTmjSBhRbYh10/BIYNN+ZS833u/4bpky1JBG77zUKtmGV/xQfpqWjTd3yXIvZuvPt/p6xNy58VnQnuED0ZZrRwVEJbOMGorNkaDgyFnszkO3WRLOtgbHTCWzVLBUjB4yDRTso4uWXrYx6L2oRpnTn3xTxZtusyxdlyE+9cueliNq1S72iUm7vJ6vxbNbIM/rrri5suFgKn09LuCVrdQO7Wjz9IiUSxuKxrQao0k4QEtQJseQUw/xHXTD41lu6gPODq/yB9tvvr8E6140b1YPnrpjSDhHJeyw1cGmwcLp5aCbPA/CBkAClqLNr06UgLMnB0pNiYDtK0ccLcuJz2w784S5iAOpkywVIO3jKFEqxX1K/EfK9VD7QrBllE9CPNO1jFhL6UFl+17xMS3nu/b9+GZ7RXfeBUIcVuvMTpELO4/egdtPA19eZa2yCM++oCkC1qQbfHFuz9x3m/bGoAMbhU8cukuAHB6Nte2vcG+HnOIBPhoT6Fali3sSAlw0AaihLJkR0rREYNsEUeKBcGEMYUG67ptTK0/cZ3LHGeksrArFyB5PQRF0KgQaAn1R8EsOQhrXyMmNqafyPHg2FDYvvyDNz5nZN7ITzr1Nwm0Hr7io/ER7ofGzKANrpg/MnLUnR8/d6ftnMvHLlkKcyJ+K5ht+eG5XgWExSLOJCmEDCByALVwpISxOmezBqimDEwFJqFf1o402SCWzWL9RfpRuh4FAU0Gi7LCM+Mi2LILLFMyWwQPueVybM1GD3nwGDF5t7fnayOFUdiuXn3tyGMnL9wDIOZ7e8QnZTvYIkqeH+n9ng3M8LKd+dbUGztDw7O0ylyla8Mi50w4YnwrjWPmv3/z1ec7vRBbPnLJOgDxpuGBpu1IXbMwXbk6OA7d+rLsW7weKNBz1VG36ChtdstmnYRKEMQoXLNZIox9PHNrPS7MR7nqGIyTAlqL+pU4h3ZgMKF3rh45/bDT8WExseEYWy9CuR6FbVDwrCtu/rIU8vy4EkNkQP+4QFmg1UU13RHkvrQiu2ipoPX3cYH0YVUlU/755mvOfzZlQtVr5MOXTIPg1zPi2qmAKOo4LGBm5wCI70PWrAGXLEwbvBo0in+21LIaR9rRcaD0sNDR4KOj1CCzFqrcNrayj8SArMphQVhO1psKAuQ3xeS3znTxtaYyWtieecWNFwrR+lJYgTfQ6pxB1M1eQ/jayxpe+Jfe/9H41E65fp48Nma0qQBOGaeQ05uvWoOcDs+fXilXj8DO4/eBhDGTIQzX74gDc3HAcTWE05nJhVSV48h8mzW7zuwcMAW0mmA67+UFpeih6Ss/4pRY6j7fBEUICrR+Oqesl6AU4w7WZhtgDt4gTt6Y+vKdL9+oz2zX3vQCCeJ7Aw/arsOhgjY9Ld0JQf2Hx3vZeaANfhPtL2++6gLrF1LIne97PrRb/+XLWJpRjzKZqAOgOg7CNpsarRYGC6FvrlmpNnAltNk3R0roWxRqG5IGNPAoFIRR+4b5GbWsTyDpbrkRgkYXPXITIsq4LHR0meOwf+HYd8O2Zx8uzl03V4av08J2+dQtSxaI9lPpRtMjMWZrKRvSRLyK88G1wst21rem3sjJ9fkRH6NGKdBiEVhgB6033/2JN19rawDykUuvBoD325Zr5vWInbg4jrgaCmgTbeZG6BSHg9sG7ZuzxLKF9KDAIWPsxBd9dMsZHalGR9K4fNqHziflaFRKEKaZ91IPQSlj1I7LAFArPbBghWjz6ZPo3xWTG19clv/TwjZo8MwrbpoWqc+x9QQyQqSxoKU/4mPUiADaIDGfe+qQRVs+f85eWyOQj17y/0CKs2zLNe96zAFQomVdOQpYMAdAabMoWNTZI7TZiVqRaTeMk1xOqd/KkWJ6UPoaBeIWcxUpgI6L0KaLHqlqCW2QvmWcM5+Z9ghtkoIVD3Oc6bbF3LnoqI5LyveJkzZ9uiz/Z4DtzRcLkJ/qNG4P2k4pbDKzJ48zV2kN19NXfHS2kRwr0vWyH/FJTXSn/YObrzl/vosByIcv/TYIONWlbHPKqMAkOBfF3nsmTMlmMxFUV0pKuwUA7eIQw65S+tUAR6rOKfq/+6WHxRzgjlJZrpjjwsBFgFnp9pHoQylBGBZ4oIfkDsC+g0eI07ZYJzVUX5kP27U3/oqQrc1lgxYPaHBIdxisAXgcmQ7sIz69eYuH2N67+ZoL3F7T+MglDwOIZ1GNoVnXURxOTgYQ21J0DcExoR8eKNuRYodcNA5GnWBnR2oxppSOBL3jPlK+PqTpR+WHoPqhh84HInaauZQQNKLJDmGc2iQpp2zqJ0IbhbJ73SNf8nticvpFZfrAXNj+2sf+7RlzM/seS3aAH/GxPZ2NOJhUMIdBIeWhHt98zZpn2hqBlJ8bg5337AcJLduyg3+9omlhx2EBWmvH0bUPl3IusIzN0WJMmcAjQ23EZLr1W4/LtVx8yMWc5WWegaU4eGUdu2RheFaR6K9PIGFJSVA/Yd5d7KqwHhZzkLmUUtbwOs6WvEwsm/54mb4vF7bBOdhVV9y4HUAszSaUeZDQbB8jE4KvxWzdPX+JCduVqGsk1JPH6ZqwRd7zMnpbUmoxGYIJtKkFGV68Y/M1a37R1gjkzvceA+3RB23LDfb1mE1SFqLOkRJOZ6LZLDGzdI7QqdksFugV0YPgqEMDUteSRZum9aP9mAKlDZ/2ofNDORq5AAl3kAZAY6B1zWYJtqwdl2FOrPTA/LPFHOTudogDMNI6UizdsLtM/2eCLaxae+OlIMU1xsM+JoiYQKuNuBOxWM1PHtsEJNR72QBwz+Zr1li/FHv4XtOoLLxedGbIdHTlKGChOgCN03EGi0VmaZ2VuuroIfNzAUvoEyzmKlcPArDJdoUFHRi4cmDmokfm2WpMn7KDMMM4c8eVMwfWepBfYLJZTG5aXiZog7qNsD1j6oZTWtDamu4ItiA7V1AhgvsZPFLp2LcuiulObJ8f8bEDrcYYlYCk+z+33X3NmpNsDUE+dukrYA7+1bbcYF6v2iPBaSYzsNR0EDIAcjbr2ZG6bO9p145BIyQ47tmGq0N0LafRkaQH0iapnIfgIVWFhU06BWF13jZODMjFroyQpdqHhiFCXCwmNv552b7PCNuX/vENi0cXtoKvxnT/YcbbRNDSH/HB/RkekHT+qtcwdRitEw39x+Zr1rzA1hDkQxe/A1ojf2tbbrCu9+lIsQyACoccqKYEpRz60TkObGYIDtwrWHQBb/fvhR2pjY6Esft4P3HcJcPYMf9YWA9qmwOwbWwEpjpW1aZy+JPxp9T3Xod17gMYP0pMrn+6bN9nhG3QgTMvv+lfQcAr8iBBhQgetOFGFf616MljnHnqi4gzOvfhEZ/041U929p69yfWvNDWEOTDl/wRCFF6tGbbL3/XYxNbxAFrFrsKywwPKG12C7lkLC6wzAWEYZydRYdMEzXwsChr7YCLHIKyAHnGr1uMyck+MLAQ20TvRRLKutiVS/Bg1EPTV+Na0QWlhLGn1/SdYnL65f78kr4mEmzP+PANr2m1xDcQIoV/ooIW1z0PtLqF31sNgc3k1JD6MX2dLnJStsINk176vWwJbrB95H0fAmitrcKIqm9DBS11gSWui/+Tt40Ti9gzaH0Cmnr/DWmzL2CxsEknsDhms9oExtBfK9Bi66xsPayy2Z7LasFFYtmmv6nCh5Fgu2rq5qMlzD2kD/IxA8+Eh2koaiPo5HcFcIx2apZh0qu/Iv0jFbSVfMUnJ3JG1p0bbB9831oYaX2oCiOqrg2fjjSoS63PJxyo2awuQsdUJfTXGSwWzrBI5mcEi6Yf/OxswiBUx4fZMmJXqM8lzLvWV/tcL926rO2jO3ZjOdRL7YJ5hx8lnnfrgSp8GAm2IKU4c+1N94GE49NRcJ8e8bH8uEAZoM0GiPqAo9ihsfbWuz/xFvtt5MbBVtG3kOMoO5vFQEtwaq5ZR+xXCTD2cR8z1QxlXJgjJZZzCR5cdYy7ROlbAma5evgEUp0PQWF6WOhIgiVi36QgTIvSG8Xkpt+qArRBGzTYAsCqqRveIkH8ffogph4w6kGfeEA5Bt37CZukZGAnyZ/LS8d3uuipmylnk/F0NJnugva3ZEBSDLRh1DbksMVszGIRp+a0GwWnVpdnZ8jPziq+i3IoTDMHJND6tg/LHQUXQBuDFWy3w3HbGA1KNbspyaFrx2VYe1Z66PwxZX07bhsnx9huv1acvPnmGsK2u5Uc66MBoiI2HrDgZTt20Q/QFjl5rA84Or+4BiRRuWGGraJdIcdREWhxg88PzDLPRmrsxjkrddVR6YeVI+2WNYIFWx+UnQdEI9Q+CI6bbFfUbDYHZi568LOz6fVDCsKMCH1ATG46zniVxwvImS1MTbXOhBf9FKQ4jgqR5oNWt+B9HhobVtiqgCA4TTW4iYtQnHei/lyHmNMPF0dKdhw+9bDUsjI9+BBUxrdn7INiy1V8UAFbLxZ2ZVwrWMDiIZuNd7rkX4mTpv/AI0uNVdFhCwBnfPjG3xICvk7J1soALZabdEbYbU3nL9GtvaiktlAmK6WePKYGIxlzwiPzIdtGxjIdi0UcL6bgP4iOyXnrF8vecrKa1HKkvnLRpx6uOhIz7Wgt4oufkN2rBQn9JWelarBiOaaUXVmWdQLLsByCIsxxuD4ptyOMvIsuaMOcmBSnbPxPcgkPF1rBdtXU9Ye1ZevJbPSVscQKTx6XBdr0gqKCtlMKc5AUjVBHPUSwpThEwuIML6GAVhdoEdooAmjnbNYC5MlFSgYSHrjSnrvNrkNauSLPzlLmSdEsLmJZNheYOXUZQUsJprqwUYM11RG72FVhPSx0NAZhGvsudggqi0kB3xITm17qgZ9WVVjBNqj5jMtvuEMA9B4CRiYra1/YhNT5EZ+KQRs3hxruEMCW4nAI2URcjcUHBFycITnKVsdlE52rgYeFUzNmYfh65A8IZCKUzh9cgORkV8NyCMpgf/E0eNw2TmFR/I6Y3Fj52/WsYbtq6oYT2hLu0RkhbmNZcXvBtk74rjqSfvI4XRMWafe8UO76UTLTdGCFgSFak5qxKI3hAR5etg1y65ZGP/qjQoUA1bTxJRwiJZv1nb1ZZJsukX1voShRNALyotlslWCRlnOVCiAMY9fah2XAYg1MzOdYtJlpj1C2L9mshc1nLiWMKQxmKddZJZbRxU/CvplnidO2zDiVLlDIGranXvS5sUXHHr0b2jBfCfuym6caR9Fjjz/QKrmo2rWERIlNXrR5BdmmBZdaX3oQa49MaZ1pp4SUcuuWTzbxOVtMK+oCS1wX/yfFeWPlynYcumcjsVWrBh5F9LAsm2vnOXWZ1gf24hCSI/VtH656WJTLXKr+QePvKj8EpfO7Of3tOW3EcDUaGW0DW3tlZbNxtz8jJjf9UQFmOhe1hm3Q0ss+/PV3tEB00/COorid4ZPa4YtuwrtjschomwraQCMZZLafvLBhL7VQoYJakPnVgWE1FMgWyWa7ZY2Og+JwLMZJApJSX2dh0Z2hU9ZRVA8KgFztw7UcpiNVy26bLvaBzjHBntF5Nsy7Cyyd7KOAHsFaNgYszqzrOIuZ9jLxws0/KlSLY2En2J5+8bULxhbP2xu1WQZogzq1qMbWVBL5ugAy51Sy2hr1QJQm1EDv82TXY04wEhp6O+hxg2CLjNfFccROgOCY0m9hiSI5zXLRgMCbIyWAsJAehPq164RStoAjdd42pvSrCCypgVhOP7zYB+bxsPXSDz0s2iTBEllnvg9BYStcyJvFxPRrHVlZuJgTbINWX/bhG/+2Be134MFPDkRMGW3uO4+ziz3dEuYMOhrV5is+sWCaiCAKMrrOqTmwxSIki0WciezqcAhK038nh+P72UjPcCAdCtPpoQliUu7LJ1iK2JVFWS+Q7SRc2X+u68W1XJGApUAQVn42m5T2bDG56dbC1HSswBm2q6a+ON5uH74va295oM2gWel23scF6gXaDMAzMOjpgK/JPJ16i68ZsFUdgC7QMDjl8GeCY0KzN8s2XRwpCUjIGgjbojh5D47Uy7gofS3ySA+mB6FNso7UbDanHy468ufwEv6+1ENQGA5/JCY3nejISS/FnGHbyW6v3yBArOz5trJA2zX6RPXplrDIqke/+NpM95RaDL8Xfi+0Iavt+Io0TAYbth7gkPJ3FNBiRkJw1CigqRCkHoJC+uF8b5baN92iMQQ2hfTAHClxDrzqYQiw9I5BH/yYfIQuaMqUo9hykd0Oy+AyZU7EuUJfI6lyCaur9HuzWTgKeKeY2PQFL9R0rKQQbE+96NtjC49+4ADI6IMGWWF7waZu8rs9tzgQVQZoQ1szRasx0zVjURYvvi7zApLgt8zoBvSerU/QEh0T6UUTOU7INP9kR0p0Vs5gIdZP0iMH2s56WIA8tSNEGZdPu7IMWFz0GPhDUDlz4qJHtdvGkXXthonxI4RYP+vISS/FCsE2zG4v//oG0YaV2DZYjz3+QJteHjH9EDEG6xGfDunRYGXAYIvMtQtU4ommgDbRphLwpA3Ds+MgjQvTA3PyBNCElxCuQ7PSnCAjJRK2pohtZg5BEdsk6aiM3WqeMfuwnANrsOheYEIIRLzqYZgDKx27mmWqJIwJfXbWwAUviAv7/H4xOf0Jb9U5VlQYtqd+7ttjC3fs2AcCRtANBNOBKIuMlg7aOn/FB3H/GtB2xztAsPWddTTsEJQLLFNGT3RqGY4QYUm654zVRd0W9BSIuehoDUsMLEQdvWazhKDARY9cu8pp00VH8kl0R4rlFRNwAI5Y8gxx9P/dU0LtVlUWhm2Y3X7o+n8UAGuSLXfmPy9y6UR+wRX4VdnIsHcdFn33Wo9zWrTi9B/r8oiPbtY6z9m+dQCes1VBS8xq1NkPi1Gy2YRDcInOXYHkknXEbVGctYeAJVcPzJEWAQtlrjDIEiASLgpXPRLlrAGB+RfK3Onu3RPKutiVdp4Nay9XD01fM38mjKncN0ERQScuE5MbP068uNTLvMB21dTto3Oz/70LBCzo+ZU80HaMMhe0yjpTENkRBV3DukWWLdBP0PZ0wpxVNOfh6eytWz5VZ9i6OkNsgnUWoU40NseUxY8BOgc+qaVHfa+xTz0s+tYzme5/la1HP7JZS0BbQxYLOizazEhOCUR8H4IyzLtLYOqiYz+z2WgtCNgPrZGjxNINu0ulKLFyL7AN2lr5ga//4UhL/kU4L73/o+lG3iM+WYPvJ2g7vUGpnnFquE3iQUdHojzQxgFJjWFLAYshyo7theiYSId+ctp0chyW4EqBz6Gsdv3k1OUyLtfTpGRHSrEPAswq0aPbVxcdvW4blwDLjMQ5wWvssYvoQV3LREq5XtaW7xUnT/+Fa3Hf5bzBNujYGR/62kNSiqN1G8OdzpcD2hQSM/aq4Nrwu/ERn5TxdirDqywM2vANUt+pXWaLBR8OUAmFC8pRyiauif+TUo6araCziNwKIbbpsi2YG6jmOMhcPXJg5gQWi/voXoIOzbxkbAazDwLIk6vXWo86H4IqAEvne/fUR758Ywyt7wk4fOY4ceyW+E2HlbSa04hX2L70gzecKGBuG0D2sFQE2mAe9flc2ngVRMZVZMeTd/I46xzr+IhPakzdLfauq6gZbCnZCh5kpKAaZytlRtmYw7FwwKagDAuz4nGpVuqaseSUs4YDNfDA2nTcNi6kBzGwIe125EDbRUev2SzBJl10tB5XAUCTdzsqQp6A88TEpq9U1BqpGa+wDVp86Qe/9ncC4G0YEG1AmzY/ndPsXJUf2CvINhlgqilksSuN4f4Yh01nvQT/Vwej3v2b6Ip6ZbYqaC2dYSrToW41qXNv0aYLLOM5MsESsw3dvKp/V3WkZm+J63KNPqcfJvtHb5lgNmsYU9xVwnVeD0FZzoGzHkn70K1pD+tFO8+GdZA7Lk1Zp/VS+ZugKGDbChMzvyJE9Z/Ry+ucd9gGh6VmZ5/YARBsJye8q0VGSwdtcx7xSWb+SZuvB2w9wCHlfCnATFxjDRbHw0yk7TMEjGH/KGNSrrMaV0E9Ml2k9Je6LejTPghZXrhYum26wJI0zzZAIgQULrcVXOzKix4U29AlDrpgh8JIX9eI5WJy42Zftfmqxztsg46dcdk/v1iKsU0gxFhnXRhOHmNrVbugkgjHHFAqferh3hS1pdYuYjCIY8zaNW5ovaL5J48xH9B/2FIcqW6BqfMT/G+CYyI50hyH4OJwXJyhNnsjwNe7I82ZA2c9LOYqtewozppiVwYdkTWZdoya/jvrobpdwu4MOs8GfXLHlTMnuePyvV4IY/dFKZt6JHwBJjddJETe9qFNhf6uLQW2Qfde+oGvflQIcVn+gagU4ZJ47Y4w+3tvTfsHbWdp+wVtzx/bg7Zbtk/3bDEdKE4UcZBNPATlAssiQLJywAUzP9KboDzAMmUqlmCvTA8+BJUJYKr4HJ4L4yTshZH2L4plmx93KV52mdJgCwDipR/46rcAYAUec7uDttKTx8iixgPInFHSHvFB5zp4qcV3PvW2il9qQXGkOZlUBioWjtQ669AFZMQ2M8MgBBTal7W4Ziyes45C26RE3ZLW6hp4uJSzto8u0V3K8SEohbM1zWZ7/uY3xUmbbiobmq71lwlbeOF7v3jYwoVLtoGAY7MdLP/ksfGlFakEQAMPBba4b84DbfCbDky9LXZ8AjsvtfjOp6uErQpaAnyQPYnOkKmLUwWmRZsusAznndIGcg0ZtJSABdkFSGqp2F4mw8gYDRZ4UMZJvf+G6YGNwTXoMNSVq0dOWS+g1a1jD+tFOy6qjhZz4LReankISrX+r8DEb6wRYsrw8gJXVBYvVypsg+4t/9C1p460R9YDwCG97pYB2qzBDdIjPrpgJLxnWwlsPcAhngLMMVEdBxEOpOxN44RcHE5YxqJvqeyeWjZRf2Wg5UNQmSAGtQ/1j9RAjGL3lnblEjw4v8CEupaLw8i9BvHfcMjIc8Xxdz3pXkf5JUuHbTCElX/21TdBC/4JAEbjFyInxtazHSwy73mt/MA2bbB00GocodIY7p+xRRK9QEsXCXfH0+2gtoaeFBXAlgJavKcD9ewsKZtF7IGczSplXTIWL46UmOmg99IJjr9Q4EGoH83uqQFL9zoXHavcNq4ymMpIR5yDuj07q+PhwbmXiBfdfXf5uCzWQiWwDYF72bpLAMQ1wb3cZJdpoG3+Iz6prD+xOMrPbFXQEhdi+jVb3azPsqyLw8GjHmUVuGYdlKCD6PRdgOSiR6mOFNODCPKMfRB1I5fL6YcX0OqCZV/rxVJHo91r1p6xnKYf5MC0GICKl67H5/Mo46gMtiFwP7DuIyDFB3u5KoJdzE+iC1BTi8m4ehmj7ksGUeoZdy5bJZ7l9Xyl28njToOZLfaSMltPYImhompiAK8LWExzm8yIkrPnUs4Flim/RQk8Ete46OEEWt42TjtG7LQx8awBGUjqPFNsIx1xZ4Lx1CAooCW2OSjZbDj+9vUwcfxqIdbNUWDX72sqhW0w2Jf+2XXXSAGXpqc+RUDFjDCHhEAaPfOCR+adv6JUJ4BWUzb+/oJX0AaNlQBbCmjxgCK7bUx0TM7PzmYDEPK9UxdnGDZHGDtmQy6ATjVFdIil33+j2Ae2DlzLYWCxnAMXHdFHWAhzgM6zz+BS5/PUNnLatNZjIA5BJR3/D2Hh+IvFc9bv7zdEqe1XDtugYysvu+5KCeEzuAJ/E0zUffqrGI0nj1P22w/Qmk8eo2+t8wpbbNwE56KCJXY2lLKY46CUwyCrC3Qo4yK06QLLnqkSD1BR9ciBmRdHWqIecdUWcDBm6b7BorrIoH5Cf10COBe7sp5j6nrR6FjXZ9aAvnEAACAASURBVGdxkj0CsOsEMbn9aSro6nBdX2AbDHzFZdddLEBeHR6aQoPYCkGbWuidzmS6pF0w0YEo0ufyNHOe3cpKtO8ps1VGhI4HnYi0GlrQenaG+klIaKhzHJgjNfyNnM0qHXMBS6WOlD8gkJr5Kg9BxaZCCGySXsfaProFrMsFS5u6M1UHXIV9eBJAnCAmNz5Rmx4RO9I32IbA/dN/erNojX4BZPKxoI6F5ttN2njpJ481MFEcpj1osag4yQT0vVTdC/JAG9a79TuffkfBl1qooLVc/HH2phsnBbQWbeIToJg0Uh8p63AtR4UsGiUg7/K10MOY9WnaJDlSTA+sPkN/tUGHoS6rcom6nMCijoFozyS7otoHVUeLOXBaLwO3bRwI8hQ8JZ4rVg4eaIPO9xW2QQdO/9PrXgRCBm/9+IWONy0LtDqHFJMkGVv2HHuOMwh/svyKT5oY2YhUCSMKwlZ8KNVep8NIHEZxAJhjopSzbNPZcajDIoyzsB6IlHlbkZWBpR/ZrAUcXIMH0rPVmnnP/JmY0TmDlmB/SY/jEjw437snjh0z7779TT4EI6MniqUbdvetCwUb7jtsg/6/7E//8fA5Me96ADizjFcxduxYF8Gnf8NtPls2rlO7/ditFzvsqFlkWdCGMN/6nT93zWwTsEXBgjkERavwEurizAYPpPtgpMNTujm0dGpxbEUYO2Y3LoDOdaQ5/XBxwKRsFtGSPC6lv+RyiTZzg44caDvpoeqLBY1UPXwGl4m6rO2Dss40Og7WvdlotW6HR8dfIM5aP1uQd30tXgvYRgqs+JOvXAat8NGgBZqbprFY1ANRzqCNbRV3hh0f4/3kcXd8ycXkAbaFonMKzDDHQSnXC0jSq4BYluQ4PMAh5bcofSuoR8ZPUtrE7JFQzgWWuXr4BFIR++jHBwQIemsCbasdp0wzWEChcoX6yFdfeYR0Gm4Tk5vOrlWvHDtTK9gGY/iVP/3qc1swe4sAcaLOAVNB21mqyAJAImvcfvsN2nAE7pltK8hsiQsxKXbsgC3KWmcdWHSek9WkjMHxe7XkoEPphwuQrPWgggWzyX5sG/cDLMQ2+RCU4jqpO1OOFCmn2AGQ8GFx0qbgEG0j/tUOth1VpVjxZ+suDsQGgEOTwKg/aJ0f8UFO/RaB7XvXQquVvmdLuV8b+jPq4lSBSXSGpHtvGHh9f0CghCzMOgtOFHABNGnbGAs4LeYqcnVIkNrzgjmBmVW5onpg/SAEjeRALFGXdlwl2JUxm9UEqqTdn9qx7B4YGVkllm54sHY9K9ChmsK2M6JVU18c339gwT+CFME2wrgRtKl1imelPd50frfPaHUw6s6CLHLyOKojOaOuma0KW4PDcclmXcHi7DhUSycAA81KNbaBvoLSss3KwNKPbFbj0DMOCNu1IMxVtCKN9qGpK/NnYtDoDFqLMWWksyhbWhBWgBzlFN0LQnxSTGwMkqzG/as1bCO1J979V4csXvzM6zoHqGC883csWo9+aQpow3E6biNHsKVG2UTHRDrMlNOmk+OwcEypOMW1nMa+8nYGcsflWw/LuYo0IT9LrPQXDVgMGlUWdOh2O1SNdP7CEISqvsZqXIm6rcqlsoaERRPtObPboQsua8OzGQD4d9g385vitC3Bfzfy30DANlL+1Is+NzZ6+KGfBYC3AMCi1Iykgmk9iFNb0inHHHskPE4Pq8w5ENV1ZLhZ5760AnkGM9mF9tbv/PlvOzxnG8BWefQHdRxBjymLuKDjMGYrugDK0hnG1VDGpLSpdYjUgMWiTWc9CBBBX0Vm0bfMUrCcAxewOOnh+F5jl+DB1a5yg7CcgMWoBzaf1N2O2rDsIADcCSMjrx/kR3qoag4UbJODesn7/+kMEPJrQrQOBQljPbN1AG3OQur5DdeTx6koQMWdAbTBlrTc+l0vsFV0iR2OhSO1dhzZsdPA3p0Qo8NBnBV5SxADrSWQvOiBOdwijlQ3z6pLoAQQPvXA6sLmmdjmQB2Cyhm7PmPo/kLVg7rbQUVDadcFA9oHsv1ZmNx8mRB5GUxpfehLxQML26RaK/74n98ghfyMlHA0AIxg9qvNaHMjVsqrGDvRtW45IV/xSXQPg1Hv587dXx+wTfQu/k/q4lT7SFz8jTwEhelYhR6UucKCTIu+GbNZQ1DQi0oRR5bTD+uABds2JugTB5cuQQc1IOqHfQxENhu4sjloyW/ADLxHvGD6gb7Qrs+NNgK2CTyJU/9k3ZKRudmLYATeDW3xS53feosAT5ZwVHbWp2tGm43a061QQBvsXMut3/2M6zYyaN4gpY6XkuVgDifnb0YnqnFg+AQpy0S5CHWkBNC4OGDjuDTtuowrCPpdypH1wLJ7S7CUpgdVRwpo8fVt3GXpm30QbFfrm3Rj7Qdp5FYQ8EmQu78CE9tnhMjJSfrRvYrbbBhs0+qtXn3tyLZJGFn8+MHxuXlyuYCR00G0TwfRWgpSHgcgRnQ5qRm0do/4oKDVsCp1ntkZtn/Ye/QnbpzgmJLBSa4jzXEILg6YvP2rgpbomDInjS2Dh9Tllm066WE5V3Fmatm3VEZrWTa+3KKcS/AQao+1Qbh/7WJXVuNK9MuqXMKgvNhHPyAbZCJiBwj5A4CRTTAzsxHmz9sMc08egIlzZ4WYMnydpWLa9bm5RsPWpG0A452T28XuB4+prQ6Lj32+XD91lvVryuSDXdjG0TnFIRZ0HEZHqnEIpGcBVchSYYmVs8zeXEFr1EMzhhk4CU5Y/COT/fLvqgJbhkeSfg5192IJO4+U4tzB+Gh7XYyitpCpi0CD2o8QtiJ4qUXg8VWv7zMr7dblEp273tctPVuhZh0+dQza7G4bt+FE8ctfYdgO6uLjfrMCiAIM24aaRQe2yj3b5BZxatwqMClZcBdIxuyNms0Ss83SQVt2dq8ZZ3JcDNuGrkoe1jArwLBt6OxnYWsAqMv9Jpds1gWWMZ8sMvRoXuNtdHWifWel6pF03T009e/IISiGbUNXJQ9rmBVg2DZ09tOwdQWLaznNvUgSaJE2SeWUNl2Ch1QVFtl9ZriUsjkf724L3kZu6LrkYQ2vAgzbhs59B7ZS+RCBByB52zYmAImclboenqpCD8K2sbq9z7Bt6KrkYQ2zAgzbhs6+fPAP1oJQX9foepjJtRz1Kz0IkPqSzRLvG5PeD63J7inPzjJsG7oqeVjDrADDtqGzn4Vt1YegdK/VItx3dQYt9T5pDQ5BxXaH6NFu8TZyQ9clD2t4FWDYNnTue7D1CRbC1m+Y0BGvI70wn1AXebs5kW1aH+4qkN2HjzgRgoxID4ZtQ1clD2uYFWDYNnT2O7DtPvqTCxafh6D6kc3qtmsp4yKAPLqfarxXTb03S+gvw7ahq5KHNcwKMGwbOvsxbF1O5RrBooGUsRx2b5YAnwh4yblyyWZTTbmC1qacRTYbjS0oInkbuaHLkoc1xAowbBs6+SFsIXqpBQUQBbZJnbeNKf1SYOwSPGR4bgFB6+3moDHXDwhEczDC92wbui55WMOrAMO2oXPfga3h0Z947Nj2LxFIGC8pr4d0AbQ2m9Vs4SazRSw7zvubE2Rznp1N2RkiWlIPybBt6LLkYQ2xAgzbhk6+fPDdawE0j/6ojt+4/YvBwQC4JMidtn+VNl22jZ2BmemwYiW6bXRigGLSg2Hb0FXJwxpmBRi2DZ39LGw1IHABkktWGrK55tvGxqBDE2C4jKuxemDzHN6INgcsLjoWvq1gYZMU+xhbPC6ed+uBhroVHlYBBRi2BcSrc9EebHVZmNp7gjMkA8KwTarLetVt3VptGxcBrU89sH4YdhlcgEQBC/Yt8AwwCd/lddm1SA2ZYruJa8rUY2wJw7bOjrGPfWPY9lH8MpvuwFbz1Z9Ks9myt5sT9VuPq1vAqRzlPjcydhQshOzKBUhO40KSUEpWmvlcIpbNYnoQxq4GYXE1lmVz9cDq6jZkoyPDtky3NtB1M2wHevr0nZcP/o+1AMH3bKN/rmChbv/2I3vDQGvhgJ2yN+ohKE9gccnCcrO+nMzYSY86bxtXlM0mlyHDtqEetfiwGLbFNaxlDWnYUrIwTWRv8+ajFNcp0FOuccnevIAlJ6tJza7rIz05gEvVj+nhsDPgAmgn0GKfFSTMOzm7V8buYh82WWkygzbqoV7QzeTHDuNt5Fp6xP53imHb/zkopQcd2HZPI1s7HGo2W5fszRJI1noMWjZbth4VZ7PxcAggR4FpUc4IWY22UVA6j2FbikNrQKUM2wZMIjaEELbS9OiPxgmhiR4WySstO58mpWaWPrcFbRwwYeykw0KEDNcqKy1bD01/h/0QVN5uB8O2oR61+LAYtsU1rGUNadgSweICS23WQWizb9uChL6F8KRsv2PZvWVmGVlQrfXojikjHeW0MUVvqo6GgCV31yKnH752Oxi2tfSHdegUw7YOs1BCH3qwpTi6Yf6AgC67r2s2m4CNVRasgyXFPnS3FVTQInW5BHBW4/KZ3RN2HuLASDP2eYfzPdsS/FkTqmTYNmEWkTF0YKs++kPdNiY4YHIWptRFLqc4PhcHbJ2tBG0OyyEoi617p2yWmt1j80ywv9Dmu9dZzzNWjtpfg30wbBvqUYsPi2FbXMNa1iAfvGgtSOTRn2RvXbKO0CdZOsOUH7Ms2+9tQcozpo3Uo+JsNrYRV/uwKJe5lFhWEjJ5hm0t/WEdOsWwrcMslNCHHmw9ZrOFQEt0aEm4WWWz2DYpsc0Qlg7bxoWydIvMMt66zPxHwnIo80xtEwMt5d4sdRsW2+2gZpau28bUbBbrB3W3AwAYtiV4s2ZUybBtxjxmRtGBrXoa2TEr1WYdBJi5AMnLtiChb+G4CBBJblnGvCPWr0K87nqgh8IIGjU2uyeMPbn6GLYN9ajFh8WwLa5hLWvIwrYuh6AM2VXhbNYiQ3J5YUeh7J6a+SWuq0wPx2y2Ej1cs1nqbofGZkj2oSx/hm0t/WEdOsWwrcMslNCHNGx9PsJCgJlL9paqlpI1YtuClHJFslkqLLFtUmLf+rGN7pzNEmwB3RWg6ogFHdSyBeyDfEgOWbgM2xK8WTOqZNg2Yx4zo4hhS47OVUBUBIeM77S4d+qy3Uza7kTGTiqnDMYlK61Uj4rfBFVYDwubzFxKKYu9KUy3E6NxHAzbhnrU4sNi2BbXsJY1hLBtEx/9UUfgDBaKQyuSrVC3BTFYUu+9+cxKLfWwzu4L6BEWVftH0Ii8a+FTR9/ZLFafxSGovBXPsK2lP6xDpxi2dZiFEvogH7hI+cQewfGjjtS1nGGL0SUrNWZ9GqfMh6DSFobudlDmmXBN2FLBe6zGec7ph4tdkYNLwkJl2BJEGs5LGLYNnfcebIkOkuxwKI7UpzPEsjcDyOM5pW4Llr1trNuK7P7dZXvVuE2qadMlm0WzYEK2qc2CqYEY0XbRb+lmtmuQle4pm03WzLBtqEctPiyGbXENa1lDB7Yy8T3bqJuu23uu5RKO1SXrMGY5vrNZC5AnZ568veoh87PWkfqCCmTspe929Mk+ihyCylvxDNta+sM6dIphW4dZKKEPWdiWnb1RsxVLmFmDpS7ZrCHzyx2Xz50B3Ul0tY1+2AcGWtds1sKuyIcGHRYmw9ZBtOEowrBt6DynYevTkVo4Q9es1HVb0PnerAGMsY14yO5TTVloaR10+M5mCTCrJLtXt96pcxdcV8K2seo/GLYN9ajFh8WwLa5hLWvowLad3UYufVuQck83kkyTXTmBhfDe2rBZFZgWwMt027Ks9bgKgIUPQSXWJbbboYN0weXMsC0oYHOLM2wbOrfygd9Nn0b2nnX43OrsOr5MlYStzjALJl6nzrXzobCyIVtUD3WghEd6wiYtxxXzyrWcTVaqbocT2yTvdnhyBAxbT0I2rxqGbfPmtJO/JWFLBq2HbdK4CswZ5mxFWmd9vt8EZXDeueMqO/CgggW7jgDa0nc7EvNuPc9FsnvC2H2vf4atb0UbUx/DtjFTmR5ICNvwe7ZER+38bCR129gnkPqRzeYECinpMT0sy7oACd0VIGT8ztksdUwYaC1sstTdjhIWP8O2BFGbUSXDthnzmBmFvP9314IgPPrTyYN75clZcJFsBdsmJTrg0j+H5zO7r2Kb1Gc2SwCoi32kqqXM84Bls8nVx7BtqEctPiyGbXENa1mDvP+314JIfmKP4OTIjpSazZa9bUwYU9gF4nWk7J663UwFbRGwYJkrYaxe9TCMMzdLL3u3Q9e3Epcsw7ZEcQe7aobtYM+ftvdp2FIBQdh2jIBkvdWJZbOETCrKvPkQVGKu+/HsLAHi6C4JCrw5kO3bQcjbQLZ+CK3WoyBnd8EMzMIYjMKsXALz4EiYay0FaP8GCHgFSNHqCID0g7zbUcFiZ9hWIPJgNsGwHcx5M/a6B1sDQMnZbMLRxVViDrjsbJYIaHRcrkGHoU3rwMNnNhv0jXAQqHQ9MPtQdBPy3wHkZ+HpvevFaVueMhpx9wK59ZRFMHboKgD5LgD5mlS5qk8bmzrNsDUpNLS/M2wbOvUd2OZ89UcLTJ9AIjjgWH8kKKg8myWCHM3ui5SlZI39yGapYzIEYlLeDCA/LCbu/E7R5Sa3rjwJ5sHlIOFNtEe+irZoWZ5haynY8FzOsG3oXMv7374WRCvxUgv1PivFwReBZbesddYX3WO12NKO5pCcpSt1k8v1Uw/VUF2zWQJAXfRIVRvpKx8FAe+Epd+8SeDH4p1Xn9y+/JUgW/8EAM/oVKLbZXFuwq0gw9ZNtyEoxbBt6CT3YKtCVueYKIdV6rJtjIyh9G1STEeqlj63jYO6CIFS6XoYAg8J/wb722vEi+/cWdYSk/ecMB9mjrwOpHxtWW1Y18uwtZZsWAowbBs60x3YJk4ju2wbu2SlmfcaWwBpoLaNCcCLMq7MpZSyA7xtLOT/hqf3vEuctmWmiuUlt73kMwCtPwCA/vszhm0VUz6QbfTfOAdStvp3OgVbl21BL6ClQMX3m6BK2iatVA9Mt0HYNg7Xxd/AV+74H2IKPbVV2sKR25d/GqT4o74Dl2Fb2hwPesUM20GfQU3/Q9hClNlSoOdzu9l3NottG1PGpJRzye4zTVPa7ce2MaVfRfQwbBuHP8tbYdmzzhFi3Vw/lpXcvuJrIOH1/Wg7bpNh21f569w4w7bOs1Ogbz3Yqk6Ycm+WCsvudcZtUk2blW8bWwLJSzZLyLS1282EbLYDOcRSDH9z2e1IDSVjV4+CmDtBLN2wu4DZFi4qt624BwBOKFyRawUMW1flGl+OYdvQKZY/fftaaOU8+hOPW83CMCedAwwXIJGfjVT6UvqhHyy7t4ClUxaMwTLoBwGgpetByGajQAHaJ4pld/2o38tJbl/+PJDi+wAwvy99Ydj2RfZBaJRhOwiz5NDHNGwpWY7vbFYDqaZms06gHeBDUKlgTf6dWHbnOxzMtJQi8genfw6EvKiUyk2VMmxNCg3t7wzbhk59D7ZlbxsTMrAQRMQt0czH3alBACULNtRlnaX7vDcb9I2gEXn714MeKbly5nmmfYQ45a4n67KUZHAq+QenPwFCHlZ5nxi2lUs+KA0ybAdlpiz7KX/61rXQSn6IQAGN9rBQCUCqPJvVZNUZDbFtY2Lw4PyIU5FtY4u+RWPVzrPhdkFu4JH8sf15seyu37M0z9Ivl9tX/DVIeFfpDakNMGwrl3xQGmTYDspMWfYzC9sCWRgJLJjzbiO3HonAqOrQj3U22wV5ZhiZA0PIjGHbxoRsNmySqFvRzyVSs9lodLMHjhYnTz9iaZ6lXy53nL4Adsng/ctjpTeWbIBhW6ncg9QYw3aQZsuir/KBt30Q2vCRThEVtIasJm6nAKBJ28ZIP0o/9INls5aZsAugUVgSQFu6Hph9kPU4CEvvHBeiLu9KTC8Quf30b4GUp1ssm+KXMmyLa9jQGhi2DZ1YueOt7wEJn1G5STrlGgHamL1hTtkxmyXfi1TadCnnAktSdq+BFKojIRN2zmapsMSydIsMWsI7xcSdX6jrEpLbVnwCAC6ptn+75ovJ7QerbZNbGwQFGLaDMEsOfZQPXHghtMWX0jkHwcGjoCU6YFI2i4CADEylH+Ry/cruNVvrmfl0HZdrOWo2mwPtoOlW+xfE0g0POphnJUXkvaefAAdk8Nxtdf8eHR8TZ62fra5BbmlQFGDYDspMWfZT/uTtZ8BI+5udYkRYFvkwfAa0hDZdYJkaDiV4wLaNCX1Dgw4LLdFDYYR2S89mC26jJ4ewd+8icdqWvZamWenlctuKPQCwsKJG22Jy00hFbXEzA6YAw3bAJozaXbnjLSdAu3WPFWiN28aaTM1YDstmsboIMHMBtJdtYwIotYAm3JsNh27RRmQI/dRj2StGhJjCBkc109Kvk9tW/BwAji29oU4DPxKTm06sqC1uZsAUYNgO2IRRuyvvWX0kzBt/NH19jjN3ARJp2xhp0xkqBBirmXzcvCXInPSgbBtjemDjMvTXalwFs9lM97r1LburVdfDUXEssm3FJgBYTl03ha4T4u/FxMa3FqqDCzdWAYZtY6cWQP70woMgokcfNM7bJSsNXr7gUs4lC4sdfQWwJB2CstFRvbbswMNzMGXSYyBgu/w2APGqipb5u8Tkpv9VUVvczIApwLAdsAmz6a782YXBNrLmpezqM59EmJGyWSRTQ7NZQkbnAmirrC/Rh9KyWUwPhyy9cOBB3brvXmfSYyBgu+IWAHi1zbpxvrYFvymWbbrJuTwXbLQCDNsGT6/82VvuBICXZbaSXbLS0NGrt+cIgHaBZYpDhOww8yIHKsi61znp4fiCiibpsWzDAGwjn/5NAHlGNctcvFhMbvxuNW1xK4OmAMN20GbMor/y/gu+BlJ0v++JZSuEzDJsz3XbmJpJKf1wAVJuFpbTD1P2hp3k9vqCCkJg4F2PnDZt9Lh2w0jVH4m3MP/wUrltxb0A8Mu25Zyub7WfKZZtftypLBdqvAIM2wZPsdxx4ZnQluvDG6xO2Rv1AwJl34s0BAW12zYeEj3GloyL5916oM5LSG5fsQskLK6kj/tm5onTtsxU0hY3MnAKMGwHbsroHZb3vX0cWjN7QYIyz4TtX+dslpotl53NUrM3an8HYNvYJiuNzYgSiGH20gYQc7XO5OTWUxbB6MLgY/YV+Dl5g5icfh19dfKVw6ZABUY4bJLWa7zyvgu+CwJe2OkVBbKB8yVepw6VVA7pR6FtUkpfu206Z/dqQd2jpcp1tTkUlhNQuAA6unc/N7dSnLJ5Y70svtcbuW3FZQDw0Ur61xLniGUbv1FJW9zIQCrAsB3IaaN3Wv50zXUA4o3uoCXAzAWWKf/Ph6DSsVBd9VDu3QvYKSY2HkW3xmqvlD9YcQMI+M1qWh09XkzedX81bXErg6gAw3YQZ82iz/K+85eCED9MF9FsC7pkfuRsVsmuXABtfQgKOxRGCB7Crmo0SglJvTdL2FWoRA8sw6fqoXkL1sjIErF0Q7BVW7t/ctuKoF+HlN4xAXPwyPg4vxO5dKUHugGG7UBPn7nzMrhf+7M1QcT97M7VSNZEAiYVLAbnbXWYKVGXVTkMKgTgRXJm9Cj7dYvUvhXUI9OMK2gT5driDeLkjdebLbHaK+T2FX8MEq6qpFUh3ysmpv+ikra4kYFVgGE7sFNH77j86fl/DyDeQgMtwQGjWRhWruxsVhM8oOwibs2i2b2hrEtWGveRoHcySHK5x0o6je682zEDsOuQun1WTv5gxb0gKnrkZ6T9XLF08330FclXDqMCDNshmHV573nHwahI3E/iQ1CZaSd9pYea3ecEAXH2TM1mE9e5ZPfeslldf4NP7ck3iWXTX63LUpLbl78bpPjLak4hi6dh4tmHCbFuri7j537UUwGGbT3nxXuv5M/W3AFSvrzzzC0xy0v2olD2RoBPMntLXW6R+aFZqSolto2OXVNmNlt3PSj2kTKONkDrSDG58QnvhmtZYXjbZNuKh0FANQe35sTrxSkbv27ZTb58CBVg2A7JpMufrjkbYO5mp5dbkO7pIgBxAXTuNmkOeF22V70egurHNnpOm8562II2TtX/FSamX9XvrwDJ7cuvBykqfN51fLGYXP/0kLgRHmYBBRi2BcQbpKJyaqoFb93+PRDi5F6/CY7VBbRW250FD/04ZbPYaeOgoqqzWUOGa6Ujtt2s2/rFtsMp7702Wbx4j5jcGGzf9uVfuH0M4rMgoVVRBz4mJjd9oKK2uJkBV4BhO+ATaNN9+bPVb4J2ax3pmVs0K+1H9pYDJCNoNZkwWs4EWup2ttJf79l9DkCd9SAEXVRDa7V/Qyzb/C/Uy31dJ394+qugLW8AgPm+6jTWMz5zmPjlLU8Zr+MLWIFqDhCwznVRILyfdd+5d4OAU9N9UpytSzYbM4AKpe51LtvGRqhogOT1EFQ/Ag/f28bER5rsDfhsMbnpVvtibiXk95e/ElrwdQCx0K0Gl1LyE2Jy+v0uJbnMcCrAme2Qzbv8ybkvBwF3dIatQjYna8ro5Lr961qu27cqQeuSlaYkpAQe/dCDekiuwOKQ8vdhcvp/ln0PV25b8XYA+BwAzCvQW/uiT4mFYuXGffYFucSwKsCwHcKZl/ed+2UAeX5q6EO1bUzI6MjvNVYCFBdA52b3OQGQMfDQbaN73DbOWz9SfgnaY+8Vp9z1pO9lJq+FEZhcEdwf/r3Kd+gkvF2ctOn/+B4T19dsBRi2zZ5fdHRyx+ojYBb+EwCO7CS4lAzMUyYcN2XRphEqGiCVvm3sYWfARY/McIlaRh8QyEZZ5a0CAQ+CFO+HiWd/xdezqHL76a8HKb8AAEeU13FtzTth3aaj6/4d3z7owk0aFGDYDqmJyPvOPR+kDDJcRAHD37SAcC1XJHvDyg7A5/BS3baYA6fAQ/mAQCfCqtjy5XaQ8koQC29yeVRGylPH4D/HzoG2/DCAeEHFnY+aa8PozLPEXFli5QAAFdJJREFUiVse61P73OwAK8CwHeDJK9p1+ZM3/QMAXNCrh+D0vW+T5rTpsr06UNmsJlDA9yMUPhLmKqyesGVe1JDsyu8HkF8GIW8CENtA7v4Z9qpHefuqUTjqwC8BtCdBwtkg4O0Aotr7stlx8aM+dnPNVycUYNgOsTnIb5+zEI6Y/30AeK4xw7Xa7uzHoR9sO5wAGpfgwTorLahHhskU0FZwCMrH2gm+mCPFz0C0HwEJ+0CKcRDiaAD5nMrvxeaNR8B/iIlN/cqofSjNdfRZAYZtnyeg383LH68+GUQ7+AD4onRfVEBQHHyCCtZZabeAcZtUd+hHVZICWt1WquEAkQugrfXoaumkRx22jftt2R7bl3IPzH/8GeJ59x7wWCtXNWQKMGyHbMKx4cr73vRbIGXwmTTh5XEgqyyYChVsy9Uxmw2rsgwerLNZLPCwbNMF0PXbNh70FTYDMPciMXn3tkEfCPe/vwowbPurf21al/e+4T3Qgs/EHarkEBQ1m8VA6/MQFCHDdclmXQFtzGYxPTib9b6Ygi1uId8tlk1/3nvdXOHQKcCwHbop1w9Y/uSN1wDISzsHVX1mYWUfggr6S3i3r0s2G0tRth5Yhk9sk7PZMlaxBBCfFJMb+S1RZag7hHUybIdw0nVDDl/n+OM3fB6E/N3sNTn3Meu+bewSPORmpQYIVqoHIchgG7dVQIIUfy9O2vg224J8PSugU4Bhy7aRUqDz/uTXfQmkeEvnB59ZKXXbuOxDUISM0QXQLvdYw+8Lq0ZoOKAVXs7bxiUtXQZtScIOe7UM22G3AGT8wf4Z/Pi3/hJAvFub4VaavanwIZw0DuMEAlTVgMJqXIn6rcphW8aGwCY5EZltY909ZzZuSwUC0/+imNz4O5bl+HJWwKgAw9Yo0fBeIO99w4eg1b4Cgmw3mX5ZgQXLZgkHkiIIZi4lgBbNSgltumSzKUZawN2YzWLw5Wy2vNUYRDDi42Jy0wfLa4NrHmYFGLbDPPuEscsfv+E1IOZuAAkj6e1OylYnFbQIpNCslHB/0iWbjblmAcsMC8vWgxBkEOaTL0EVmIUWvFMs2/R3rA8rUJYCDNuylG1QvfKn5zwHZkf+C0COWZ1SNt7DxLI3n4/0aOpPbclG/8MClpVms9grF3nb2OPyOgAzc6eKF/JztB415aoQBRi2bBYkBeSO1QvgwIHgBezKB7o1kDKCts+HoKy2whN0tR4Xlt0TgoBwVnjbmGSc7hfdC/MeO4nfDOUuIJekK8CwpWs19FfKKWjBhef8NUjxe9oM13gvUpOVZbZ/idumLtvGVqDlQ1CNNPy2/Fv46vQ7+VN5jZzdWg6KYVvLaal3p+SPz34+yGBbWdmCtc76uhleqYegCsIyk4Ra3Nc16oFluJzNlmr94VuhxK+JZRvvKLUdrpwVUBRg2LJJOCkQfjHoMLgTQL44rMAIFsohqOAawr3T0rNZbNvYArJOemBf6cFg7DRdXKijwL8DjL/O5Xu6LCArUFQBhm1RBYe8vPzha1bCCKwHIQocngpEJGwbkx/NUcBILqfAzWq7GcvSdQeZkIAC/Q7vkBuXv+HPwog4B0581f8VYgozNH8tcU2sgEYBhi2bRmEF5D2vXgIw8pcA8sJ0Za7ZLJLR9SWbxTLLnAzXJbvnQ1CF7S+/Avl5eHL0UvGyDbtLboirZwVyFWDYsoF4U0De+6oTAEb/FaT8JbTSyg9BWWSWUYcLZ7MYoDXQ5mzWm+1lK5Lfgxn5Znjh5nuy340ssVmumhXgzJZtoAoFpJxqwU/u/lVoy2sB4PCwTdILKrBs1jKzTF3u8x5rkWwWGwMfgirRFp+EOTgXTh5fL8T62RLb4apZASsFOLO1kosvpiogt/76Ilg48maQ8OcAsLhXriGHoIyPOFGzWV0mTFWar+sqsB9a8i0wesQ3xPNuPcCqsAJ1U4BhW7cZaVh/5HdXHQYLx9eAgKsA5CHIdl/6T+TDTP04BIW9oMIig+Zt4xKsW+4FCb8Dh7ZuEMdt3FdCA1wlK+BFAYatFxm5EpMC8sevOBRmW28GEB8DAc/oXK8C0wJcUYMu91gzTRMeNyJ9Ck+XpfK2sck+rH8X8HOQ8vdh3uO38RugrNXjAn1QgGHbB9GHucnwtY/7dr8aoH0lACyLtXA+bdyPQ1AWQQFns77N/XaQ8iMwOX2HEOjzYr7b4/pYAS8KMGy9yMiV2CoQvvrxzb++AlrwHgB5HrKXrFSZAFyV2awxC9Zls9hLKnSBga16Q3f9DAj4NMi5L4lJ/mDA0M1+QwbMsG3IRA7yMOT9rzwW9rbfBKL1PgB5fHYsPkFrk5WqPaFuN1PbGORZK73vwVeU74AZ+VcwM3uLOG3L3tJb5AZYgRIVYNiWKC5XbaeAlKtHYPsTK2FErAEh3wYAC1I1kA9PKdmmVSZc4BBUuGVMAbKdLkN29T0gxN+AhOvF5MZ7h2zsPNwGK8CwbfDkDvLQ5H2rxuHA6KugBRdAW74eAEatvqVr3P7VZJ9Oj/QEjfEhKHd7Ez8G0f4yzMIN4pTpLe71cElWoL4KMGzrOzfcs64C8vZV4/ALo6+B9tzrAcRrAeDQzk+Ul01Qt3Sxj9ZTslT+gIC1oYpw4r4LUtwAADeJyY3fta6DC7ACA6YAw3bAJmzYuxserDr/rLMA4GyQ8pUgxEkQ3N2LwJviIwW0BbaNOZu1McddIOXtIMVtAHM3i5Pv3mFTmK9lBQZdAYbtoM/gkPdf3rPq2TArXw8tOAva4gwAeCae9frcNuZslmB2wasSvwNC3gFz4hZ4bPwucRa/PpGgG1/SUAUYtg2d2GEdltx21nIQ7dcAyJUg4CUAYrF2u9k6Cw5U5XuzqG0J2QYpvg8S7oYRuBUO7v0X8YL/2DOsdsjjZgVUBRi2bBONVkD+8OUrQbRfDbK1HIR8AUg4Knu7l7rdTLmv22g5k4N7GgC2AcjvwWjrNpg3/zbxnPX7h2b0PFBWwFIBhq2lYHz5YCsgt51+AoyMvhLm5Fkg4HkA8HwAWNgblW67mXJYarC10fZewBxI+AkI+C+Q8m4A8S8wsWmz6Bx04n+sACtAUIBhSxCJL2muAvLa1SMw+dBpINpnghTB1vNzQMIvgoDDOqMeum3jpwBEcHjpZwDy2zDX+n9w8q/fJcRUu7lWwCNjBcpXgGFbvsbcwgAqIO9deRQckGcCiJeBkEsB4GiQcAyADA5gDfq6mQOAxwHgUZDyURDiBwDtaYC5u8TklvsHcLq4y6xA7RUYdKdRe4G5g81SQAaPGf1w5SSAXA7QPgnarQkQ8vDOs79yMUArOJC1qI9ADrZ294CQu0HCLgDx3wDyMQDxn9CCH8DBmf+Anx+1TZzN33xtlmXyaOquAMO27jPE/Rs4BeQ9r54PB//7OJiF42G++EWYmz0GWq1nQVscDSCfAQIWgBRjADAGQragHbwdC1rQkr31GN4NFcEedrvz/yF4lGYGJMyGIAWxEwTsDDPTVut+mJl9AKTYAaccf78Q64LMlf+xAqxAjRRg2NZoMrgrrAArwAqwAs1UgGHbzHnlUbECrAArwArUSAGGbY0mg7vCCrACrAAr0EwFGLbNnFceFSvACrACrECNFGDY1mgyuCusACvACrACzVSAYdvMeeVRsQKsACvACtRIAYZtjSaDu8IKsAKsACvQTAUYts2cVx4VK8AKsAKsQI0UYNjWaDK4K6wAK8AKsALNVIBh28x55VGxAqwAK8AK1EgBhm2NJoO7wgqwAqwAK9BMBRi2zZxXHhUrwAqwAqxAjRRg2NZoMrgrrAArwAqwAs1UgGHbzHnlUbECrAArwArUSAGGbY0mg7vCCrACrAAr0EwFGLbNnFceFSvACrACrECNFGDY1mgyuCusACvACrACzVSAYdvMeeVRsQKsACvACtRIAYZtjSaDu8IKsAKsACvQTAUYts2cVx4VK8AKsAKsQI0UYNjWaDK4K6wAK8AKsALNVIBh28x55VGxAqwAK8AK1EgBhm2NJoO7wgqwAqwAK9BMBRi2zZxXHhUrwAqwAqxAjRRg2NZoMrgrrAArwAqwAs1UgGHbzHnlUbECrAArwArUSAGGbY0mg7vCCrACrAAr0EwFGLbNnFceFSvACrACrECNFGDY1mgyuCusACvACrACzVSAYdvMeeVRsQKsACvACtRIAYZtjSaDu8IKsAKsACvQTAUYts2cVx4VK8AKsAKsQI0UYNjWaDK4K6wAK8AKsALNVIBh28x55VGxAqwAK8AK1EgBhm2NJoO7wgqwAqwAK9BMBRi2zZxXHlU5CuSuFyll3OoVV1zR97V1+eWX9zoEAELkd78cybhWVoAVCBTou0PgaWAFKlYgZfMRIPPguG3bNu06Wb16ddz97du313Y9TUxMpMC7bt06VPbJycnUdcmLIngj0NaWqXhuuTlWoLYK1NY51FYx7lgdFcgAFIOnCs0IlDaQfPDBB8Wpp55K0uChhx7q2/o65phjyAB86KGHyNdG0FZhjUE6gDODmWQqfNEQKNA3ZzAE2vIQ/SkQ22mQiaogTUKUAtA8YOoAOTExAQ8//LBxvTzxxBPGa/zJQqvpiCOOIMH0iSee0F6HwXvLli1w7LHHastgYCZCmdRf2uj5KlagHgrUzjHUQxbuRcUKkGBqAukxxxyTsWcVnnnQpILyqaeeEscddxxJol27dlW+xpYsWUKC1Y4dO+DQQw8lXasD9tFHHy23b9+e0kIFMwXKUaaswhjJjkn9JU0OX8QKVKhA5Y6gwrFxU/VTILS3vOw0AKpuW1eFqQrSI444ImPPeQDVQVMHyGOOOQYo8NyzZ0/uujryyCO9zczOnTtz61q0aJERThGcH3rooUxdGLhNkMbArGbNKpB1W9lBdkwEsXGc3kTnilgBBwUYtg6icRGjArFdTU1NpWws2vLVQTUPqCpMdSDFIKpCUgdOFZQ6MD799NPatfPMZz4zFsgEXqOSlheocH3ssce0NRxyyCFaQCUhjgE7gLAKZxXMeVBWgZwHYwzEOggrmTAD2NJ++PLyFGDYlqftsNSMgtUEVfW+aTJLTUJVB9QlS5bE7aogXbRoUcauI+hh8FTBGcFSB8q9e/ca183+/fvDaw499NDK7eCpp54K2xwfHzfCZuHChdprAsiqsMYAHYFZhbIKZCqMkyBWt6mTGTEVwgzgyk2QG0QUMDoNVo0VUBRAt4IDuFKyVRuo6oCKZaU6mCZBGkAUAygGzwCWFFBSoRpdV6Y1meBqA+HgWqw+DM4qlFUgu8B4165dmSAgCeFkJpwH4Lxt6KmpqagNY1BS5rxx3cOhAMN2OOa5yCgzcM3LWpPbwBFY1UNJWLaKgVWFKgZUE0xVkOZBFPsNg+SSJUtCPV0AunjxYuey6iRGMNy9e7f1/EZld+3alSmrQlYH3qAg9psK5DwYYyDWZcTYtrRPADN8rc2IC1gowLC1EGtILi0MV9M2MAbW5NZvHlSx7DQJVB1M1b+roAwAmgfPAJK63w8cOEBaR9F1hxxyiFdTevrpp8P65s+fb8zQ8q6ZmZnRlg8ArII5CWUdkNW/54E4mRFjEN6zZ0/cv2hLmgpg2+yXt569mihXxm+QYhvoKqAF7OTkZAokWOaaB1dqxpq8lxplqypYTVBNAlUF47x581AgYhDF4Bn8DYMkdu2iRYtIhnXw4EESpHWVzZs3zwjXPXv2ZIpjwA2Ajf0d+5sOygcPHoz7YwJxHoSTmXAegJMZcPJ+sLoFHWW/yfu/FPgmH0PirJdk0nxRjgKFFjsrO9AKoIDF7rtGgMXut6pbwrZZKwWs8+fPT9mpDqpYdkqB6djYWKr+JEBVcKqAXLhwYWwEFHiOjo56X3N79+4FE3iTvwfXJ/+pZZOAVmGrQln9HQNxMis2QfjAgQMxsJNZMAbgvOyXAl/svq966Cq658vgHWhfV4vOe1/4tRgVd0KngHUGi9131QE2OhWcvNcabAnbZK3Ydm90UCmZraqZqgpVNeNMAlUH0wiWEUAxeOpgSQFtEszBBFHKULNaFaBYOR2QZ2dnMxlydG1Urw7ISdjmgRiDMJYJY9vRGIAp8MUyX13WG+gVwTfKehm87Eh9KsCw9almPevKPJqjO+CkZrDJg01JwCafY40Aq95zjQCbPMC0YMGCuC/RljAFrmrGmgdWDKrJ7DQJVBV2KkgxGOaBOJj+kZER45qamZlBr1mwYIHWgvbt25f5bWxszLiNHBSam5tDr1OBmpftqkAOymIgjrLiJISToNX9PWo7AnCUAavw1W0/R/BVt52TjyNF93yjrLcIeLdt2xZqGmW8iXu8pDmpp6vgXpWpgNExlNk4112qAs5ZbHQP1pTBmgCbvOeavN+qbgtH/zvKXFW46rJS9e86qKpZZBKq2Law+jcMoBEwk4C0zVSDsrZlgrEEoMPgm2dNycw0KqvCOvi7msEmoRrVr16TBDEGYRXANhmwCb42WW8EXpuMV812Aw2SGa+6zcwHq0r1aQNdOcN2oKcP7Xw4p8k3N2HPwOYddEpCNroHa9oixu696gCL3XNVt4UjkCa3fNW/RXDVZavB33WZaPD3JOhUoAYwjUCaB0RdJjs7Oyvmz5+fa13BNUXMb3R0VJtFHThwAHS/mzLdoE8BeFUYJ8uZIIwBOAnpAMCm7DfIbpOPNan3ftUsNw+8uoxXzXaDsSczXuzRImybme/tFrHk4ShbaLEPh0QDM0oryJruxaqQzctiXTPYJGCTW8MRYJMngIP/VjNXFZhRxmrKVpOANEFVhakK0QiYSbBi28Tj4+NaQ9JtK2MF8raO9+/fr91qDuAb/UtCGIMyBuMIlCqE8wCchGsefPO2nnVAjsCr226OwJs8ZLVv374wOInAGxyw8pHtcqY7MD6yrx1l2PZVfm+Ni+TL/aN7srrHdiLQYtvFOsiqz74GmSwFslEWG20RmzJYHWCx7FW3HZyEcFAuylDzwJqEahKoKkyTYEwCVAfMoPy8efO0E+2a3eqy1oMHD4ZtYb8nQZ0Ec/D3CMZ5IFYhbAKwmv1i8I2u0WW9yS3nCLxqxqtuNScz3GT2G4FXvb9rA13XTJfv6XrzdQNbEcN2YKcu7LhTNotBNjr0RDnwhEFWPeik3odNQha7B5u3RZyEJ5a96raEKXDVgRWDavJvKkST0IyyXBXAedvKVOjqIJvMXAPDSIIVA2kA5WRd0fUmCKuZsJrZqlvQusyXAl4148UOWiX/ZgvdIpluBN28E8y8tTzYztV37xm2vhWtrj40m1Wfk02eMNadLs7LZtVTxdGJYtNpYiyTNUE2eQ/WtEVsC9hk5hr9dzJrjcAYZatJULZarXidJOGcvCYJ0qjeKKPNA6n6G5YFR9kqtg2smlsSoGqWmwRyBNckPG0AHLWTLI9lvslt5+Tv6rZyMI7ob7pDVlFmi2W7VOhi93XzoEs9wZwHXfXkMr8gozonWaeW/j8OMWOVrRkHqQAAAABJRU5ErkJggg==;" vertex="1" parent="1">
          <mxGeometry x="370" y="140" width="82.21" height="90" as="geometry" />
        </mxCell>
      </root>
    </mxGraphModel>
  </diagram>
</mxfile>
